<svg width="24" height="24" viewBox="0 0 24 24" fill="none" xmlns="http://www.w3.org/2000/svg">
<g clip-path="url(#clip0_2510_7751)">
<path d="M23.954 5.54102L15.536 13.959C14.5974 14.8953 13.3257 15.4211 12 15.4211C10.6743 15.4211 9.40263 14.8953 8.464 13.959L0.046 5.54102C0.032 5.69902 0 5.84202 0 5.99902V17.999C0.00158786 19.3246 0.528882 20.5955 1.46622 21.5328C2.40356 22.4701 3.67441 22.9974 5 22.999H19C20.3256 22.9974 21.5964 22.4701 22.5338 21.5328C23.4711 20.5955 23.9984 19.3246 24 17.999V5.99902C24 5.84202 23.968 5.69902 23.954 5.54102Z" fill="#2695FF"/>
<path d="M14.1202 12.546L23.2542 3.411C22.8117 2.67732 22.1876 2.07004 21.4422 1.64773C20.6967 1.22542 19.855 1.00234 18.9982 1H4.99819C4.14141 1.00234 3.29969 1.22542 2.55421 1.64773C1.80874 2.07004 1.18467 2.67732 0.742188 3.411L9.87619 12.546C10.4398 13.1073 11.2028 13.4225 11.9982 13.4225C12.7936 13.4225 13.5566 13.1073 14.1202 12.546Z" fill="#2695FF"/>
</g>
<defs>
<clipPath id="clip0_2510_7751">
<rect width="24" height="24" fill="white"/>
</clipPath>
</defs>
</svg>
