<svg width="28" height="29" viewBox="0 0 28 29" fill="none" xmlns="http://www.w3.org/2000/svg">
<path d="M13.9602 28.3111C21.6703 28.3111 27.9205 22.0609 27.9205 14.3509C27.9205 6.64084 21.6703 0.390625 13.9602 0.390625C6.25021 0.390625 0 6.64084 0 14.3509C0 22.0609 6.25021 28.3111 13.9602 28.3111Z" fill="#2695FF"/>
<path fill-rule="evenodd" clip-rule="evenodd" d="M14.988 21.9105V15.0436H17.3273L17.6292 12.327H14.9126V10.6669C14.9126 9.91225 15.139 9.30857 16.2709 9.30857H17.7046V6.89382C17.4028 6.89382 16.4973 6.81836 15.5917 6.81836C13.5543 6.81836 12.1205 8.10119 12.1205 10.365V12.4025H9.78125V15.119H12.1205V21.986L14.988 21.9105Z" fill="#FAFDFF"/>
</svg>
