<svg width="41" height="41" viewBox="0 0 41 41" fill="none" xmlns="http://www.w3.org/2000/svg">
<circle cx="20.5766" cy="20.3813" r="19.9731" fill="#0E3860" fill-opacity="0.7"/>
<path d="M19.3913 12.4727H12.5427C12.0237 12.4727 11.526 12.6788 11.1591 13.0458C10.7921 13.4127 10.5859 13.9104 10.5859 14.4294V28.1266C10.5859 28.6456 10.7921 29.1433 11.1591 29.5103C11.526 29.8772 12.0237 30.0834 12.5427 30.0834H26.2399C26.7589 30.0834 27.2566 29.8772 27.6235 29.5103C27.9905 29.1433 28.1967 28.6456 28.1967 28.1266V21.278" stroke="white" stroke-width="2.21924" stroke-linecap="round" stroke-linejoin="round"/>
<path d="M26.7319 11.0024C27.1211 10.6132 27.649 10.3945 28.1995 10.3945C28.7499 10.3945 29.2778 10.6132 29.667 11.0024C30.0562 11.3916 30.2749 11.9195 30.2749 12.47C30.2749 13.0204 30.0562 13.5483 29.667 13.9375L20.3725 23.2321L16.459 24.2105L17.4374 20.297L26.7319 11.0024Z" stroke="white" stroke-width="2.21924" stroke-linecap="round" stroke-linejoin="round"/>
</svg>
