<svg width="41" height="41" viewBox="0 0 41 41" fill="none" xmlns="http://www.w3.org/2000/svg">
<circle cx="20.5766" cy="20.5845" r="19.9731" fill="#0E3860" fill-opacity="0.7"/>
<path d="M28.4587 29.3156V27.3588C28.4587 26.3209 28.0463 25.3255 27.3124 24.5915C26.5785 23.8576 25.5831 23.4453 24.5452 23.4453H16.7182C15.6803 23.4453 14.6848 23.8576 13.9509 24.5915C13.217 25.3255 12.8047 26.3209 12.8047 27.3588V29.3156" stroke="white" stroke-width="2.21924" stroke-linecap="round" stroke-linejoin="round"/>
<path d="M20.6322 19.534C22.7936 19.534 24.5457 17.7819 24.5457 15.6205C24.5457 13.4592 22.7936 11.707 20.6322 11.707C18.4709 11.707 16.7188 13.4592 16.7188 15.6205C16.7188 17.7819 18.4709 19.534 20.6322 19.534Z" stroke="white" stroke-width="2.21924" stroke-linecap="round" stroke-linejoin="round"/>
</svg>
