<svg width="41" height="40" viewBox="0 0 41 40" fill="none" xmlns="http://www.w3.org/2000/svg">
<circle cx="20.4692" cy="19.9731" r="19.9731" fill="#0E3860" fill-opacity="0.7"/>
<path d="M28.9115 12.6692C28.4235 12.1716 27.844 11.7768 27.2063 11.5075C26.5685 11.2382 25.8849 11.0996 25.1946 11.0996C24.5043 11.0996 23.8207 11.2382 23.1829 11.5075C22.5451 11.7768 21.9657 12.1716 21.4777 12.6692L20.4648 13.7014L19.452 12.6692C18.4662 11.6645 17.1292 11.1001 15.7351 11.1001C14.3409 11.1001 13.0039 11.6645 12.0181 12.6692C11.0323 13.6738 10.4785 15.0364 10.4785 16.4572C10.4785 17.878 11.0323 19.2406 12.0181 20.2452L13.031 21.2774L20.4648 28.8535L27.8987 21.2774L28.9115 20.2452C29.3998 19.7479 29.7871 19.1573 30.0514 18.5074C30.3156 17.8574 30.4516 17.1608 30.4516 16.4572C30.4516 15.7537 30.3156 15.057 30.0514 14.407C29.7871 13.7571 29.3998 13.1665 28.9115 12.6692Z" stroke="white" stroke-width="2.21924" stroke-linecap="round" stroke-linejoin="round"/>
</svg>
