<svg width="29" height="29" viewBox="0 0 29 29" fill="none" xmlns="http://www.w3.org/2000/svg">
<path d="M14.347 28.3111C22.057 28.3111 28.3072 22.0609 28.3072 14.3509C28.3072 6.64084 22.057 0.390625 14.347 0.390625C6.63693 0.390625 0.386719 6.64084 0.386719 14.3509C0.386719 22.0609 6.63693 28.3111 14.347 28.3111Z" fill="#2695FF"/>
<path d="M10.8766 19.9329H8.15999V11.1795H10.8766V19.9329ZM9.51827 9.97209C8.61275 9.97209 7.93359 9.29294 7.93359 8.38741C7.93359 7.48188 8.61275 6.80273 9.51827 6.80273C10.4238 6.80273 11.103 7.48188 11.103 8.38741C11.103 9.21748 10.4238 9.97209 9.51827 9.97209ZM21.0638 19.9329H18.3472V15.6316C18.3472 14.5752 18.3472 13.2924 16.9134 13.2924C15.4797 13.2924 15.2533 14.4243 15.2533 15.5562V19.9329H12.6122V11.1795H15.2533V12.3868H15.3288C15.857 11.4813 16.838 10.9531 17.8944 10.9531C20.6865 10.9531 21.1392 12.7641 21.1392 15.1034L21.0638 19.9329Z" fill="white"/>
</svg>
