<svg width="29" height="29" viewBox="0 0 29 29" fill="none" xmlns="http://www.w3.org/2000/svg">
<path d="M14.6516 28.3111C22.3617 28.3111 28.6119 22.0609 28.6119 14.3509C28.6119 6.64084 22.3617 0.390625 14.6516 0.390625C6.94162 0.390625 0.691406 6.64084 0.691406 14.3509C0.691406 22.0609 6.94162 28.3111 14.6516 28.3111Z" fill="#2695FF"/>
<path d="M14.6515 10.5003C12.5386 10.5003 10.8031 12.2359 10.8031 14.3488C10.8031 16.4617 12.5386 18.1973 14.6515 18.1973C16.7644 18.1973 18.5001 16.4617 18.5001 14.3488C18.5001 12.2359 16.7644 10.5003 14.6515 10.5003ZM14.6515 16.839C13.2933 16.839 12.1614 15.7071 12.1614 14.3488C12.1614 12.9905 13.2933 11.8586 14.6515 11.8586C16.0098 11.8586 17.1418 12.9905 17.1418 14.3488C17.1418 15.7071 16.0098 16.839 14.6515 16.839ZM19.5565 10.3494C19.5565 10.8776 19.1792 11.2549 18.651 11.2549C18.1228 11.2549 17.7454 10.8776 17.7454 10.3494C17.7454 9.82117 18.1228 9.44386 18.651 9.44386C19.1792 9.44386 19.5565 9.82117 19.5565 10.3494ZM22.1222 11.2549C22.1222 10.4249 21.9713 9.89663 21.7449 9.44386C21.5185 8.91564 21.2921 8.53833 20.9148 8.08557C20.462 7.6328 20.0847 7.40642 19.5565 7.2555C19.1037 7.10458 18.5001 6.95366 17.7454 6.8782C16.9154 6.8782 16.689 6.80273 14.6515 6.80273C12.6141 6.80273 12.3877 6.80273 11.5577 6.8782C10.7276 6.8782 10.1994 7.02912 9.7466 7.2555C9.21837 7.48188 8.84108 7.70826 8.38831 8.08557C7.93555 8.53833 7.70916 8.91564 7.55824 9.44386C7.40732 9.89663 7.25639 10.5003 7.18093 11.2549C7.18093 12.085 7.10547 12.3114 7.10547 14.3488C7.10547 16.3863 7.10547 16.6126 7.18093 17.4427C7.18093 18.2728 7.33186 18.801 7.55824 19.2538C7.78462 19.782 8.01101 20.1593 8.38831 20.6121C8.84108 21.0648 9.21837 21.2912 9.7466 21.4421C10.1994 21.593 10.8031 21.744 11.5577 21.8194C12.3877 21.8194 12.6141 21.8949 14.6515 21.8949C16.689 21.8949 16.9154 21.8949 17.7454 21.8194C18.5755 21.8194 19.1037 21.6685 19.5565 21.4421C20.0847 21.2157 20.462 20.9894 20.9148 20.6121C21.3676 20.1593 21.594 19.782 21.7449 19.2538C21.8958 18.801 22.0467 18.1973 22.1222 17.4427C22.1222 16.6126 22.1976 16.3863 22.1976 14.3488C22.1222 12.3114 22.1222 12.085 22.1222 11.2549ZM20.7639 17.3672C20.7639 18.1219 20.613 18.4992 20.5375 18.7255C20.3866 19.1028 20.2356 19.3292 20.0093 19.5556C19.7829 19.782 19.481 20.0084 19.1792 20.0838C18.8774 20.1593 18.5001 20.3102 17.8209 20.3102C17.0663 20.3102 16.7645 20.3857 14.8025 20.3857C12.765 20.3857 12.5387 20.3857 11.784 20.3102C11.0294 20.3102 10.6521 20.1593 10.4258 20.0838C10.0485 19.9329 9.82207 19.782 9.59569 19.5556C9.36931 19.3292 9.14291 19.0274 9.06745 18.7255C8.99199 18.4237 8.84108 18.0464 8.84108 17.3672C8.84108 16.6126 8.76562 16.3108 8.76562 14.3488C8.76562 12.3114 8.76562 12.085 8.84108 11.3304C8.84108 10.5758 8.99199 10.1985 9.06745 9.97209C9.21838 9.59478 9.36931 9.3684 9.59569 9.14202C9.82207 8.91564 10.1239 8.68925 10.4258 8.61379C10.7276 8.53833 11.1049 8.38741 11.784 8.38741C12.5387 8.38741 12.8405 8.31195 14.8025 8.31195C16.8399 8.31195 17.0663 8.31195 17.8209 8.38741C18.5755 8.38741 18.9528 8.53833 19.1792 8.61379C19.5565 8.76472 19.7829 8.91564 20.0093 9.14202C20.2356 9.3684 20.462 9.67024 20.5375 9.97209C20.613 10.2739 20.7639 10.6512 20.7639 11.3304C20.7639 12.085 20.8393 12.3868 20.8393 14.3488C20.8393 16.3108 20.7639 16.6126 20.7639 17.3672Z" fill="white"/>
</svg>
