<svg width="289" height="40" viewBox="0 0 289 40" fill="none" xmlns="http://www.w3.org/2000/svg">
<path d="M80.2025 34.6765H71.4562L69.0165 38.6821H64.375L76.5327 19.9805H80.8277L85.442 38.6821H81.0927L80.2093 34.6765H80.2025ZM79.4753 31.3882L77.8919 24.1755L73.461 31.3882H79.4753Z" fill="#0E3860"/>
<path d="M100.79 32.9184L104.066 38.6899H99.4785L96.5291 33.4529H92.8254L91.7789 38.6899H87.4023L91.1604 19.9883H98.8057C103.474 19.9883 106.159 22.1264 106.159 25.7869C106.159 29.4473 104.147 31.8764 100.79 32.9184ZM101.755 26.1861C101.755 24.3727 100.464 23.5134 98.2417 23.5134H94.8098L93.4982 30.0089H97.2019C100.077 30.0089 101.762 28.676 101.762 26.1861H101.755Z" fill="#0E3860"/>
<path d="M121.779 29.0419H125.748L124.192 36.735C122.289 38.1762 119.713 39.0084 117.002 39.0084C111.314 39.0084 107.719 35.7201 107.719 30.8891C107.719 24.5018 112.415 19.6641 119.53 19.6641C123.125 19.6641 125.755 20.8143 127.365 22.9253L124.253 25.4356C122.989 23.9403 121.433 23.3516 119.34 23.3516C114.936 23.3516 112.122 26.5046 112.122 30.6184C112.122 33.4264 113.998 35.3209 117.573 35.3209C118.674 35.3209 119.693 35.1044 120.685 34.6511L121.786 29.0419H121.779Z" fill="#0E3860"/>
<path d="M141.191 34.6765H132.445L130.005 38.6821H125.363L137.521 19.9805H141.816L146.43 38.6821H142.081L141.198 34.6765H141.191ZM140.464 31.3882L138.88 24.1755L134.449 31.3882H140.464Z" fill="#0E3860"/>
<path d="M152.137 19.9805H156.514L152.755 38.6821H148.379L152.137 19.9805Z" fill="#0E3860"/>
<path d="M178.173 19.9805L174.415 38.6821H170.847L163.841 26.9767L161.482 38.6821H157.188L160.946 19.9805H164.541L171.547 31.7129L173.885 19.9805H178.18H178.173Z" fill="#0E3860"/>
<path d="M182.633 19.9805H190.496C196.293 19.9805 199.752 22.9982 199.752 27.7818C199.752 34.3788 195.001 38.6821 188.049 38.6821H178.875L182.633 19.9805ZM188.185 35.1298C192.691 35.1298 195.348 32.0851 195.348 28.0254C195.348 25.2445 193.547 23.5395 190.007 23.5395H186.276L183.938 35.1366H188.178L188.185 35.1298Z" fill="#0E3860"/>
<path d="M204.797 19.9805H209.174L205.416 38.6821H201.039L204.797 19.9805Z" fill="#0E3860"/>
<path d="M224.498 29.0419H228.467L226.911 36.735C225.008 38.1762 222.432 39.0084 219.721 39.0084C214.032 39.0084 210.438 35.7201 210.438 30.8891C210.438 24.5018 215.133 19.6641 222.249 19.6641C225.844 19.6641 228.474 20.8143 230.084 22.9253L226.972 25.4356C225.708 23.9403 224.151 23.3516 222.058 23.3516C217.655 23.3516 214.841 26.5046 214.841 30.6184C214.841 33.4264 216.717 35.3209 220.291 35.3209C221.392 35.3209 222.412 35.1044 223.404 34.6511L224.505 29.0419H224.498Z" fill="#0E3860"/>
<path d="M245.193 29.0419H249.162L247.606 36.735C245.703 38.1762 243.127 39.0084 240.416 39.0084C234.728 39.0084 231.133 35.7201 231.133 30.8891C231.133 24.5018 235.829 19.6641 242.944 19.6641C246.539 19.6641 249.169 20.8143 250.78 22.9253L247.667 25.4356C246.403 23.9403 244.847 23.3516 242.754 23.3516C238.35 23.3516 235.537 26.5046 235.537 30.6184C235.537 33.4264 237.412 35.3209 240.987 35.3209C242.088 35.3209 243.107 35.1044 244.099 34.6511L245.2 29.0419H245.193Z" fill="#0E3860"/>
<path d="M258.615 23.4593L257.813 27.519H266.532L265.859 30.8885H257.113L256.256 35.2189H266.505L265.777 38.6899H251.234L254.992 19.9883H269.189L268.462 23.4593H258.615Z" fill="#0E3860"/>
<path d="M282.638 32.9184L285.913 38.6899H281.326L278.377 33.4529H274.673L273.627 38.6899H269.25L273.008 19.9883H280.653C285.322 19.9883 288.006 22.1264 288.006 25.7869C288.006 29.4473 285.995 31.8764 282.638 32.9184ZM283.603 26.1861C283.603 24.3727 282.312 23.5134 280.089 23.5134H276.657L275.346 30.0089H279.05C281.924 30.0089 283.61 28.676 283.61 26.1861H283.603Z" fill="#0E3860"/>
<path d="M41.0332 2.42904L34.9101 38.9797C34.482 38.9526 33.8228 38.9256 33.0752 38.885C31.587 38.8308 29.7521 38.7632 28.6919 38.7767H28.6512C28.3318 38.7632 27.9852 38.7497 27.6386 38.7361C23.3368 38.6008 21.3525 35.1365 21.3525 35.1365C21.3525 35.1365 19.6127 33.3909 13.5101 33.4856C8.90252 33.1811 9.60249 30.6912 9.60249 30.6912C9.60249 30.6912 11.4102 33.2014 17.7507 30.8739C20.2244 29.7236 24.7232 33.8916 24.7232 33.8916C24.7232 33.8916 28.5628 36.6183 29.9967 34.0134C31.4307 31.3949 27.4755 31.6317 27.4755 31.6317C27.4755 31.6317 25.6542 32.3692 23.4864 30.5491C21.4408 28.844 18.2808 29.5409 17.9342 29.6221C18.1448 29.2906 20.3263 26.5909 25.4571 29.4395C30.9074 32.4301 30.3365 24.3175 25.5523 25.5625C20.768 26.7939 19.504 27.2811 16.942 23.8439C14.3664 20.4067 8.9433 21.8208 8.9433 21.8208C8.9433 21.8208 13.0616 18.776 18.6681 22.6124C24.2747 26.4488 24.8047 20.9615 23.663 20.0751C22.4942 19.1888 21.9369 18.749 16.2216 19.0805C13.9654 19.0534 10.5063 16.9492 10.5063 16.9492C10.5063 16.9492 8.31129 15.4403 5.15123 17.2807C1.96399 19.1482 0 14.5337 0 14.5337C0 14.5337 2.4329 16.7935 6.6599 14.8652C10.9005 12.9571 15.0459 18.1332 18.471 16.0831C21.9097 14.0465 18.6205 11.4009 13.8363 12.4159C9.06562 13.4105 6.74145 10.2439 6.74145 10.2439C6.74145 10.2439 10.2617 12.2129 17.0915 10.7988C21.0127 9.99358 25.063 14.263 25.063 14.263C25.063 14.263 28.3861 16.1575 29.5958 14.1954C30.7919 12.2399 25.8989 14.9735 22.9495 11.3536C22.9495 11.3536 25.2329 12.1993 27.9308 11.313C29.1948 10.9273 29.6841 12.1181 30.4453 10.9679C31.1928 9.81766 30.0715 8.64035 26.0484 9.66881C22.0252 10.677 13.4489 6.53609 12.7354 4.12734C13.1499 4.35063 19.8438 8.08553 22.9019 7.80812C26.0348 7.50364 25.2804 5.78505 23.1398 5.33171C20.9991 4.88515 20.0816 7.54424 15.8818 4.70923C15.8818 4.70923 20.6525 5.14903 23.8669 3.74167C27.0677 2.34108 31.4782 7.71339 31.4782 7.71339C31.4782 7.71339 34.1218 10.0815 35.481 7.51718C36.8469 4.95281 35.3111 4.14087 31.9607 4.58067C28.6104 5.02047 26.5377 2.72675 26.4221 0C26.4221 0 29.7181 2.85531 32.9189 1.69153C35.746 0.656315 39.8915 2.00954 40.8361 2.35461C40.972 2.39521 41.0332 2.42228 41.0332 2.42228V2.42904Z" fill="#0E3860"/>
<path d="M50.8142 8.80339H42.2175L40.4778 17.4302H49.1424C53.5529 17.4302 56.2237 15.6439 56.2237 12.2609C56.2237 9.85214 54.2325 8.81015 50.8142 8.81015V8.80339ZM49.5502 23.5942H39.2681L37.4876 32.6269H47.5046C52.1802 32.6269 55.0684 30.8542 55.0684 27.3494C55.0684 24.6361 52.9141 23.5942 49.557 23.5942H49.5502ZM34.9052 38.9803C34.477 38.9533 33.8179 38.9262 33.0703 38.8856L40.4778 2.42969H52.8054C60.7361 2.42969 65.133 5.40679 65.133 10.7926C65.133 15.3936 62.4622 18.5196 58.5818 20.1434C61.6807 21.4019 63.5088 23.8445 63.5088 27.4576C63.5088 35.286 56.5363 39.0074 46.9814 39.0074H35.4217L34.9052 38.9803Z" fill="#0E3860"/>
</svg>
