<svg width="288" height="39" viewBox="0 0 288 39" fill="none" xmlns="http://www.w3.org/2000/svg">
<g clip-path="url(#clip0_1604_5759)">
<path d="M80.2044 34.6707H71.4582L69.0185 38.6762H64.377L76.5347 19.9746H80.8296L85.444 38.6762H81.0947L80.2112 34.6707H80.2044ZM79.4773 31.3823L77.8938 24.1696L73.463 31.3823H79.4773Z" fill="white"/>
<path d="M100.788 32.9106L104.064 38.6821H99.4766L96.5272 33.4451H92.8235L91.7769 38.6821H87.4004L91.1585 19.9805H98.8038C103.472 19.9805 106.157 22.1186 106.157 25.779C106.157 29.4395 104.145 31.8686 100.788 32.9106ZM101.753 26.1782C101.753 24.3649 100.462 23.5056 98.2397 23.5056H94.8078L93.4962 30.0011H97.2C100.075 30.0011 101.76 28.6682 101.76 26.1782H101.753Z" fill="white"/>
<path d="M121.781 29.0341H125.75L124.194 36.7272C122.291 38.1684 119.715 39.0006 117.004 39.0006C111.316 39.0006 107.721 35.7123 107.721 30.8813C107.721 24.494 112.417 19.6562 119.532 19.6562C123.127 19.6562 125.757 20.8065 127.367 22.9175L124.255 25.4278C122.991 23.9324 121.435 23.3438 119.342 23.3438C114.938 23.3438 112.124 26.4968 112.124 30.6106C112.124 33.4186 114 35.3131 117.575 35.3131C118.676 35.3131 119.695 35.0966 120.687 34.6432L121.788 29.0341H121.781Z" fill="white"/>
<path d="M141.191 34.6707H132.445L130.005 38.6762H125.363L137.521 19.9746H141.816L146.43 38.6762H142.081L141.198 34.6707H141.191ZM140.464 31.3823L138.88 24.1696L134.449 31.3823H140.464Z" fill="white"/>
<path d="M152.137 19.9746H156.514L152.755 38.6762H148.379L152.137 19.9746Z" fill="white"/>
<path d="M178.173 19.9746L174.415 38.6762H170.847L163.841 26.9708L161.482 38.6762H157.188L160.946 19.9746H164.541L171.547 31.7071L173.885 19.9746H178.18H178.173Z" fill="white"/>
<path d="M182.631 19.9746H190.494C196.291 19.9746 199.75 22.9923 199.75 27.776C199.75 34.3729 195 38.6762 188.047 38.6762H178.873L182.631 19.9746ZM188.183 35.124C192.689 35.124 195.346 32.0792 195.346 28.0195C195.346 25.2387 193.545 23.5336 190.005 23.5336H186.274L183.936 35.1308H188.177L188.183 35.124Z" fill="white"/>
<path d="M204.799 19.9746H209.176L205.418 38.6762H201.041L204.799 19.9746Z" fill="white"/>
<path d="M224.5 29.0341H228.469L226.913 36.7272C225.01 38.1684 222.434 39.0006 219.723 39.0006C214.034 39.0006 210.439 35.7123 210.439 30.8813C210.439 24.494 215.135 19.6562 222.251 19.6562C225.846 19.6562 228.476 20.8065 230.086 22.9175L226.974 25.4278C225.71 23.9324 224.153 23.3438 222.06 23.3438C217.657 23.3438 214.843 26.4968 214.843 30.6106C214.843 33.4186 216.719 35.3131 220.293 35.3131C221.394 35.3131 222.414 35.0966 223.406 34.6432L224.507 29.0341H224.5Z" fill="white"/>
<path d="M245.193 29.0341H249.162L247.606 36.7272C245.703 38.1684 243.127 39.0006 240.416 39.0006C234.728 39.0006 231.133 35.7123 231.133 30.8813C231.133 24.494 235.829 19.6562 242.944 19.6562C246.539 19.6562 249.169 20.8065 250.78 22.9175L247.667 25.4278C246.403 23.9324 244.847 23.3438 242.754 23.3438C238.35 23.3438 235.537 26.4968 235.537 30.6106C235.537 33.4186 237.412 35.3131 240.987 35.3131C242.088 35.3131 243.107 35.0966 244.099 34.6432L245.2 29.0341H245.193Z" fill="white"/>
<path d="M258.615 23.4515L257.813 27.5112H266.532L265.859 30.8807H257.113L256.256 35.211H266.505L265.777 38.6821H251.234L254.992 19.9805H269.189L268.462 23.4515H258.615Z" fill="white"/>
<path d="M282.638 32.9106L285.913 38.6821H281.326L278.377 33.4451H274.673L273.627 38.6821H269.25L273.008 19.9805H280.653C285.322 19.9805 288.006 22.1186 288.006 25.779C288.006 29.4395 285.995 31.8686 282.638 32.9106ZM283.603 26.1782C283.603 24.3649 282.312 23.5056 280.089 23.5056H276.657L275.346 30.0011H279.05C281.924 30.0011 283.61 28.6682 283.61 26.1782H283.603Z" fill="white"/>
<path d="M41.0332 2.42318L34.9101 38.9738C34.482 38.9468 33.8228 38.9197 33.0752 38.8791C31.587 38.825 29.7521 38.7573 28.6919 38.7709H28.6512C28.3318 38.7573 27.9852 38.7438 27.6386 38.7303C23.3368 38.5949 21.3525 35.1307 21.3525 35.1307C21.3525 35.1307 19.6127 33.385 13.5101 33.4797C8.90252 33.1753 9.60249 30.6853 9.60249 30.6853C9.60249 30.6853 11.4102 33.1956 17.7507 30.868C20.2244 29.7178 24.7232 33.8857 24.7232 33.8857C24.7232 33.8857 28.5628 36.6125 29.9967 34.0075C31.4307 31.389 27.4755 31.6258 27.4755 31.6258C27.4755 31.6258 25.6542 32.3633 23.4864 30.5432C21.4408 28.8382 18.2808 29.5351 17.9342 29.6163C18.1448 29.2847 20.3263 26.5851 25.4571 29.4336C30.9074 32.4242 30.3365 24.3116 25.5523 25.5566C20.768 26.788 19.504 27.2752 16.942 23.838C14.3664 20.4008 8.9433 21.8149 8.9433 21.8149C8.9433 21.8149 13.0616 18.7702 18.6681 22.6066C24.2747 26.443 24.8047 20.9556 23.663 20.0693C22.4942 19.1829 21.9369 18.7431 16.2216 19.0746C13.9654 19.0476 10.5063 16.9433 10.5063 16.9433C10.5063 16.9433 8.31129 15.4345 5.15123 17.2749C1.96399 19.1423 0 14.5278 0 14.5278C0 14.5278 2.4329 16.7877 6.6599 14.8593C10.9005 12.9513 15.0459 18.1274 18.471 16.0772C21.9097 14.0406 18.6205 11.3951 13.8363 12.41C9.06562 13.4046 6.74145 10.2381 6.74145 10.2381C6.74145 10.2381 10.2617 12.207 17.0915 10.7929C21.0127 9.98772 25.063 14.2572 25.063 14.2572C25.063 14.2572 28.3861 16.1517 29.5958 14.1895C30.7919 12.2341 25.8989 14.9676 22.9495 11.3477C22.9495 11.3477 25.2329 12.1935 27.9308 11.3071C29.1948 10.9214 29.6841 12.1123 30.4453 10.962C31.1928 9.8118 30.0715 8.63449 26.0484 9.66295C22.0252 10.6711 13.4489 6.53023 12.7354 4.12148C13.1499 4.34477 19.8438 8.07967 22.9019 7.80226C26.0348 7.49778 25.2804 5.77919 23.1398 5.32586C20.9991 4.87929 20.0816 7.53838 15.8818 4.70337C15.8818 4.70337 20.6525 5.14317 23.8669 3.73581C27.0677 2.33522 31.4782 7.70753 31.4782 7.70753C31.4782 7.70753 34.1218 10.0757 35.481 7.51132C36.8469 4.94695 35.3111 4.13502 31.9607 4.57481C28.6104 5.01461 26.5377 2.72089 26.4221 -0.00585938C26.4221 -0.00585938 29.7181 2.84945 32.9189 1.68567C35.746 0.650456 39.8915 2.00368 40.8361 2.34876C40.972 2.38935 41.0332 2.41642 41.0332 2.41642V2.42318Z" fill="white"/>
<path d="M50.8122 8.79753H42.2155L40.4758 17.4243H49.1405C53.551 17.4243 56.2217 15.6381 56.2217 12.255C56.2217 9.84628 54.2305 8.80429 50.8122 8.80429V8.79753ZM49.5482 23.5883H39.2661L37.4856 32.6211H47.5027C52.1782 32.6211 55.0664 30.8484 55.0664 27.3435C55.0664 24.6303 52.9121 23.5883 49.555 23.5883H49.5482ZM34.9032 38.9745C34.4751 38.9474 33.8159 38.9204 33.0684 38.8798L40.4758 2.42383H52.8034C60.7341 2.42383 65.131 5.40093 65.131 10.7868C65.131 15.3877 62.4603 18.5137 58.5799 20.1376C61.6788 21.3961 63.5068 23.8386 63.5068 27.4518C63.5068 35.2802 56.5343 39.0016 46.9794 39.0016H35.4197L34.9032 38.9745Z" fill="white"/>
</g>
<defs>
<clipPath id="clip0_1604_5759">
<rect width="288" height="39" fill="white"/>
</clipPath>
</defs>
</svg>
