<svg width="28" height="29" viewBox="0 0 28 29" fill="none" xmlns="http://www.w3.org/2000/svg">
<path d="M14.0384 28.3111C21.7484 28.3111 27.9986 22.0609 27.9986 14.3509C27.9986 6.64084 21.7484 0.390625 14.0384 0.390625C6.32834 0.390625 0.078125 6.64084 0.078125 14.3509C0.078125 22.0609 6.32834 28.3111 14.0384 28.3111Z" fill="#2695FF"/>
<path fill-rule="evenodd" clip-rule="evenodd" d="M11.1837 20.211C16.0132 20.2864 20.0126 16.3625 20.0126 11.533C20.0126 11.4575 20.0126 11.4575 20.0126 11.3821V10.9293C20.6163 10.4765 21.1445 9.94831 21.5218 9.34462C20.9936 9.571 20.3899 9.72193 19.7863 9.87285C20.3899 9.49554 20.9182 8.89186 21.1445 8.21271C20.5409 8.51455 19.8617 8.8164 19.1826 8.96732C18.5789 8.28817 17.7488 7.98633 16.9187 7.98633C15.1831 7.98633 13.8248 9.42008 13.8248 11.0802C13.8248 11.3066 13.8248 11.533 13.9003 11.7594C11.4101 11.6084 9.07081 10.4765 7.48613 8.43909C7.18429 8.89186 7.03336 9.49554 7.03336 10.0238C7.03336 11.0802 7.5616 11.9857 8.39167 12.6649C7.86345 12.6649 7.41069 12.514 6.95792 12.2121C6.95792 13.7213 8.01437 15.0042 9.52358 15.2306C9.22174 15.306 8.99535 15.306 8.69351 15.306C8.46713 15.306 8.31622 15.306 8.08983 15.2306C8.5426 16.5134 9.67451 17.4189 11.0328 17.4189C9.90089 18.249 8.54259 18.7772 7.1843 18.7772C6.95791 18.7772 6.65607 18.7772 6.42969 18.7018C7.78798 19.6827 9.52357 20.2864 11.1837 20.211Z" fill="white"/>
</svg>
