<svg width="36" height="36" viewBox="0 0 36 36" fill="none" xmlns="http://www.w3.org/2000/svg">
<circle cx="18" cy="18" r="18" fill="#FFFDFD"/>
<path d="M25.2974 21.4606C25.2974 21.6347 25.2652 21.8621 25.2007 22.1426C25.1362 22.4232 25.0684 22.6441 24.9975 22.8053C24.8621 23.1278 24.4686 23.4696 23.8172 23.8308C23.2109 24.1598 22.6111 24.3242 22.0178 24.3242C21.8436 24.3242 21.6727 24.3129 21.505 24.2904C21.3373 24.2678 21.1519 24.2275 20.9487 24.1694C20.7456 24.1114 20.594 24.0646 20.494 24.0291C20.3941 23.9937 20.2151 23.9276 19.9571 23.8308C19.6991 23.7341 19.5411 23.676 19.4831 23.6567C18.851 23.4309 18.2867 23.1633 17.79 22.8537C16.9709 22.3442 16.1196 21.6476 15.236 20.764C14.3524 19.8804 13.6558 19.0291 13.1463 18.21C12.8367 17.7133 12.5691 17.149 12.3433 16.5169C12.324 16.4589 12.2659 16.3009 12.1692 16.0429C12.0724 15.7849 12.0063 15.6059 11.9709 15.506C11.9354 15.406 11.8886 15.2544 11.8306 15.0513C11.7725 14.8481 11.7322 14.6627 11.7096 14.495C11.6871 14.3273 11.6758 14.1564 11.6758 13.9822C11.6758 13.3889 11.8402 12.7891 12.1692 12.1828C12.5304 11.5314 12.8722 11.1379 13.1947 11.0025C13.3559 10.9316 13.5768 10.8638 13.8574 10.7993C14.1379 10.7348 14.3653 10.7026 14.5394 10.7026C14.6297 10.7026 14.6974 10.7123 14.7426 10.7316C14.8587 10.7703 15.0296 11.0154 15.2553 11.4669C15.3263 11.5894 15.423 11.7636 15.5456 11.9893C15.6681 12.215 15.781 12.4198 15.8842 12.6036C15.9874 12.7874 16.0873 12.96 16.1841 13.1212C16.2034 13.147 16.2599 13.2276 16.3534 13.3631C16.4469 13.4985 16.5162 13.613 16.5614 13.7065C16.6065 13.8 16.6291 13.8919 16.6291 13.9822C16.6291 14.1112 16.5372 14.2725 16.3534 14.466C16.1696 14.6594 15.9696 14.8368 15.7536 14.9981C15.5375 15.1593 15.3376 15.3302 15.1537 15.5108C14.9699 15.6914 14.878 15.8397 14.878 15.9558C14.878 16.0139 14.8941 16.0864 14.9264 16.1735C14.9586 16.2606 14.9861 16.3267 15.0086 16.3718C15.0312 16.417 15.0763 16.4944 15.1441 16.604C15.2118 16.7137 15.2489 16.7749 15.2553 16.7878C15.7455 17.6714 16.3066 18.4293 16.9387 19.0613C17.5707 19.6934 18.3286 20.2545 19.2122 20.7447C19.2251 20.7511 19.2863 20.7882 19.396 20.8559C19.5056 20.9237 19.583 20.9688 19.6282 20.9914C19.6733 21.0139 19.7394 21.0414 19.8265 21.0736C19.9136 21.1059 19.9861 21.122 20.0442 21.122C20.1603 21.122 20.3086 21.0301 20.4892 20.8463C20.6698 20.6624 20.8407 20.4625 21.0019 20.2464C21.1632 20.0304 21.3406 19.8304 21.534 19.6466C21.7275 19.4628 21.8888 19.3709 22.0178 19.3709C22.1081 19.3709 22.2 19.3935 22.2935 19.4386C22.387 19.4838 22.5015 19.5531 22.6369 19.6466C22.7724 19.7401 22.853 19.7966 22.8788 19.8159C23.04 19.9127 23.2126 20.0126 23.3964 20.1158C23.5802 20.219 23.785 20.3319 24.0107 20.4544C24.2364 20.577 24.4106 20.6737 24.5331 20.7447C24.9846 20.9704 25.2297 21.1413 25.2684 21.2574C25.2877 21.3026 25.2974 21.3703 25.2974 21.4606Z" fill="#0E3860"/>
</svg>
