<svg width="36" height="36" viewBox="0 0 36 36" fill="none" xmlns="http://www.w3.org/2000/svg">
<circle cx="18" cy="18" r="18" fill="#FFFDFD"/>
<path d="M26.9217 16.1449V23.7619C26.9217 24.1841 26.7714 24.5454 26.4708 24.846C26.1702 25.1466 25.8088 25.2969 25.3867 25.2969H11.2654C10.8433 25.2969 10.4819 25.1466 10.1814 24.846C9.88076 24.5454 9.73047 24.1841 9.73047 23.7619V16.1449C10.0119 16.4582 10.3348 16.7365 10.6994 16.9795C13.0146 18.5528 14.6039 19.656 15.4673 20.2892C15.8318 20.5578 16.1276 20.7672 16.3546 20.9175C16.5817 21.0678 16.8839 21.2213 17.2612 21.378C17.6385 21.5347 17.9903 21.613 18.3165 21.613H18.3261H18.3357C18.6618 21.613 19.0136 21.5347 19.3909 21.378C19.7683 21.2213 20.0704 21.0678 20.2975 20.9175C20.5245 20.7672 20.8203 20.5578 21.1849 20.2892C22.2721 19.5025 23.8646 18.3993 25.9623 16.9795C26.3269 16.7301 26.6467 16.4519 26.9217 16.1449ZM26.9217 13.3244C26.9217 13.8297 26.765 14.3125 26.4516 14.773C26.1382 15.2335 25.7481 15.6268 25.2812 15.953C22.8765 17.6222 21.3799 18.6615 20.7915 19.0708C20.7276 19.1156 20.5917 19.2131 20.3838 19.3634C20.176 19.5137 20.0033 19.6352 19.8658 19.728C19.7283 19.8207 19.562 19.9246 19.3669 20.0397C19.1719 20.1549 18.988 20.2412 18.8153 20.2988C18.6426 20.3563 18.4828 20.3851 18.3357 20.3851H18.3261H18.3165C18.1694 20.3851 18.0095 20.3563 17.8368 20.2988C17.6641 20.2412 17.4803 20.1549 17.2852 20.0397C17.0901 19.9246 16.9238 19.8207 16.7863 19.728C16.6488 19.6352 16.4762 19.5137 16.2683 19.3634C16.0604 19.2131 15.9245 19.1156 15.8606 19.0708C15.2786 18.6615 14.4408 18.0779 13.3471 17.32C12.2535 16.5622 11.598 16.1065 11.3805 15.953C10.984 15.6844 10.6099 15.315 10.2581 14.845C9.90635 14.3749 9.73047 13.9384 9.73047 13.5355C9.73047 13.0366 9.86318 12.6209 10.1286 12.2884C10.394 11.9558 10.7729 11.7895 11.2654 11.7895H25.3867C25.8024 11.7895 26.1622 11.9398 26.466 12.2404C26.7698 12.541 26.9217 12.9023 26.9217 13.3244Z" fill="#0E3860"/>
</svg>
