<svg width="21" height="19" viewBox="0 0 21 19" fill="none" xmlns="http://www.w3.org/2000/svg">
<g filter="url(#filter0_d_1628_5805)">
<path d="M17 3.29408V9.05413C17 9.37333 16.8863 9.64658 16.659 9.87388C16.4317 10.1012 16.1585 10.2148 15.8393 10.2148H5.16071C4.84152 10.2148 4.56827 10.1012 4.34096 9.87388C4.11365 9.64658 4 9.37333 4 9.05413V3.29408C4.2128 3.53106 4.45703 3.74144 4.7327 3.92522C6.48344 5.11495 7.68527 5.94922 8.33817 6.42801C8.61384 6.63114 8.83752 6.78953 9.00921 6.90318C9.1809 7.01683 9.40941 7.13291 9.69475 7.25139C9.9801 7.36988 10.2461 7.42913 10.4927 7.42913H10.5H10.5073C10.7539 7.42913 11.0199 7.36988 11.3052 7.25139C11.5906 7.13291 11.8191 7.01683 11.9908 6.90318C12.1625 6.78953 12.3862 6.63114 12.6618 6.42801C13.484 5.83315 14.6882 4.99888 16.2746 3.92522C16.5502 3.73661 16.792 3.52623 17 3.29408ZM17 1.16127C17 1.54334 16.8815 1.90848 16.6445 2.2567C16.4076 2.60491 16.1125 2.90234 15.7595 3.149C13.941 4.41127 12.8093 5.19717 12.3644 5.5067C12.316 5.54055 12.2133 5.6143 12.0561 5.72796C11.8989 5.84161 11.7683 5.9335 11.6643 6.00363C11.5604 6.07375 11.4346 6.15234 11.2871 6.2394C11.1396 6.32645 11.0006 6.39174 10.87 6.43527C10.7394 6.47879 10.6185 6.50056 10.5073 6.50056H10.5H10.4927C10.3815 6.50056 10.2606 6.47879 10.13 6.43527C9.99944 6.39174 9.8604 6.32645 9.71289 6.2394C9.56538 6.15234 9.43964 6.07375 9.33566 6.00363C9.23168 5.9335 9.1011 5.84161 8.94392 5.72796C8.78674 5.6143 8.68397 5.54055 8.6356 5.5067C8.1955 5.19717 7.56194 4.75586 6.73493 4.18276C5.90792 3.60965 5.4122 3.26507 5.24777 3.149C4.94792 2.94587 4.66499 2.66657 4.399 2.3111C4.133 1.95564 4 1.62556 4 1.32087C4 0.943638 4.10035 0.629278 4.30106 0.377789C4.50177 0.126302 4.78832 0.000557899 5.16071 0.000557899H15.8393C16.1536 0.000557899 16.4257 0.114211 16.6554 0.341517C16.8851 0.568824 17 0.842075 17 1.16127Z" fill="white"/>
</g>
<defs>
<filter id="filter0_d_1628_5805" x="0" y="0" width="21" height="18.2148" filterUnits="userSpaceOnUse" color-interpolation-filters="sRGB">
<feFlood flood-opacity="0" result="BackgroundImageFix"/>
<feColorMatrix in="SourceAlpha" type="matrix" values="0 0 0 0 0 0 0 0 0 0 0 0 0 0 0 0 0 0 127 0" result="hardAlpha"/>
<feOffset dy="4"/>
<feGaussianBlur stdDeviation="2"/>
<feComposite in2="hardAlpha" operator="out"/>
<feColorMatrix type="matrix" values="0 0 0 0 0 0 0 0 0 0 0 0 0 0 0 0 0 0 0.25 0"/>
<feBlend mode="normal" in2="BackgroundImageFix" result="effect1_dropShadow_1628_5805"/>
<feBlend mode="normal" in="SourceGraphic" in2="effect1_dropShadow_1628_5805" result="shape"/>
</filter>
</defs>
</svg>
