<svg width="10" height="12" viewBox="0 0 10 12" fill="none" xmlns="http://www.w3.org/2000/svg">
<path d="M9.28571 9.22015C9.28571 9.7473 9.13458 10.1995 8.83231 10.5767C8.53004 10.954 8.16611 11.1426 7.74051 11.1426H1.5452C1.11961 11.1426 0.755673 10.954 0.453404 10.5767C0.151135 10.1995 0 9.7473 0 9.22015C0 8.80906 0.0205543 8.42094 0.0616629 8.0558C0.102772 7.69066 0.178943 7.3231 0.290179 6.95312C0.401414 6.58315 0.542876 6.26637 0.714565 6.00279C0.886254 5.73921 1.11356 5.524 1.39648 5.35714C1.67941 5.19029 2.00465 5.10686 2.37221 5.10686C3.00577 5.72591 3.76265 6.03544 4.64286 6.03544C5.52307 6.03544 6.27995 5.72591 6.9135 5.10686C7.28106 5.10686 7.60631 5.19029 7.88923 5.35714C8.17215 5.524 8.39946 5.73921 8.57115 6.00279C8.74284 6.26637 8.8843 6.58315 8.99554 6.95312C9.10677 7.3231 9.18294 7.69066 9.22405 8.0558C9.26516 8.42094 9.28571 8.80906 9.28571 9.22015ZM6.61244 0.815848C6.61244 0.815848 6.74847 0.95187 7.02051 1.22391C7.29255 1.49595 7.42857 2.01646 7.42857 2.78544C7.42857 3.55441 7.15653 4.21094 6.61244 4.75502C6.06836 5.29911 5.41183 5.57115 4.64286 5.57115C3.87388 5.57115 3.21735 5.29911 2.67327 4.75502C2.12919 4.21094 1.85714 3.55441 1.85714 2.78544C1.85714 2.01646 2.12919 1.35993 2.67327 0.815848C3.21735 0.271764 3.87388 -0.000278473 4.64286 -0.000278473C5.41183 -0.000278473 6.06836 0.271764 6.61244 0.815848Z" fill="white"/>
</svg>
