<svg width="36" height="37" viewBox="0 0 36 37" fill="none" xmlns="http://www.w3.org/2000/svg">
<circle cx="18" cy="18.1895" r="18" fill="#FFFDFD"/>
<path d="M20.2058 17.4764C20.2058 17.4764 20.3245 17.3576 20.5621 17.1201C20.7996 16.8825 20.9184 16.4281 20.9184 15.7566C20.9184 15.0851 20.6808 14.5119 20.2058 14.0368C19.7307 13.5617 19.1574 13.3242 18.486 13.3242C17.8145 13.3242 17.2412 13.5617 16.7662 14.0368C16.2911 14.5119 16.0535 15.0851 16.0535 15.7566C16.0535 16.4281 16.2911 17.0013 16.7662 17.4764C17.2412 17.9515 17.8145 18.189 18.486 18.189C19.1574 18.189 19.7307 17.9515 20.2058 17.4764ZM23.3508 15.7566C23.3508 16.4471 23.2463 17.014 23.0373 17.4574L19.5787 24.8117C19.4773 25.0207 19.3269 25.1854 19.1273 25.3058C18.9278 25.4262 18.714 25.4863 18.486 25.4863C18.2579 25.4863 18.0441 25.4262 17.8446 25.3058C17.6451 25.1854 17.4978 25.0207 17.4028 24.8117L13.9346 17.4574C13.7256 17.014 13.6211 16.4471 13.6211 15.7566C13.6211 14.4137 14.0962 13.2672 15.0463 12.317C15.9965 11.3668 17.1431 10.8917 18.486 10.8917C19.8289 10.8917 20.9754 11.3668 21.9256 12.317C22.8757 13.2672 23.3508 14.4137 23.3508 15.7566Z" fill="#0E3860"/>
</svg>
