<svg width="12" height="12" viewBox="0 0 12 12" fill="none" xmlns="http://www.w3.org/2000/svg">
<path d="M8.82143 6.49972C9.46466 6.49972 10.0124 6.72582 10.4646 7.17801C10.9168 7.63021 11.1429 8.17792 11.1429 8.82115C11.1429 9.46438 10.9168 10.0121 10.4646 10.4643C10.0124 10.9165 9.46466 11.1426 8.82143 11.1426C8.1782 11.1426 7.63049 10.9165 7.17829 10.4643C6.7261 10.0121 6.5 9.46438 6.5 8.82115C6.5 8.76311 6.50484 8.6809 6.51451 8.5745L3.9029 7.26869C3.45796 7.68462 2.9308 7.89258 2.32143 7.89258C1.6782 7.89258 1.13049 7.66648 0.678292 7.21429C0.226097 6.76209 0 6.21438 0 5.57115C0 4.92792 0.226097 4.38021 0.678292 3.92801C1.13049 3.47582 1.6782 3.24972 2.32143 3.24972C2.9308 3.24972 3.45796 3.45768 3.9029 3.87361L6.51451 2.5678C6.50484 2.4614 6.5 2.37919 6.5 2.32115C6.5 1.67792 6.7261 1.13021 7.17829 0.678014C7.63049 0.225819 8.1782 -0.000278473 8.82143 -0.000278473C9.46466 -0.000278473 10.0124 0.225819 10.4646 0.678014C10.9168 1.13021 11.1429 1.67792 11.1429 2.32115C11.1429 2.96438 10.9168 3.51209 10.4646 3.96429C10.0124 4.41648 9.46466 4.64258 8.82143 4.64258C8.21205 4.64258 7.6849 4.43462 7.23995 4.01869L4.62835 5.3245C4.63802 5.4309 4.64286 5.51311 4.64286 5.57115C4.64286 5.62919 4.63802 5.7114 4.62835 5.8178L7.23995 7.12361C7.6849 6.70768 8.21205 6.49972 8.82143 6.49972Z" fill="white"/>
</svg>
