<svg width="90" height="81" viewBox="0 0 90 81" fill="none" xmlns="http://www.w3.org/2000/svg">
<path d="M40.1221 35.0536L40.0635 37.2122H41.3232L43.4766 37.1534L43.6816 37.4104L43.4619 40.1269L41.0669 40.0682H39.9902V40.3105L40.1367 44.2164H36.4014L36.5845 40.6849L36.4014 32.1829H44.4214L44.6265 32.4398L44.3848 35.1564L41.4111 35.0462H40.1147L40.1221 35.0536ZM85.4077 8.21849L88.9673 8.24051C89.5386 8.24051 90 8.7104 90 9.28308C90 9.44461 89.9634 9.59879 89.8975 9.73095L86.2427 17.3153C86.0669 17.6897 85.6934 17.9026 85.3052 17.9026H68.8184V20.3842H63.7793V17.9026H33.9185V20.3842H28.8794V17.9026H17.4243V77.9604C17.4243 78.7974 17.0801 79.5536 16.5308 80.1043C15.9741 80.6549 15.2124 81 14.3848 81H10.7959C9.96094 81 9.19922 80.6549 8.6499 80.1043L8.58398 80.0309C8.07129 79.4875 7.75635 78.7533 7.75635 77.9531V17.9026H3.03955C2.20459 17.9026 1.44287 17.5575 0.893555 17.0069C0.344238 16.4562 0 15.6927 0 14.8557V11.2581C0 10.4211 0.344238 9.65753 0.893555 9.10687C1.44287 8.55622 2.20459 8.21115 3.03955 8.21115H7.75635V4.709C7.75635 4.38595 7.90283 4.09961 8.12988 3.90872L11.8726 0.289099C12.2754 -0.100029 12.9126 -0.0926865 13.3081 0.289099L17.1021 3.95277C17.3145 4.15835 17.417 4.43 17.417 4.70166V8.2038H85.4077V8.21849ZM27.7661 22.7704H76.5454C78.0835 22.7704 79.4897 23.4091 80.5078 24.4223C81.5332 25.4502 82.1631 26.8526 82.1631 28.4017V65.5891C82.1631 67.1309 81.5259 68.5332 80.5078 69.5538H80.5005C79.4824 70.5817 78.0762 71.2131 76.5454 71.2131H27.7661C26.228 71.2131 24.8218 70.5817 23.8037 69.5611C22.7856 68.5406 22.1484 67.1309 22.1484 65.5891V28.3944C22.1484 26.8452 22.7783 25.4355 23.7964 24.415C24.8145 23.3945 26.2207 22.763 27.7661 22.763V22.7704ZM76.5454 25.553H27.7661C26.9897 25.553 26.272 25.8761 25.7593 26.39C25.2466 26.9039 24.9243 27.6161 24.9243 28.4017V65.5891C24.9243 66.3673 25.2466 67.0869 25.7593 67.6008C26.272 68.1147 26.9897 68.4378 27.7661 68.4378H76.5454C77.3218 68.4378 78.0322 68.1147 78.5449 67.6008C79.0649 67.0795 79.3799 66.3673 79.3799 65.5891V28.3944C79.3799 27.6161 79.0576 26.8966 78.5449 26.3827C78.0322 25.8687 77.3145 25.5457 76.5381 25.5457L76.5454 25.553ZM51.0205 31.9699C52.7637 31.9699 54.1113 32.4912 55.0708 33.5265C56.0303 34.5617 56.499 36.0227 56.499 37.9096C56.499 39.9948 55.979 41.6027 54.9316 42.748C53.8843 43.8861 52.4048 44.4587 50.4858 44.4587C48.7427 44.4587 47.395 43.9374 46.4356 42.8875C45.4834 41.8376 45.0073 40.3545 45.0073 38.4309C45.0073 36.3678 45.5273 34.7819 46.5747 33.6586C47.6221 32.5353 49.1016 31.9773 51.0205 31.9773V31.9699ZM50.6836 34.9508C50.2002 34.9508 49.834 35.0316 49.585 35.2004C49.3359 35.3693 49.1602 35.663 49.0576 36.0815C48.9551 36.5073 48.9038 37.1167 48.9038 37.9243C48.9038 38.9522 48.9624 39.7378 49.0723 40.2664C49.1821 40.8024 49.3726 41.1695 49.6362 41.3824C49.8999 41.5953 50.2954 41.6981 50.8154 41.6981C51.2988 41.6981 51.665 41.6174 51.9141 41.4485C52.1631 41.2796 52.3389 40.986 52.4414 40.5528C52.5439 40.1269 52.6025 39.5102 52.6025 38.7026C52.6025 37.6894 52.5439 36.9111 52.4341 36.3752C52.3242 35.8392 52.1338 35.4721 51.8701 35.2592C51.6064 35.0463 51.2109 34.9435 50.6909 34.9435L50.6836 34.9508ZM66.0938 39.4882C66.9873 40.8758 67.8735 42.168 68.7671 43.3574L68.7085 43.7686C67.4487 44.1504 66.2036 44.378 64.9805 44.4587L64.6289 44.1651L64.4019 43.7025C64.2993 43.5043 64.1016 43.0858 63.8086 42.447C63.5083 41.8083 63.252 41.2062 63.0249 40.6482H61.7798L61.9116 44.2385H58.1836L58.3667 40.707L58.1836 32.2049L63.8818 32.1829C65.2295 32.1829 66.2695 32.4986 67.002 33.1447C67.7344 33.7834 68.1006 34.7012 68.1006 35.9053C68.1006 36.6101 67.9248 37.2782 67.5732 37.895C67.2217 38.519 66.731 39.0477 66.0938 39.4955V39.4882ZM64.1821 36.2724C64.1821 35.7805 64.0576 35.406 63.8013 35.1637C63.5449 34.9214 63.1348 34.7893 62.5635 34.7673L61.897 34.826L61.8237 37.9317L63.1787 38.0051C63.523 37.8436 63.7793 37.6233 63.9404 37.3517C64.1016 37.08 64.1821 36.7202 64.1821 36.2724ZM37.4414 49.5394C38.6133 49.5394 39.7778 49.7597 40.9277 50.1929L40.3345 53.2251L39.8145 53.4527C39.2944 53.1297 38.7817 52.8727 38.2764 52.6891C37.771 52.5056 37.3608 52.4101 37.0532 52.4101C36.7676 52.4101 36.5405 52.4615 36.3794 52.579C36.2109 52.6891 36.1304 52.836 36.1304 53.0269C36.1304 53.2618 36.2549 53.4674 36.5112 53.6289C36.7676 53.7978 37.1851 54.0181 37.7856 54.2897C38.4741 54.5981 39.0454 54.8918 39.4922 55.1561C39.939 55.4204 40.3271 55.7875 40.6641 56.25C41.001 56.7126 41.1694 57.2926 41.1694 57.9754C41.1694 58.7316 40.9644 59.4144 40.5469 60.0312C40.1294 60.6479 39.5435 61.1325 38.7744 61.4922C38.0054 61.852 37.1191 62.0355 36.1011 62.0355C34.8413 62.0355 33.5156 61.8006 32.1314 61.3307L32.6733 58.0929L33.0469 57.8653C33.6182 58.2985 34.2261 58.6435 34.8779 58.9005C35.5298 59.1575 36.0718 59.2823 36.5039 59.2823C36.8481 59.2823 37.0972 59.2235 37.2583 59.1061C37.4121 58.9886 37.4927 58.8418 37.4927 58.6656C37.4927 58.4086 37.3608 58.1883 37.0972 58.0048C36.8335 57.8212 36.4014 57.6083 35.8081 57.344C35.127 57.043 34.5703 56.764 34.1309 56.4997C33.6914 56.2353 33.3106 55.8682 32.9883 55.3984C32.666 54.9285 32.5049 54.3558 32.5049 53.6803C32.5049 52.8947 32.7173 52.1972 33.1348 51.5658C33.5522 50.9417 34.1455 50.4498 34.8999 50.0901C35.6543 49.7303 36.5112 49.5468 37.478 49.5468L37.4414 49.5394ZM53.2471 61.8006H49.4824L49.1455 59.8109L49.1235 59.7522L47.3071 59.7155L45.7837 59.7889L45.4688 61.8006H41.8286L45.4688 49.7597H49.9585L53.2397 61.8006H53.2471ZM48.5669 57.0356L47.7539 53.093H47.5269L46.4868 57.0356L47.5269 57.0577L48.5669 57.0356ZM62.0361 59.0106L61.8164 61.8006H54.668L54.8511 58.2691L54.668 49.767H58.4546L58.2495 57.8946L58.2861 58.7537H61.8311L62.0361 59.018V59.0106ZM71.8506 58.8271L72.0557 59.084L71.8286 61.8006H63.3618L63.5449 58.2691L63.3618 49.767H71.9751L72.1802 50.024L71.9385 52.7405L68.9868 52.6304H67.0752L67.0386 54.3264H68.877L70.8106 54.2677L71.0156 54.5247L70.7886 57.2412L68.6353 57.1898H66.9653L66.9507 57.8946L66.9873 58.9372H68.7671L71.8506 58.8271Z" fill="#0E3860" fill-opacity="0.7"/>
</svg>
