<svg width="85" height="75" viewBox="0 0 85 75" fill="none" xmlns="http://www.w3.org/2000/svg">
<path d="M65.6953 2.42578L77.4189 2.90374V18.7378L65.6953 11.0017V2.42578Z" fill="#0E3860" fill-opacity="0.7"/>
<path d="M49.6494 46.0156C50.5848 46.0156 51.3495 45.2508 51.3495 44.3154C51.3495 43.38 50.5848 42.6152 49.6494 42.6152C48.714 42.6152 47.9492 43.38 47.9492 44.3154C47.9492 45.2508 48.714 46.0156 49.6494 46.0156Z" fill="#0E3860" fill-opacity="0.7"/>
<path d="M33.7881 53.9492C32.8526 53.9492 32.0879 54.714 32.0879 55.6494C32.0879 56.5848 32.8526 57.3495 33.7881 57.3495C34.7235 57.3495 35.4882 56.5848 35.4882 55.6494C35.4882 54.714 34.7235 53.9492 33.7881 53.9492Z" fill="#0E3860" fill-opacity="0.7"/>
<path d="M42.1726 32.666C30.4831 32.666 21.0059 42.1432 21.0059 53.8327C21.0059 65.5222 30.4831 74.9994 42.1726 74.9994C53.8621 74.9994 63.3393 65.5222 63.3393 53.8327C63.3393 42.1432 53.8621 32.666 42.1726 32.666ZM50.5573 67.7686C48.1197 67.7686 46.1396 65.7885 46.1396 63.3509C46.1396 63.3031 46.1396 63.2622 46.1465 63.2144L37.4066 58.1753C36.6078 59.3156 35.2831 60.0667 33.7878 60.0667C31.3502 60.0667 29.3701 58.0866 29.3701 55.649C29.3701 53.2114 31.3502 51.2313 33.7878 51.2313C35.092 51.2313 36.2664 51.8048 37.0789 52.7129L45.4705 45.7484C45.3134 45.2978 45.2315 44.8198 45.2315 44.3214C45.2315 41.8838 47.2116 39.9037 49.6492 39.9037C52.0868 39.9037 54.0669 41.8838 54.0669 44.3214C54.0669 46.759 52.0868 48.7391 49.6492 48.7391C48.7001 48.7391 47.8261 48.4386 47.1024 47.9265L38.5606 55.014C38.465 55.0891 38.4172 55.2529 38.4308 55.4168C38.4445 55.5602 38.4991 55.6831 38.5742 55.7241L47.0819 60.6266C47.8944 59.6024 49.1439 58.9401 50.5505 58.9401C52.9881 58.9401 54.9682 60.9202 54.9682 63.3577C54.9682 65.7953 52.9881 67.7754 50.5505 67.7754L50.5573 67.7686Z" fill="#0E3860" fill-opacity="0.7"/>
<path d="M50.5576 65.0507C51.4966 65.0507 52.2577 64.2895 52.2577 63.3506C52.2577 62.4116 51.4966 61.6504 50.5576 61.6504C49.6186 61.6504 48.8574 62.4116 48.8574 63.3506C48.8574 64.2895 49.6186 65.0507 50.5576 65.0507Z" fill="#0E3860" fill-opacity="0.7"/>
<path d="M82.1444 30.8094C82.0898 30.7479 82.0352 30.7001 81.9737 30.6523L42.9246 0.301999C42.3647 -0.134991 41.5931 -0.0871951 41.081 0.377107L2.12745 30.7821C2.03869 30.8503 1.96358 30.9323 1.8953 31.0142C0.550188 32.6871 0.0790579 34.4692 0.256585 36.0464C0.372661 37.0638 0.755027 37.9856 1.35589 38.7435C1.95675 39.5014 2.77611 40.0886 3.74568 40.4163C4.98837 40.8397 6.4837 40.826 8.08144 40.2115V70.2546H8.10192V72.0298H27.4934C26.1892 70.9783 25.008 69.7903 23.9565 68.4861H11.9051V38.7366C11.9051 37.849 39.1828 16.8462 42.3169 14.4632C45.2666 16.7642 72.0527 37.9378 72.0527 38.6274V68.4861H60.3905C59.339 69.7903 58.1578 70.9783 56.8536 72.0298H75.8764V40.3071C77.5219 41.0855 79.147 41.0991 80.5126 40.6075C81.3729 40.3003 82.1308 39.7813 82.7248 39.1122C83.3189 38.443 83.749 37.6373 83.9675 36.7361C84.4045 34.913 83.9539 32.7553 82.1444 30.8094Z" fill="#0E3860" fill-opacity="0.7"/>
</svg>
