<svg width="105" height="75" viewBox="0 0 105 75" fill="none" xmlns="http://www.w3.org/2000/svg">
<path d="M55.5078 34.7546H49.6631C49.5691 34.7546 49.4922 34.8326 49.4922 34.9278V40.8603C49.4922 40.9555 49.5691 41.0335 49.6631 41.0335H55.5078C55.6018 41.0335 55.6787 40.9555 55.6787 40.8603V34.9278C55.6787 34.8326 55.6018 34.7546 55.5078 34.7546ZM55.5078 46.2471H49.6631C49.5691 46.2471 49.4922 46.3251 49.4922 46.4203V52.3528C49.4922 52.448 49.5691 52.526 49.6631 52.526H55.5078C55.6018 52.526 55.6787 52.448 55.6787 52.3528V46.429C55.6787 46.3251 55.6018 46.2471 55.5078 46.2471ZM65.5481 34.7546H59.7034C59.6094 34.7546 59.5325 34.8326 59.5325 34.9278V40.8603C59.5325 40.9555 59.6094 41.0335 59.7034 41.0335H65.5481C65.6421 41.0335 65.719 40.9555 65.719 40.8603V34.9278C65.719 34.8326 65.6421 34.7546 65.5481 34.7546ZM65.5481 46.2471H59.7034C59.6094 46.2471 59.5325 46.3251 59.5325 46.4203V52.3528C59.5325 52.448 59.6094 52.526 59.7034 52.526H65.5481C65.6421 52.526 65.719 52.448 65.719 52.3528V46.429C65.719 46.3251 65.6421 46.2471 65.5481 46.2471ZM75.5884 34.7546H69.7437C69.6582 34.7546 69.5813 34.8326 69.5728 34.9278V40.8603C69.5728 40.9555 69.6497 41.0335 69.7437 41.0335H75.5884C75.6824 41.0335 75.7593 40.9555 75.7593 40.8603V34.9278C75.7593 34.8326 75.6824 34.7546 75.5884 34.7546ZM75.5884 46.2471H69.7437C69.6582 46.2471 69.5813 46.3251 69.5728 46.4203V52.3528C69.5728 52.448 69.6497 52.526 69.7437 52.526H75.5884C75.6824 52.526 75.7593 52.448 75.7593 52.3528V46.429C75.7593 46.3251 75.6824 46.2471 75.5884 46.2471ZM49.4666 5.79388V26.9082H75.9387V5.79388H49.4666ZM98.2324 40.6611H87.2864C87.2009 40.6611 87.124 40.7217 87.1155 40.7823V44.056C87.1155 44.1253 87.2009 44.1773 87.2864 44.1773H98.2324C98.3264 44.1773 98.4033 44.1166 98.4033 44.056V40.7823C98.4033 40.7217 98.3264 40.6611 98.2324 40.6611ZM98.2324 47.832H87.2864C87.2009 47.832 87.124 47.8926 87.1155 47.9532V51.2269C87.1155 51.2962 87.2009 51.3482 87.2864 51.3482H98.2324C98.3264 51.3482 98.4033 51.2875 98.4033 51.2269V47.9532C98.4033 47.8926 98.3264 47.832 98.2324 47.832ZM98.2324 55.0029H87.2864C87.2009 55.0029 87.124 55.0635 87.1155 55.1241V58.3978C87.1155 58.4758 87.2009 58.5191 87.2864 58.5191H98.2324C98.3264 58.5191 98.4033 58.4584 98.4033 58.3978V55.1241C98.4033 55.0635 98.3264 55.0029 98.2324 55.0029ZM8.00659 48.1351V54.8124H13.7061V48.1351H8.00659ZM8.00659 60.1905V66.8591H13.7061V60.1905H8.00659ZM18.6707 48.1351V54.8124H28.5657V48.1351H18.6707ZM34.2737 48.1351V54.8124H39.9731V48.1351H34.2737ZM34.2737 60.1905V66.8591H39.9731V60.1905H34.2737ZM55.5078 34.7546H49.6631C49.5691 34.7546 49.4922 34.8326 49.4922 34.9278V40.8603C49.4922 40.9555 49.5691 41.0335 49.6631 41.0335H55.5078C55.6018 41.0335 55.6787 40.9555 55.6787 40.8603V34.9278C55.6787 34.8326 55.6018 34.7546 55.5078 34.7546ZM55.5078 46.2471H49.6631C49.5691 46.2471 49.4922 46.3251 49.4922 46.4203V52.3528C49.4922 52.448 49.5691 52.526 49.6631 52.526H55.5078C55.6018 52.526 55.6787 52.448 55.6787 52.3528V46.429C55.6787 46.3251 55.6018 46.2471 55.5078 46.2471ZM65.5481 34.7546H59.7034C59.6094 34.7546 59.5325 34.8326 59.5325 34.9278V40.8603C59.5325 40.9555 59.6094 41.0335 59.7034 41.0335H65.5481C65.6421 41.0335 65.719 40.9555 65.719 40.8603V34.9278C65.719 34.8326 65.6421 34.7546 65.5481 34.7546ZM65.5481 46.2471H59.7034C59.6094 46.2471 59.5325 46.3251 59.5325 46.4203V52.3528C59.5325 52.448 59.6094 52.526 59.7034 52.526H65.5481C65.6421 52.526 65.719 52.448 65.719 52.3528V46.429C65.719 46.3251 65.6421 46.2471 65.5481 46.2471ZM75.5884 34.7546H69.7437C69.6582 34.7546 69.5813 34.8326 69.5728 34.9278V40.8603C69.5728 40.9555 69.6497 41.0335 69.7437 41.0335H75.5884C75.6824 41.0335 75.7593 40.9555 75.7593 40.8603V34.9278C75.7593 34.8326 75.6824 34.7546 75.5884 34.7546ZM75.5884 46.2471H69.7437C69.6582 46.2471 69.5813 46.3251 69.5728 46.4203V52.3528C69.5728 52.448 69.6497 52.526 69.7437 52.526H75.5884C75.6824 52.526 75.7593 52.448 75.7593 52.3528V46.429C75.7593 46.3251 75.6824 46.2471 75.5884 46.2471ZM49.4666 5.79388V26.9082H75.9387V5.79388H49.4666ZM98.2324 40.6611H87.2864C87.2009 40.6611 87.124 40.7217 87.1155 40.7823V44.056C87.1155 44.1253 87.2009 44.1773 87.2864 44.1773H98.2324C98.3264 44.1773 98.4033 44.1166 98.4033 44.056V40.7823C98.4033 40.7217 98.3264 40.6611 98.2324 40.6611ZM98.2324 47.832H87.2864C87.2009 47.832 87.124 47.8926 87.1155 47.9532V51.2269C87.1155 51.2962 87.2009 51.3482 87.2864 51.3482H98.2324C98.3264 51.3482 98.4033 51.2875 98.4033 51.2269V47.9532C98.4033 47.8926 98.3264 47.832 98.2324 47.832ZM98.2324 55.0029H87.2864C87.2009 55.0029 87.124 55.0635 87.1155 55.1241V58.3978C87.1155 58.4758 87.2009 58.5191 87.2864 58.5191H98.2324C98.3264 58.5191 98.4033 58.4584 98.4033 58.3978V55.1241C98.4033 55.0635 98.3264 55.0029 98.2324 55.0029ZM98.2324 55.0029H87.2864C87.2009 55.0029 87.124 55.0635 87.1155 55.1241V58.3978C87.1155 58.4758 87.2009 58.5191 87.2864 58.5191H98.2324C98.3264 58.5191 98.4033 58.4584 98.4033 58.3978V55.1241C98.4033 55.0635 98.3264 55.0029 98.2324 55.0029ZM98.2324 47.832H87.2864C87.2009 47.832 87.124 47.8926 87.1155 47.9532V51.2269C87.1155 51.2962 87.2009 51.3482 87.2864 51.3482H98.2324C98.3264 51.3482 98.4033 51.2875 98.4033 51.2269V47.9532C98.4033 47.8926 98.3264 47.832 98.2324 47.832ZM98.2324 40.6611H87.2864C87.2009 40.6611 87.124 40.7217 87.1155 40.7823V44.056C87.1155 44.1253 87.2009 44.1773 87.2864 44.1773H98.2324C98.3264 44.1773 98.4033 44.1166 98.4033 44.056V40.7823C98.4033 40.7217 98.3264 40.6611 98.2324 40.6611ZM49.4666 5.79388V26.9082H75.9387V5.79388H49.4666ZM75.5884 46.2471H69.7437C69.6582 46.2471 69.5813 46.3251 69.5728 46.4203V52.3528C69.5728 52.448 69.6497 52.526 69.7437 52.526H75.5884C75.6824 52.526 75.7593 52.448 75.7593 52.3528V46.429C75.7593 46.3251 75.6824 46.2471 75.5884 46.2471ZM75.5884 34.7546H69.7437C69.6582 34.7546 69.5813 34.8326 69.5728 34.9278V40.8603C69.5728 40.9555 69.6497 41.0335 69.7437 41.0335H75.5884C75.6824 41.0335 75.7593 40.9555 75.7593 40.8603V34.9278C75.7593 34.8326 75.6824 34.7546 75.5884 34.7546ZM65.5481 46.2471H59.7034C59.6094 46.2471 59.5325 46.3251 59.5325 46.4203V52.3528C59.5325 52.448 59.6094 52.526 59.7034 52.526H65.5481C65.6421 52.526 65.719 52.448 65.719 52.3528V46.429C65.719 46.3251 65.6421 46.2471 65.5481 46.2471ZM65.5481 34.7546H59.7034C59.6094 34.7546 59.5325 34.8326 59.5325 34.9278V40.8603C59.5325 40.9555 59.6094 41.0335 59.7034 41.0335H65.5481C65.6421 41.0335 65.719 40.9555 65.719 40.8603V34.9278C65.719 34.8326 65.6421 34.7546 65.5481 34.7546ZM55.5078 46.2471H49.6631C49.5691 46.2471 49.4922 46.3251 49.4922 46.4203V52.3528C49.4922 52.448 49.5691 52.526 49.6631 52.526H55.5078C55.6018 52.526 55.6787 52.448 55.6787 52.3528V46.429C55.6787 46.3251 55.6018 46.2471 55.5078 46.2471ZM55.5078 34.7546H49.6631C49.5691 34.7546 49.4922 34.8326 49.4922 34.9278V40.8603C49.4922 40.9555 49.5691 41.0335 49.6631 41.0335H55.5078C55.6018 41.0335 55.6787 40.9555 55.6787 40.8603V34.9278C55.6787 34.8326 55.6018 34.7546 55.5078 34.7546ZM34.2737 66.8591H39.9731V60.1905H34.2737V66.8591ZM34.2737 48.1351V54.8124H39.9731V48.1351H34.2737ZM18.6707 54.8124H28.5657V48.1351H18.6707V54.8124ZM8.00659 66.8591H13.7061V60.1905H8.00659V66.8591ZM8.00659 54.8124H13.7061V48.1351H8.00659V54.8124ZM92.6184 11.657L82.0398 26.0595V1.7754C82.0398 1.32506 81.8774 0.918014 81.604 0.606236L81.5271 0.519631C81.2109 0.199192 80.7751 0 80.2966 0H44.9463C44.4678 0 44.032 0.199192 43.7158 0.519631C43.3997 0.840069 43.2031 1.28176 43.2031 1.76674V33.3603L40.7764 29.4457L40.6567 29.2465C40.2893 28.571 39.9561 27.9648 38.8794 27.9648H9.08325C8.00659 27.9648 7.67334 28.571 7.31445 29.2292C5.07568 33.0658 2.58057 36.8851 0.239258 40.6697C0.0769043 40.9296 0 41.2154 0 41.4925C0 41.8562 0.128174 42.194 0.333252 42.4885C0.487061 42.6876 0.692139 42.8695 0.914307 43.0167C1.27319 43.2419 1.72607 43.3891 2.12769 43.3891H2.73438V73.8308C2.73438 74.4717 3.24707 75 3.88794 75H104.009C104.556 75 105 74.5497 105 73.9954V27.5318C105 27.5318 96.4807 15.8747 93.4644 11.657C93.2593 11.3626 92.832 11.3712 92.6184 11.657ZM28.3179 72.653H19.6533V61.1519C19.6533 60.7361 19.8242 60.3637 20.0977 60.0866C20.3711 59.8095 20.7385 59.6363 21.1487 59.6363H26.8311C27.2412 59.6363 27.6086 59.8095 27.8821 60.0866C28.147 60.3637 28.3179 60.7361 28.3179 61.1519V72.653ZM42.9297 72.653H30.625V61.1519C30.625 60.0953 30.1978 59.134 29.5056 58.4325C28.822 57.7396 27.865 57.3066 26.8225 57.3066H21.1401C20.0977 57.3066 19.1492 57.7396 18.4656 58.4325C17.782 59.1253 17.3462 60.0953 17.3462 61.1519V72.653H5.0415V43.3891H42.9297V72.653ZM66.77 72.9821H58.6438V58.9434H66.77V72.9821ZM80.0659 72.9821H68.4534V58.086C68.4534 57.6097 68.0774 57.2286 67.6074 57.2286H57.7893C57.3193 57.2286 56.9434 57.6097 56.9434 58.086V72.9821H45.2368V43.3891H45.8435C46.2537 43.3891 46.698 43.2419 47.0569 43.0167L47.168 42.9388C47.3474 42.8089 47.5098 42.653 47.6379 42.4798C47.8516 42.194 47.9797 41.8562 47.9797 41.4925C47.9797 41.2067 47.9028 40.9296 47.7405 40.6697L45.1941 36.556V2.00924H80.0659V72.9821ZM103.009 72.9821H82.0483V28.06H103.009V72.9821ZM87.2864 58.5191H98.2324C98.3264 58.5191 98.4033 58.4584 98.4033 58.3978V55.1241C98.4033 55.0635 98.3264 55.0029 98.2324 55.0029H87.2864C87.2009 55.0029 87.124 55.0635 87.1155 55.1241V58.3978C87.1155 58.4758 87.2009 58.5191 87.2864 58.5191ZM87.2864 51.3482H98.2324C98.3264 51.3482 98.4033 51.2875 98.4033 51.2269V47.9532C98.4033 47.8926 98.3264 47.832 98.2324 47.832H87.2864C87.2009 47.832 87.124 47.8926 87.1155 47.9532V51.2269C87.1155 51.2962 87.2009 51.3482 87.2864 51.3482ZM87.2864 44.1773H98.2324C98.3264 44.1773 98.4033 44.1166 98.4033 44.056V40.7823C98.4033 40.7217 98.3264 40.6611 98.2324 40.6611H87.2864C87.2009 40.6611 87.124 40.7217 87.1155 40.7823V44.056C87.1155 44.1253 87.2009 44.1773 87.2864 44.1773ZM75.9387 5.79388H49.4666V26.9082H75.9387V5.79388ZM75.5884 46.2471H69.7437C69.6582 46.2471 69.5813 46.3251 69.5728 46.4203V52.3528C69.5728 52.448 69.6497 52.526 69.7437 52.526H75.5884C75.6824 52.526 75.7593 52.448 75.7593 52.3528V46.429C75.7593 46.3251 75.6824 46.2471 75.5884 46.2471ZM75.5884 34.7546H69.7437C69.6582 34.7546 69.5813 34.8326 69.5728 34.9278V40.8603C69.5728 40.9555 69.6497 41.0335 69.7437 41.0335H75.5884C75.6824 41.0335 75.7593 40.9555 75.7593 40.8603V34.9278C75.7593 34.8326 75.6824 34.7546 75.5884 34.7546ZM65.5481 46.2471H59.7034C59.6094 46.2471 59.5325 46.3251 59.5325 46.4203V52.3528C59.5325 52.448 59.6094 52.526 59.7034 52.526H65.5481C65.6421 52.526 65.719 52.448 65.719 52.3528V46.429C65.719 46.3251 65.6421 46.2471 65.5481 46.2471ZM65.5481 34.7546H59.7034C59.6094 34.7546 59.5325 34.8326 59.5325 34.9278V40.8603C59.5325 40.9555 59.6094 41.0335 59.7034 41.0335H65.5481C65.6421 41.0335 65.719 40.9555 65.719 40.8603V34.9278C65.719 34.8326 65.6421 34.7546 65.5481 34.7546ZM55.5078 46.2471H49.6631C49.5691 46.2471 49.4922 46.3251 49.4922 46.4203V52.3528C49.4922 52.448 49.5691 52.526 49.6631 52.526H55.5078C55.6018 52.526 55.6787 52.448 55.6787 52.3528V46.429C55.6787 46.3251 55.6018 46.2471 55.5078 46.2471ZM55.5078 34.7546H49.6631C49.5691 34.7546 49.4922 34.8326 49.4922 34.9278V40.8603C49.4922 40.9555 49.5691 41.0335 49.6631 41.0335H55.5078C55.6018 41.0335 55.6787 40.9555 55.6787 40.8603V34.9278C55.6787 34.8326 55.6018 34.7546 55.5078 34.7546ZM39.9731 60.1905H34.2737V66.8591H39.9731V60.1905ZM39.9731 48.1351H34.2737V54.8124H39.9731V48.1351ZM28.5657 48.1351H18.6707V54.8124H28.5657V48.1351ZM13.7061 60.1905H8.00659V66.8591H13.7061V60.1905ZM13.7061 48.1351H8.00659V54.8124H13.7061V48.1351ZM18.6707 48.1351V54.8124H28.5657V48.1351H18.6707ZM8.00659 48.1351V54.8124H13.7061V48.1351H8.00659ZM8.00659 60.1905V66.8591H13.7061V60.1905H8.00659ZM18.6707 48.1351V54.8124H28.5657V48.1351H18.6707ZM34.2737 48.1351V54.8124H39.9731V48.1351H34.2737ZM34.2737 60.1905V66.8591H39.9731V60.1905H34.2737ZM34.2737 60.1905V66.8591H39.9731V60.1905H34.2737ZM34.2737 48.1351V54.8124H39.9731V48.1351H34.2737ZM8.00659 60.1905V66.8591H13.7061V60.1905H8.00659ZM8.00659 48.1351V54.8124H13.7061V48.1351H8.00659ZM49.4666 5.79388V26.9082H75.9387V5.79388H49.4666ZM98.2324 55.0029H87.2864C87.2009 55.0029 87.124 55.0635 87.1155 55.1241V58.3978C87.1155 58.4758 87.2009 58.5191 87.2864 58.5191H98.2324C98.3264 58.5191 98.4033 58.4584 98.4033 58.3978V55.1241C98.4033 55.0635 98.3264 55.0029 98.2324 55.0029ZM98.2324 47.832H87.2864C87.2009 47.832 87.124 47.8926 87.1155 47.9532V51.2269C87.1155 51.2962 87.2009 51.3482 87.2864 51.3482H98.2324C98.3264 51.3482 98.4033 51.2875 98.4033 51.2269V47.9532C98.4033 47.8926 98.3264 47.832 98.2324 47.832ZM98.2324 40.6611H87.2864C87.2009 40.6611 87.124 40.7217 87.1155 40.7823V44.056C87.1155 44.1253 87.2009 44.1773 87.2864 44.1773H98.2324C98.3264 44.1773 98.4033 44.1166 98.4033 44.056V40.7823C98.4033 40.7217 98.3264 40.6611 98.2324 40.6611ZM75.5884 46.2471H69.7437C69.6582 46.2471 69.5813 46.3251 69.5728 46.4203V52.3528C69.5728 52.448 69.6497 52.526 69.7437 52.526H75.5884C75.6824 52.526 75.7593 52.448 75.7593 52.3528V46.429C75.7593 46.3251 75.6824 46.2471 75.5884 46.2471ZM65.5481 46.2471H59.7034C59.6094 46.2471 59.5325 46.3251 59.5325 46.4203V52.3528C59.5325 52.448 59.6094 52.526 59.7034 52.526H65.5481C65.6421 52.526 65.719 52.448 65.719 52.3528V46.429C65.719 46.3251 65.6421 46.2471 65.5481 46.2471ZM55.5078 46.2471H49.6631C49.5691 46.2471 49.4922 46.3251 49.4922 46.4203V52.3528C49.4922 52.448 49.5691 52.526 49.6631 52.526H55.5078C55.6018 52.526 55.6787 52.448 55.6787 52.3528V46.429C55.6787 46.3251 55.6018 46.2471 55.5078 46.2471ZM75.5884 34.7546H69.7437C69.6582 34.7546 69.5813 34.8326 69.5728 34.9278V40.8603C69.5728 40.9555 69.6497 41.0335 69.7437 41.0335H75.5884C75.6824 41.0335 75.7593 40.9555 75.7593 40.8603V34.9278C75.7593 34.8326 75.6824 34.7546 75.5884 34.7546ZM65.5481 34.7546H59.7034C59.6094 34.7546 59.5325 34.8326 59.5325 34.9278V40.8603C59.5325 40.9555 59.6094 41.0335 59.7034 41.0335H65.5481C65.6421 41.0335 65.719 40.9555 65.719 40.8603V34.9278C65.719 34.8326 65.6421 34.7546 65.5481 34.7546ZM55.5078 34.7546H49.6631C49.5691 34.7546 49.4922 34.8326 49.4922 34.9278V40.8603C49.4922 40.9555 49.5691 41.0335 49.6631 41.0335H55.5078C55.6018 41.0335 55.6787 40.9555 55.6787 40.8603V34.9278C55.6787 34.8326 55.6018 34.7546 55.5078 34.7546Z" fill="#0E3860" fill-opacity="0.7"/>
</svg>
