<svg width="83" height="75" viewBox="0 0 83 75" fill="none" xmlns="http://www.w3.org/2000/svg">
<path d="M11.5579 67.8261H18.3254C18.447 68.678 18.7239 69.5029 19.1359 70.2534L19.6425 71.342H7.79588V69.5773H7.77562V39.8267C6.19518 40.4353 4.71604 40.4488 3.48681 40.0296C2.52773 39.705 1.71725 39.1235 1.12289 38.373C0.528538 37.6225 0.150312 36.7097 0.0354935 35.7022C-0.140111 34.1403 0.325917 32.3756 1.65646 30.719C1.724 30.6379 1.7983 30.5567 1.8861 30.4891L40.4246 0.373435C40.9244 -0.0863461 41.6944 -0.133677 42.2482 0.299059L80.8746 30.3606C80.9353 30.408 80.9894 30.4553 81.0434 30.5162C82.8332 32.4432 83.279 34.5798 82.8467 36.3851C82.6306 37.2776 82.2051 38.0755 81.6175 38.7381C81.0299 39.4008 80.2802 39.9146 79.4292 40.2189C78.0784 40.7057 76.4709 40.6922 74.8432 39.9214V67.8261V71.3353H52.278L52.5076 70.463H52.5009C52.6359 69.9559 52.7102 69.4421 52.7305 68.9214C52.9196 68.5766 53.0749 68.2047 53.2033 67.8193H71.0542V38.2581C71.0542 37.5752 44.5581 16.6078 41.6336 14.3292C38.5335 16.6889 11.5511 37.4873 11.5511 38.3662V67.8261H11.5579ZM63.3208 2.40188L74.9175 2.87519V18.5551L63.3208 10.8943V2.40188ZM48.0162 44.722C47.4218 45.0466 46.6789 44.8235 46.3547 44.2352C46.0305 43.6402 46.2534 42.8964 46.8477 42.5719C49.6642 41.0438 50.9744 39.0627 51.2378 37.1289C51.3797 36.0944 51.2176 35.0599 50.8326 34.0997C50.4341 33.1261 49.806 32.2403 49.0158 31.5304C47.4691 30.1443 45.2943 29.414 43.0249 29.982C42.1064 30.2119 41.3094 30.6717 40.6138 31.3208C39.8708 32.0104 39.2359 32.9097 38.6753 33.978C38.3579 34.5798 37.6217 34.8097 37.0206 34.4919C36.4195 34.1741 36.1899 33.4371 36.5073 32.8354C37.1962 31.5304 37.9999 30.408 38.9523 29.5222C39.9451 28.5959 41.1068 27.9333 42.4508 27.602C45.5712 26.8311 48.543 27.8116 50.657 29.7048C51.7309 30.6649 52.5819 31.8617 53.1155 33.1869C53.6558 34.519 53.8719 35.9862 53.6693 37.4737C53.3046 40.1242 51.6093 42.7815 48.0229 44.7356L48.0162 44.722ZM38.6348 54.4045C33.9948 48.1636 33.88 42.2541 39.5128 36.757L35.4537 34.5122C32.205 33.2478 26.2479 42.5719 28.551 45.0669L31.7119 49.7594L31.0568 51.1184C30.8744 51.5241 31.0568 51.8081 31.4958 52.0042L31.9213 52.1191L25.2551 66.8456L26.9166 70.3954L30.2463 69.415L31.1041 67.7517L30.2868 66.2168L32.0969 65.8314L32.5157 65.0133L31.5701 63.5731L32.1915 62.3695L33.9948 62.1396L34.5824 60.997L33.576 59.6785L34.2177 58.4276L36.0548 58.1301L37.0003 54.9048L37.4258 55.1347C38.162 55.581 38.5403 55.297 38.6281 54.3977L38.6348 54.4045ZM47.3678 58.3194L47.6987 61.335L45.9967 62.0112L45.6387 63.3432L46.8815 64.398L46.5573 65.6083L44.8755 66.2033L44.5311 67.488L45.7333 68.6712L45.5037 69.5435L43.8489 70.294L44.9566 71.599L44.4771 73.3705L41.4985 75L39.1684 71.9438L42.0524 56.913L40.9785 56.6223C40.7556 56.5614 40.6205 56.3315 40.6813 56.1084L41.1338 54.4248C37.8784 51.9568 36.2641 47.6768 37.3853 43.4847C38.8239 38.0958 44.2542 34.8435 49.6439 36.0538C49.6709 36.3446 49.6642 36.6353 49.6236 36.9261C49.5223 37.6563 49.2116 38.4068 48.624 39.1303C48.543 39.225 48.4619 39.3264 48.3741 39.421C46.6519 39.3061 45.0444 40.4217 44.5784 42.1527C44.3757 42.8964 44.423 43.6537 44.6594 44.3299C44.7134 44.5733 44.808 44.8032 44.9296 45.0331C45.2132 45.5537 45.632 45.9526 46.1183 46.2028C46.4357 46.4124 46.8004 46.5747 47.1854 46.6829C49.1171 47.1968 51.096 46.0879 51.6701 44.1811C52.2509 43.6673 52.7643 43.1196 53.1965 42.5584C54.0475 41.463 54.6216 40.3068 54.9661 39.1235C57.303 41.6456 58.3296 45.2765 57.3773 48.8533C56.2561 53.0454 52.717 55.9461 48.6713 56.4532L48.2188 58.1368C48.158 58.36 47.9284 58.4952 47.7055 58.4343L47.3678 58.3329V58.3194Z" fill="#0E3860" fill-opacity="0.7"/>
</svg>
