<svg width="90" height="81" viewBox="0 0 90 81" fill="none" xmlns="http://www.w3.org/2000/svg">
<path d="M8.13054 3.90872L11.8735 0.289099C12.2764 -0.100029 12.9136 -0.0926865 13.3092 0.289099L17.1034 3.95277C17.3159 4.15835 17.4184 4.43 17.4184 4.70166V8.2038H85.4073L88.9672 8.22583C89.5385 8.22583 90 8.69572 90 9.2684C90 9.42992 89.9634 9.5841 89.8975 9.71626L86.2424 17.3006C86.0666 17.675 85.693 17.8879 85.3048 17.8879H68.8166V20.3695H63.7772V17.8879H33.9212V20.3695H28.8817V17.8879H17.4257V77.9604C17.4257 78.7974 17.0815 79.5536 16.5321 80.1043C15.9754 80.6549 15.2136 81 14.3859 81H10.7968C9.96175 81 9.19997 80.6549 8.65061 80.1043L8.58468 80.0309C8.07195 79.4875 7.75698 78.7533 7.75698 77.9531V17.9026H3.0398C2.20477 17.9026 1.44299 17.5575 0.893627 17.0069C0.344266 16.4562 0 15.6927 0 14.8557V11.2581C0 10.4211 0.344266 9.65753 0.893627 9.10687C1.44299 8.55622 2.20477 8.21115 3.0398 8.21115H7.75698V4.709C7.75698 4.38595 7.90348 4.09961 8.13054 3.90872ZM40.2279 35.0536L40.1693 37.2122H41.4292L43.5826 37.1534L43.7877 37.4104L43.5607 40.1269L41.1655 40.0682H40.0887V40.3105L40.2352 44.2164H36.5069L36.69 40.6849L36.5069 32.1829H44.5275L44.7326 32.4398L44.4909 35.1564L41.5171 35.0463H40.2206L40.2279 35.0536ZM51.1272 31.9626C52.8705 31.9626 54.2183 32.4839 55.1778 33.5191C56.1301 34.5543 56.6062 36.0154 56.6062 37.9023C56.6062 39.9874 56.0861 41.5953 55.0387 42.7407C53.9912 43.8787 52.5116 44.4514 50.5925 44.4514C48.8492 44.4514 47.5014 43.9301 46.5492 42.8802C45.597 41.8303 45.1209 40.3472 45.1209 38.4236C45.1209 36.3605 45.6409 34.7746 46.6884 33.6513C47.7358 32.5279 49.2154 31.9699 51.1345 31.9699L51.1272 31.9626ZM50.7903 34.9435C50.3068 34.9435 49.9406 35.0242 49.6915 35.1931C49.4425 35.362 49.2667 35.6556 49.1642 36.0741C49.0616 36.5 49.0103 37.1094 49.0103 37.917C49.0103 38.9449 49.0616 39.7305 49.1788 40.2591C49.2887 40.7951 49.4791 41.1622 49.7428 41.3751C50.0065 41.588 50.4021 41.6908 50.9221 41.6908C51.4055 41.6908 51.7718 41.61 52.0208 41.4412C52.2699 41.2723 52.4457 40.9786 52.5482 40.5454C52.6508 40.1196 52.7094 39.5029 52.7094 38.6952C52.7094 37.682 52.6508 36.9038 52.5409 36.3678C52.431 35.8318 52.2406 35.4647 51.9769 35.2518C51.7132 35.0389 51.3176 34.9361 50.7976 34.9361L50.7903 34.9435ZM66.2017 39.4808C67.0953 40.8685 67.9816 42.1607 68.8752 43.3501L68.8166 43.7612C67.5568 44.143 66.3115 44.3706 65.081 44.4514L64.7294 44.1577L64.5023 43.6952C64.3998 43.4969 64.202 43.0784 63.909 42.4397C63.6087 41.8009 63.3523 41.1989 63.1253 40.6409H61.88L62.0119 44.2311H58.2762L58.4593 40.6996L58.2762 32.1975L63.9749 32.1755C65.3227 32.1755 66.3628 32.4912 67.0953 33.1373C67.8278 33.7761 68.194 34.6938 68.194 35.8979C68.194 36.6028 68.0182 37.2709 67.6666 37.8876C67.315 38.5117 66.8243 39.0403 66.1944 39.4882L66.2017 39.4808ZM64.2899 36.265C64.2899 35.7731 64.1654 35.3987 63.909 35.1564C63.6526 34.9141 63.2425 34.7819 62.6784 34.7599L62.0119 34.8113L61.9386 37.917L63.2937 37.9904C63.638 37.8289 63.8944 37.6086 64.0555 37.337C64.2167 37.0653 64.2972 36.7056 64.2972 36.2577L64.2899 36.265ZM38.5578 57.0503C39.4515 58.438 40.3378 59.7302 41.2314 60.9196L41.1728 61.3307C39.9129 61.7125 38.6677 61.9401 37.4371 62.0209L37.0855 61.7198L36.8585 61.2573C36.7632 61.0591 36.5582 60.6406 36.2652 60.0018C35.9648 59.363 35.7085 58.761 35.4887 58.2104H34.2435L34.3754 61.8006H30.647L30.8301 58.2691L30.647 49.767L36.3457 49.7523C37.6935 49.7523 38.7336 50.068 39.4661 50.7141C40.1986 51.3529 40.5648 52.2707 40.5648 53.4747C40.5648 54.1796 40.389 54.8477 40.0374 55.4644C39.6858 56.0812 39.1951 56.6171 38.5652 57.065L38.5578 57.0503ZM36.646 53.8345C36.646 53.3352 36.5215 52.9681 36.2652 52.7259C36.0088 52.4836 35.5986 52.3514 35.0273 52.3294L34.3607 52.3808L34.2875 55.4865L35.6425 55.5599C35.9868 55.3984 36.2432 55.1781 36.4043 54.9064C36.5655 54.6348 36.646 54.275 36.646 53.8272V53.8345ZM51.0613 58.8197L51.2664 59.0767L51.0393 61.7933H42.5718L42.7549 58.2617L42.5718 49.7597H51.1858L51.3909 50.0167L51.1492 52.7332L48.1973 52.6231H46.2855L46.2489 54.3191H48.0874L50.0212 54.2603L50.2263 54.5173L49.9992 57.2339L47.8457 57.1825H46.1756L46.161 57.8873L46.1976 58.9299H47.9775L51.0613 58.8197ZM63.5867 57.8726L63.7332 61.8006H59.6899L56.3132 55.3616H56.0861L56.0641 57.4468L56.2106 61.8006H52.8339L53.017 58.2691L52.8339 49.767H56.8772L60.2539 56.206H60.4737L60.3638 49.8992L63.7772 49.6936L63.5721 57.88L63.5867 57.8726ZM74.6399 50.0167L74.4348 52.7332L71.9809 52.6231H71.7612L71.666 57.8873L71.8125 61.7933H68.0988L68.2819 58.2617L68.1867 52.6231H67.945L65.4765 52.7332L65.2568 52.4762L65.4619 49.7597H74.4274L74.6325 50.0167H74.6399ZM27.7684 22.7704H76.5443C78.0825 22.7704 79.4889 23.4091 80.507 24.4223C81.5325 25.4502 82.1624 26.8526 82.1624 28.4017V65.5891C82.1624 67.1309 81.5325 68.5332 80.5144 69.5538H80.507C79.4889 70.5817 78.0825 71.2131 76.5516 71.2131H27.7684C26.2302 71.2131 24.8238 70.5817 23.8056 69.5611C22.7875 68.5406 22.1502 67.1309 22.1502 65.5891V28.3944C22.1502 26.8452 22.7802 25.4355 23.7983 24.415C24.8165 23.3945 26.2228 22.763 27.7684 22.763V22.7704ZM76.5516 25.553H27.7684C26.9919 25.553 26.2741 25.8761 25.7614 26.39C25.2486 26.9039 24.9263 27.6161 24.9263 28.4017V65.5891C24.9263 66.3673 25.2486 67.0869 25.7614 67.6008C26.2741 68.1147 26.9919 68.4378 27.7684 68.4378H76.5516C77.3354 68.4378 78.0386 68.1147 78.5513 67.6008C79.0714 67.0795 79.3863 66.3673 79.3863 65.5891V28.3944C79.3863 27.6161 79.064 26.8966 78.5513 26.3827C78.0386 25.8687 77.3281 25.5457 76.5443 25.5457L76.5516 25.553Z" fill="#0E3860" fill-opacity="0.7"/>
</svg>
