<svg width="69" height="75" viewBox="0 0 69 75" fill="none" xmlns="http://www.w3.org/2000/svg">
<path fill-rule="evenodd" clip-rule="evenodd" d="M15.4038 27.3049C13.0007 28.2265 11.5949 30.8691 10.6937 33.7314L7.80998 42.7639L6.42219 40.1212C0.25221 39.749 -0.456706 43.3314 5.71327 46.4806C-1.15361 50.9968 -0.210388 58.9002 0.46849 67.6703C0.462483 67.7801 0.462483 67.89 0.46849 67.9998V72.8822C0.46849 74.0479 1.4057 74.9939 2.55319 75H11.4146C12.5621 75 13.4933 74.0479 13.4993 72.8822V71.1856H55.5117V72.8822C55.5117 74.0479 56.4489 74.9939 57.5964 75H66.4818C67.6293 75 68.5605 74.0479 68.5665 72.8822V69.1289C69.2574 57.6979 69.69 53.0963 65.2382 48.4519L64.1448 46.7491C70.8915 43.5023 70.2908 39.7429 63.9466 40.1212L62.745 42.4831L60.6002 33.7253C59.7111 30.1184 57.5964 26.957 53.9316 26.957H53.8896C53.487 28.1776 53.0244 29.3433 52.5018 30.5151C55.2053 30.6005 56.8454 32.9563 57.4281 35.6721L59.5789 44.7534H10.8139L13.4993 35.6721C13.7757 34.7445 14.1662 33.8473 14.6528 33.0112C14.8811 32.523 15.2116 32.0897 15.6201 31.7357C15.9986 31.3573 16.4431 31.0522 16.9298 30.8447C16.7195 30.4235 16.5152 30.0085 16.329 29.5813C15.9866 28.8368 15.6742 28.08 15.3918 27.3232L15.4038 27.3049ZM42.0543 36.5632C40.1438 38.7176 37.9389 40.5851 35.5058 42.1108C35.1934 42.3427 34.7728 42.3611 34.4484 42.1474C30.9699 39.9076 27.8819 37.1003 25.3046 33.8351C22.1625 29.9414 20.0418 25.3031 19.1587 20.3475C18.4257 15.7519 19.1106 11.3272 21.3635 7.73253C22.2827 6.2739 23.4302 4.97396 24.7699 3.89983C27.6957 1.422 31.3785 0.0427211 35.1874 0C38.8701 0.0610302 42.3907 1.52575 45.0581 4.10123C46.0855 5.0594 46.9746 6.15795 47.6956 7.36634C50.0987 11.4187 50.6394 16.588 49.576 21.8183C48.3925 27.3171 45.7971 32.4009 42.0543 36.551V36.5632ZM40.7506 14.6472C40.7506 15.4712 40.5463 16.2829 40.1498 16.9969C39.7533 17.7171 39.1645 18.303 38.4496 18.6935C37.5845 19.1208 36.6232 19.3344 35.662 19.3038H33.6434V23.0694H29.7263V9.97233H35.632C37.0137 9.87468 38.3775 10.3324 39.4289 11.2479C40.324 12.1389 40.8046 13.3778 40.7506 14.6472ZM35.4457 16.2218C36.1907 16.2096 36.7854 15.5871 36.7734 14.8242C36.7734 14.7632 36.7734 14.7022 36.7614 14.6472C36.8455 13.8905 36.3108 13.2069 35.5599 13.1215C35.5238 13.1215 35.4818 13.1154 35.4457 13.1154H33.6434V16.2218H35.4457ZM34.4965 4.19888C40.6785 4.19888 45.695 9.69159 45.695 16.5209C45.695 23.3502 40.6785 28.8429 34.4965 28.8429C28.3145 28.8429 23.298 23.3502 23.298 16.5209C23.298 9.69159 28.3145 4.19888 34.4965 4.19888ZM17.074 56.8801L9.16173 55.867C7.29932 55.6595 6.80068 56.4773 7.43149 58.0885L8.2906 60.1941C8.53092 60.6884 8.89739 61.1156 9.35398 61.4147C9.89468 61.732 10.5015 61.8968 11.1203 61.909L18.1674 61.964C19.8676 61.964 20.6005 61.2682 20.0658 59.6875C19.6813 58.2411 18.5098 57.1548 17.0619 56.8923L17.074 56.8801ZM51.9551 56.8801L59.8493 55.867C61.7177 55.6595 62.2163 56.4773 61.5795 58.0885L60.7264 60.1941C60.4861 60.6884 60.1196 61.1095 59.663 61.4147C59.1163 61.732 58.4915 61.9029 57.8607 61.909L50.8196 61.964C49.1194 61.964 48.4165 61.2682 48.9151 59.6875C49.2996 58.2472 50.4711 57.1548 51.919 56.8923L51.9551 56.8801Z" fill="#0E3860" fill-opacity="0.7"/>
</svg>
