<svg width="268" height="310" viewBox="0 0 268 310" fill="none" xmlns="http://www.w3.org/2000/svg">
<rect width="268" height="310" rx="8" fill="white"/>
<path d="M56.6664 203.248V220H53.3064V212.872H46.1304V220H42.7704V203.248H46.1304V210.136H53.3064V203.248H56.6664ZM67.457 220.168C65.889 220.168 64.449 219.8 63.137 219.064C61.825 218.328 60.785 217.312 60.017 216.016C59.249 214.704 58.865 213.224 58.865 211.576C58.865 209.944 59.249 208.48 60.017 207.184C60.785 205.872 61.825 204.848 63.137 204.112C64.449 203.376 65.889 203.008 67.457 203.008C69.041 203.008 70.481 203.376 71.777 204.112C73.089 204.848 74.121 205.872 74.873 207.184C75.641 208.48 76.025 209.944 76.025 211.576C76.025 213.224 75.641 214.704 74.873 216.016C74.121 217.312 73.089 218.328 71.777 219.064C70.465 219.8 69.025 220.168 67.457 220.168ZM67.457 217.168C68.465 217.168 69.353 216.944 70.121 216.496C70.889 216.032 71.489 215.376 71.921 214.528C72.353 213.68 72.569 212.696 72.569 211.576C72.569 210.456 72.353 209.48 71.921 208.648C71.489 207.8 70.889 207.152 70.121 206.704C69.353 206.256 68.465 206.032 67.457 206.032C66.449 206.032 65.553 206.256 64.769 206.704C64.001 207.152 63.401 207.8 62.969 208.648C62.537 209.48 62.321 210.456 62.321 211.576C62.321 212.696 62.537 213.68 62.969 214.528C63.401 215.376 64.001 216.032 64.769 216.496C65.553 216.944 66.449 217.168 67.457 217.168ZM81.5923 217.336H87.1123V220H78.2323V203.248H81.5923V217.336ZM92.3154 203.248V220H88.9554V203.248H92.3154ZM101.199 203.248C102.959 203.248 104.503 203.592 105.831 204.28C107.175 204.968 108.207 205.952 108.927 207.232C109.663 208.496 110.031 209.968 110.031 211.648C110.031 213.328 109.663 214.8 108.927 216.064C108.207 217.312 107.175 218.28 105.831 218.968C104.503 219.656 102.959 220 101.199 220H95.3426V203.248H101.199ZM101.079 217.144C102.839 217.144 104.199 216.664 105.159 215.704C106.119 214.744 106.599 213.392 106.599 211.648C106.599 209.904 106.119 208.544 105.159 207.568C104.199 206.576 102.839 206.08 101.079 206.08H98.7026V217.144H101.079ZM122.525 216.808H115.853L114.749 220H111.221L117.245 203.224H121.157L127.181 220H123.629L122.525 216.808ZM121.613 214.12L119.189 207.112L116.765 214.12H121.613ZM142.46 203.248L136.796 214.168V220H133.436V214.168L127.748 203.248H131.54L135.14 210.904L138.716 203.248H142.46ZM163.428 203.248V220H160.068V212.872H152.892V220H149.532V203.248H152.892V210.136H160.068V203.248H163.428ZM174.219 220.168C172.651 220.168 171.211 219.8 169.899 219.064C168.587 218.328 167.547 217.312 166.779 216.016C166.011 214.704 165.627 213.224 165.627 211.576C165.627 209.944 166.011 208.48 166.779 207.184C167.547 205.872 168.587 204.848 169.899 204.112C171.211 203.376 172.651 203.008 174.219 203.008C175.803 203.008 177.243 203.376 178.539 204.112C179.851 204.848 180.883 205.872 181.635 207.184C182.403 208.48 182.787 209.944 182.787 211.576C182.787 213.224 182.403 214.704 181.635 216.016C180.883 217.312 179.851 218.328 178.539 219.064C177.227 219.8 175.787 220.168 174.219 220.168ZM174.219 217.168C175.227 217.168 176.115 216.944 176.883 216.496C177.651 216.032 178.251 215.376 178.683 214.528C179.115 213.68 179.331 212.696 179.331 211.576C179.331 210.456 179.115 209.48 178.683 208.648C178.251 207.8 177.651 207.152 176.883 206.704C176.115 206.256 175.227 206.032 174.219 206.032C173.211 206.032 172.315 206.256 171.531 206.704C170.763 207.152 170.163 207.8 169.731 208.648C169.299 209.48 169.083 210.456 169.083 211.576C169.083 212.696 169.299 213.68 169.731 214.528C170.163 215.376 170.763 216.032 171.531 216.496C172.315 216.944 173.211 217.168 174.219 217.168ZM188.306 203.248V213.616C188.306 214.752 188.602 215.624 189.194 216.232C189.786 216.824 190.618 217.12 191.69 217.12C192.778 217.12 193.618 216.824 194.21 216.232C194.802 215.624 195.098 214.752 195.098 213.616V203.248H198.482V213.592C198.482 215.016 198.17 216.224 197.546 217.216C196.938 218.192 196.114 218.928 195.074 219.424C194.05 219.92 192.906 220.168 191.642 220.168C190.394 220.168 189.258 219.92 188.234 219.424C187.226 218.928 186.426 218.192 185.834 217.216C185.242 216.224 184.946 215.016 184.946 213.592V203.248H188.306ZM207.22 220.168C206.052 220.168 204.996 219.968 204.052 219.568C203.124 219.168 202.388 218.592 201.844 217.84C201.3 217.088 201.02 216.2 201.004 215.176H204.604C204.652 215.864 204.892 216.408 205.324 216.808C205.772 217.208 206.38 217.408 207.148 217.408C207.932 217.408 208.548 217.224 208.996 216.856C209.444 216.472 209.668 215.976 209.668 215.368C209.668 214.872 209.516 214.464 209.212 214.144C208.908 213.824 208.524 213.576 208.06 213.4C207.612 213.208 206.988 213 206.188 212.776C205.1 212.456 204.212 212.144 203.524 211.84C202.852 211.52 202.268 211.048 201.772 210.424C201.292 209.784 201.052 208.936 201.052 207.88C201.052 206.888 201.3 206.024 201.796 205.288C202.292 204.552 202.988 203.992 203.884 203.608C204.78 203.208 205.804 203.008 206.956 203.008C208.684 203.008 210.084 203.432 211.156 204.28C212.244 205.112 212.844 206.28 212.956 207.784H209.26C209.228 207.208 208.98 206.736 208.516 206.368C208.068 205.984 207.468 205.792 206.716 205.792C206.06 205.792 205.532 205.96 205.132 206.296C204.748 206.632 204.556 207.12 204.556 207.76C204.556 208.208 204.7 208.584 204.988 208.888C205.292 209.176 205.66 209.416 206.092 209.608C206.54 209.784 207.164 209.992 207.964 210.232C209.052 210.552 209.94 210.872 210.628 211.192C211.316 211.512 211.908 211.992 212.404 212.632C212.9 213.272 213.148 214.112 213.148 215.152C213.148 216.048 212.916 216.88 212.452 217.648C211.988 218.416 211.308 219.032 210.412 219.496C209.516 219.944 208.452 220.168 207.22 220.168ZM219.128 205.96V210.16H224.768V212.824H219.128V217.264H225.488V220H215.768V203.224H225.488V205.96H219.128Z" fill="#0E3860"/>
<path d="M137.508 90.7546H131.663C131.569 90.7546 131.492 90.8326 131.492 90.9278V96.8603C131.492 96.9555 131.569 97.0335 131.663 97.0335H137.508C137.602 97.0335 137.679 96.9555 137.679 96.8603V90.9278C137.679 90.8326 137.602 90.7546 137.508 90.7546ZM137.508 102.247H131.663C131.569 102.247 131.492 102.325 131.492 102.42V108.353C131.492 108.448 131.569 108.526 131.663 108.526H137.508C137.602 108.526 137.679 108.448 137.679 108.353V102.429C137.679 102.325 137.602 102.247 137.508 102.247ZM147.548 90.7546H141.703C141.609 90.7546 141.532 90.8326 141.532 90.9278V96.8603C141.532 96.9555 141.609 97.0335 141.703 97.0335H147.548C147.642 97.0335 147.719 96.9555 147.719 96.8603V90.9278C147.719 90.8326 147.642 90.7546 147.548 90.7546ZM147.548 102.247H141.703C141.609 102.247 141.532 102.325 141.532 102.42V108.353C141.532 108.448 141.609 108.526 141.703 108.526H147.548C147.642 108.526 147.719 108.448 147.719 108.353V102.429C147.719 102.325 147.642 102.247 147.548 102.247ZM157.588 90.7546H151.744C151.658 90.7546 151.581 90.8326 151.573 90.9278V96.8603C151.573 96.9555 151.65 97.0335 151.744 97.0335H157.588C157.682 97.0335 157.759 96.9555 157.759 96.8603V90.9278C157.759 90.8326 157.682 90.7546 157.588 90.7546ZM157.588 102.247H151.744C151.658 102.247 151.581 102.325 151.573 102.42V108.353C151.573 108.448 151.65 108.526 151.744 108.526H157.588C157.682 108.526 157.759 108.448 157.759 108.353V102.429C157.759 102.325 157.682 102.247 157.588 102.247ZM131.467 61.7939V82.9082H157.939V61.7939H131.467ZM180.232 96.6611H169.286C169.201 96.6611 169.124 96.7217 169.115 96.7823V100.056C169.115 100.125 169.201 100.177 169.286 100.177H180.232C180.326 100.177 180.403 100.117 180.403 100.056V96.7823C180.403 96.7217 180.326 96.6611 180.232 96.6611ZM180.232 103.832H169.286C169.201 103.832 169.124 103.893 169.115 103.953V107.227C169.115 107.296 169.201 107.348 169.286 107.348H180.232C180.326 107.348 180.403 107.288 180.403 107.227V103.953C180.403 103.893 180.326 103.832 180.232 103.832ZM180.232 111.003H169.286C169.201 111.003 169.124 111.064 169.115 111.124V114.398C169.115 114.476 169.201 114.519 169.286 114.519H180.232C180.326 114.519 180.403 114.458 180.403 114.398V111.124C180.403 111.064 180.326 111.003 180.232 111.003ZM90.0066 104.135V110.812H95.7061V104.135H90.0066ZM90.0066 116.191V122.859H95.7061V116.191H90.0066ZM100.671 104.135V110.812H110.566V104.135H100.671ZM116.274 104.135V110.812H121.973V104.135H116.274ZM116.274 116.191V122.859H121.973V116.191H116.274ZM137.508 90.7546H131.663C131.569 90.7546 131.492 90.8326 131.492 90.9278V96.8603C131.492 96.9555 131.569 97.0335 131.663 97.0335H137.508C137.602 97.0335 137.679 96.9555 137.679 96.8603V90.9278C137.679 90.8326 137.602 90.7546 137.508 90.7546ZM137.508 102.247H131.663C131.569 102.247 131.492 102.325 131.492 102.42V108.353C131.492 108.448 131.569 108.526 131.663 108.526H137.508C137.602 108.526 137.679 108.448 137.679 108.353V102.429C137.679 102.325 137.602 102.247 137.508 102.247ZM147.548 90.7546H141.703C141.609 90.7546 141.532 90.8326 141.532 90.9278V96.8603C141.532 96.9555 141.609 97.0335 141.703 97.0335H147.548C147.642 97.0335 147.719 96.9555 147.719 96.8603V90.9278C147.719 90.8326 147.642 90.7546 147.548 90.7546ZM147.548 102.247H141.703C141.609 102.247 141.532 102.325 141.532 102.42V108.353C141.532 108.448 141.609 108.526 141.703 108.526H147.548C147.642 108.526 147.719 108.448 147.719 108.353V102.429C147.719 102.325 147.642 102.247 147.548 102.247ZM157.588 90.7546H151.744C151.658 90.7546 151.581 90.8326 151.573 90.9278V96.8603C151.573 96.9555 151.65 97.0335 151.744 97.0335H157.588C157.682 97.0335 157.759 96.9555 157.759 96.8603V90.9278C157.759 90.8326 157.682 90.7546 157.588 90.7546ZM157.588 102.247H151.744C151.658 102.247 151.581 102.325 151.573 102.42V108.353C151.573 108.448 151.65 108.526 151.744 108.526H157.588C157.682 108.526 157.759 108.448 157.759 108.353V102.429C157.759 102.325 157.682 102.247 157.588 102.247ZM131.467 61.7939V82.9082H157.939V61.7939H131.467ZM180.232 96.6611H169.286C169.201 96.6611 169.124 96.7217 169.115 96.7823V100.056C169.115 100.125 169.201 100.177 169.286 100.177H180.232C180.326 100.177 180.403 100.117 180.403 100.056V96.7823C180.403 96.7217 180.326 96.6611 180.232 96.6611ZM180.232 103.832H169.286C169.201 103.832 169.124 103.893 169.115 103.953V107.227C169.115 107.296 169.201 107.348 169.286 107.348H180.232C180.326 107.348 180.403 107.288 180.403 107.227V103.953C180.403 103.893 180.326 103.832 180.232 103.832ZM180.232 111.003H169.286C169.201 111.003 169.124 111.064 169.115 111.124V114.398C169.115 114.476 169.201 114.519 169.286 114.519H180.232C180.326 114.519 180.403 114.458 180.403 114.398V111.124C180.403 111.064 180.326 111.003 180.232 111.003ZM180.232 111.003H169.286C169.201 111.003 169.124 111.064 169.115 111.124V114.398C169.115 114.476 169.201 114.519 169.286 114.519H180.232C180.326 114.519 180.403 114.458 180.403 114.398V111.124C180.403 111.064 180.326 111.003 180.232 111.003ZM180.232 103.832H169.286C169.201 103.832 169.124 103.893 169.115 103.953V107.227C169.115 107.296 169.201 107.348 169.286 107.348H180.232C180.326 107.348 180.403 107.288 180.403 107.227V103.953C180.403 103.893 180.326 103.832 180.232 103.832ZM180.232 96.6611H169.286C169.201 96.6611 169.124 96.7217 169.115 96.7823V100.056C169.115 100.125 169.201 100.177 169.286 100.177H180.232C180.326 100.177 180.403 100.117 180.403 100.056V96.7823C180.403 96.7217 180.326 96.6611 180.232 96.6611ZM131.467 61.7939V82.9082H157.939V61.7939H131.467ZM157.588 102.247H151.744C151.658 102.247 151.581 102.325 151.573 102.42V108.353C151.573 108.448 151.65 108.526 151.744 108.526H157.588C157.682 108.526 157.759 108.448 157.759 108.353V102.429C157.759 102.325 157.682 102.247 157.588 102.247ZM157.588 90.7546H151.744C151.658 90.7546 151.581 90.8326 151.573 90.9278V96.8603C151.573 96.9555 151.65 97.0335 151.744 97.0335H157.588C157.682 97.0335 157.759 96.9555 157.759 96.8603V90.9278C157.759 90.8326 157.682 90.7546 157.588 90.7546ZM147.548 102.247H141.703C141.609 102.247 141.532 102.325 141.532 102.42V108.353C141.532 108.448 141.609 108.526 141.703 108.526H147.548C147.642 108.526 147.719 108.448 147.719 108.353V102.429C147.719 102.325 147.642 102.247 147.548 102.247ZM147.548 90.7546H141.703C141.609 90.7546 141.532 90.8326 141.532 90.9278V96.8603C141.532 96.9555 141.609 97.0335 141.703 97.0335H147.548C147.642 97.0335 147.719 96.9555 147.719 96.8603V90.9278C147.719 90.8326 147.642 90.7546 147.548 90.7546ZM137.508 102.247H131.663C131.569 102.247 131.492 102.325 131.492 102.42V108.353C131.492 108.448 131.569 108.526 131.663 108.526H137.508C137.602 108.526 137.679 108.448 137.679 108.353V102.429C137.679 102.325 137.602 102.247 137.508 102.247ZM137.508 90.7546H131.663C131.569 90.7546 131.492 90.8326 131.492 90.9278V96.8603C131.492 96.9555 131.569 97.0335 131.663 97.0335H137.508C137.602 97.0335 137.679 96.9555 137.679 96.8603V90.9278C137.679 90.8326 137.602 90.7546 137.508 90.7546ZM116.274 122.859H121.973V116.191H116.274V122.859ZM116.274 104.135V110.812H121.973V104.135H116.274ZM100.671 110.812H110.566V104.135H100.671V110.812ZM90.0066 122.859H95.7061V116.191H90.0066V122.859ZM90.0066 110.812H95.7061V104.135H90.0066V110.812ZM174.618 67.657L164.04 82.0595V57.7754C164.04 57.3251 163.877 56.918 163.604 56.6062L163.527 56.5196C163.211 56.1992 162.775 56 162.297 56H126.946C126.468 56 126.032 56.1992 125.716 56.5196C125.4 56.8401 125.203 57.2818 125.203 57.7667V89.3603L122.776 85.4457L122.657 85.2465C122.289 84.571 121.956 83.9648 120.879 83.9648H91.0833C90.0066 83.9648 89.6733 84.571 89.3145 85.2292C87.0757 89.0658 84.5806 92.8851 82.2393 96.6697C82.0769 96.9296 82 97.2154 82 97.4925C82 97.8562 82.1282 98.194 82.3333 98.4885C82.4871 98.6876 82.6921 98.8695 82.9143 99.0167C83.2732 99.2419 83.7261 99.3891 84.1277 99.3891H84.7344V129.831C84.7344 130.472 85.2471 131 85.8879 131H186.009C186.556 131 187 130.55 187 129.995V83.5318C187 83.5318 178.481 71.8747 175.464 67.657C175.259 67.3626 174.832 67.3712 174.618 67.657ZM110.318 128.653H101.653V117.152C101.653 116.736 101.824 116.364 102.098 116.087C102.371 115.809 102.739 115.636 103.149 115.636H108.831C109.241 115.636 109.609 115.809 109.882 116.087C110.147 116.364 110.318 116.736 110.318 117.152V128.653ZM124.93 128.653H112.625V117.152C112.625 116.095 112.198 115.134 111.506 114.432C110.822 113.74 109.865 113.307 108.823 113.307H103.14C102.098 113.307 101.149 113.74 100.466 114.432C99.782 115.125 99.3462 116.095 99.3462 117.152V128.653H87.0415V99.3891H124.93V128.653ZM148.77 128.982H140.644V114.943H148.77V128.982ZM162.066 128.982H150.453V114.086C150.453 113.61 150.077 113.229 149.607 113.229H139.789C139.319 113.229 138.943 113.61 138.943 114.086V128.982H127.237V99.3891H127.844C128.254 99.3891 128.698 99.2419 129.057 99.0167L129.168 98.9388C129.347 98.8089 129.51 98.653 129.638 98.4798C129.852 98.194 129.98 97.8562 129.98 97.4925C129.98 97.2067 129.903 96.9296 129.74 96.6697L127.194 92.556V58.0092H162.066V128.982ZM185.009 128.982H164.048V84.06H185.009V128.982ZM169.286 114.519H180.232C180.326 114.519 180.403 114.458 180.403 114.398V111.124C180.403 111.064 180.326 111.003 180.232 111.003H169.286C169.201 111.003 169.124 111.064 169.115 111.124V114.398C169.115 114.476 169.201 114.519 169.286 114.519ZM169.286 107.348H180.232C180.326 107.348 180.403 107.288 180.403 107.227V103.953C180.403 103.893 180.326 103.832 180.232 103.832H169.286C169.201 103.832 169.124 103.893 169.115 103.953V107.227C169.115 107.296 169.201 107.348 169.286 107.348ZM169.286 100.177H180.232C180.326 100.177 180.403 100.117 180.403 100.056V96.7823C180.403 96.7217 180.326 96.6611 180.232 96.6611H169.286C169.201 96.6611 169.124 96.7217 169.115 96.7823V100.056C169.115 100.125 169.201 100.177 169.286 100.177ZM157.939 61.7939H131.467V82.9082H157.939V61.7939ZM157.588 102.247H151.744C151.658 102.247 151.581 102.325 151.573 102.42V108.353C151.573 108.448 151.65 108.526 151.744 108.526H157.588C157.682 108.526 157.759 108.448 157.759 108.353V102.429C157.759 102.325 157.682 102.247 157.588 102.247ZM157.588 90.7546H151.744C151.658 90.7546 151.581 90.8326 151.573 90.9278V96.8603C151.573 96.9555 151.65 97.0335 151.744 97.0335H157.588C157.682 97.0335 157.759 96.9555 157.759 96.8603V90.9278C157.759 90.8326 157.682 90.7546 157.588 90.7546ZM147.548 102.247H141.703C141.609 102.247 141.532 102.325 141.532 102.42V108.353C141.532 108.448 141.609 108.526 141.703 108.526H147.548C147.642 108.526 147.719 108.448 147.719 108.353V102.429C147.719 102.325 147.642 102.247 147.548 102.247ZM147.548 90.7546H141.703C141.609 90.7546 141.532 90.8326 141.532 90.9278V96.8603C141.532 96.9555 141.609 97.0335 141.703 97.0335H147.548C147.642 97.0335 147.719 96.9555 147.719 96.8603V90.9278C147.719 90.8326 147.642 90.7546 147.548 90.7546ZM137.508 102.247H131.663C131.569 102.247 131.492 102.325 131.492 102.42V108.353C131.492 108.448 131.569 108.526 131.663 108.526H137.508C137.602 108.526 137.679 108.448 137.679 108.353V102.429C137.679 102.325 137.602 102.247 137.508 102.247ZM137.508 90.7546H131.663C131.569 90.7546 131.492 90.8326 131.492 90.9278V96.8603C131.492 96.9555 131.569 97.0335 131.663 97.0335H137.508C137.602 97.0335 137.679 96.9555 137.679 96.8603V90.9278C137.679 90.8326 137.602 90.7546 137.508 90.7546ZM121.973 116.191H116.274V122.859H121.973V116.191ZM121.973 104.135H116.274V110.812H121.973V104.135ZM110.566 104.135H100.671V110.812H110.566V104.135ZM95.7061 116.191H90.0066V122.859H95.7061V116.191ZM95.7061 104.135H90.0066V110.812H95.7061V104.135ZM100.671 104.135V110.812H110.566V104.135H100.671ZM90.0066 104.135V110.812H95.7061V104.135H90.0066ZM90.0066 116.191V122.859H95.7061V116.191H90.0066ZM100.671 104.135V110.812H110.566V104.135H100.671ZM116.274 104.135V110.812H121.973V104.135H116.274ZM116.274 116.191V122.859H121.973V116.191H116.274ZM116.274 116.191V122.859H121.973V116.191H116.274ZM116.274 104.135V110.812H121.973V104.135H116.274ZM90.0066 116.191V122.859H95.7061V116.191H90.0066ZM90.0066 104.135V110.812H95.7061V104.135H90.0066ZM131.467 61.7939V82.9082H157.939V61.7939H131.467ZM180.232 111.003H169.286C169.201 111.003 169.124 111.064 169.115 111.124V114.398C169.115 114.476 169.201 114.519 169.286 114.519H180.232C180.326 114.519 180.403 114.458 180.403 114.398V111.124C180.403 111.064 180.326 111.003 180.232 111.003ZM180.232 103.832H169.286C169.201 103.832 169.124 103.893 169.115 103.953V107.227C169.115 107.296 169.201 107.348 169.286 107.348H180.232C180.326 107.348 180.403 107.288 180.403 107.227V103.953C180.403 103.893 180.326 103.832 180.232 103.832ZM180.232 96.6611H169.286C169.201 96.6611 169.124 96.7217 169.115 96.7823V100.056C169.115 100.125 169.201 100.177 169.286 100.177H180.232C180.326 100.177 180.403 100.117 180.403 100.056V96.7823C180.403 96.7217 180.326 96.6611 180.232 96.6611ZM157.588 102.247H151.744C151.658 102.247 151.581 102.325 151.573 102.42V108.353C151.573 108.448 151.65 108.526 151.744 108.526H157.588C157.682 108.526 157.759 108.448 157.759 108.353V102.429C157.759 102.325 157.682 102.247 157.588 102.247ZM147.548 102.247H141.703C141.609 102.247 141.532 102.325 141.532 102.42V108.353C141.532 108.448 141.609 108.526 141.703 108.526H147.548C147.642 108.526 147.719 108.448 147.719 108.353V102.429C147.719 102.325 147.642 102.247 147.548 102.247ZM137.508 102.247H131.663C131.569 102.247 131.492 102.325 131.492 102.42V108.353C131.492 108.448 131.569 108.526 131.663 108.526H137.508C137.602 108.526 137.679 108.448 137.679 108.353V102.429C137.679 102.325 137.602 102.247 137.508 102.247ZM157.588 90.7546H151.744C151.658 90.7546 151.581 90.8326 151.573 90.9278V96.8603C151.573 96.9555 151.65 97.0335 151.744 97.0335H157.588C157.682 97.0335 157.759 96.9555 157.759 96.8603V90.9278C157.759 90.8326 157.682 90.7546 157.588 90.7546ZM147.548 90.7546H141.703C141.609 90.7546 141.532 90.8326 141.532 90.9278V96.8603C141.532 96.9555 141.609 97.0335 141.703 97.0335H147.548C147.642 97.0335 147.719 96.9555 147.719 96.8603V90.9278C147.719 90.8326 147.642 90.7546 147.548 90.7546ZM137.508 90.7546H131.663C131.569 90.7546 131.492 90.8326 131.492 90.9278V96.8603C131.492 96.9555 131.569 97.0335 131.663 97.0335H137.508C137.602 97.0335 137.679 96.9555 137.679 96.8603V90.9278C137.679 90.8326 137.602 90.7546 137.508 90.7546Z" fill="#0E3860" fill-opacity="0.7"/>
<path d="M0 260H268V302C268 306.418 264.418 310 260 310H7.99999C3.58172 310 0 306.418 0 302V260Z" fill="#567490"/>
<path d="M117.337 281.02C117.417 279.78 117.891 278.813 118.757 278.12C119.637 277.427 120.757 277.08 122.117 277.08C123.051 277.08 123.857 277.247 124.537 277.58C125.217 277.913 125.731 278.367 126.077 278.94C126.424 279.513 126.597 280.16 126.597 280.88C126.597 281.707 126.377 282.413 125.937 283C125.497 283.587 124.971 283.98 124.357 284.18V284.26C125.144 284.5 125.757 284.94 126.197 285.58C126.637 286.207 126.857 287.013 126.857 288C126.857 288.787 126.677 289.487 126.317 290.1C125.957 290.713 125.424 291.2 124.717 291.56C124.011 291.907 123.164 292.08 122.177 292.08C120.737 292.08 119.551 291.713 118.617 290.98C117.697 290.233 117.204 289.167 117.137 287.78H119.337C119.391 288.487 119.664 289.067 120.157 289.52C120.651 289.96 121.317 290.18 122.157 290.18C122.971 290.18 123.597 289.96 124.037 289.52C124.477 289.067 124.697 288.487 124.697 287.78C124.697 286.847 124.397 286.187 123.797 285.8C123.211 285.4 122.304 285.2 121.077 285.2H120.557V283.32H121.097C122.177 283.307 122.997 283.127 123.557 282.78C124.131 282.433 124.417 281.887 124.417 281.14C124.417 280.5 124.211 279.993 123.797 279.62C123.384 279.233 122.797 279.04 122.037 279.04C121.291 279.04 120.711 279.233 120.297 279.62C119.884 279.993 119.637 280.46 119.557 281.02H117.337ZM130.22 288.9C131.5 287.793 132.506 286.887 133.24 286.18C133.986 285.46 134.606 284.713 135.1 283.94C135.593 283.167 135.84 282.393 135.84 281.62C135.84 280.82 135.646 280.193 135.26 279.74C134.886 279.287 134.293 279.06 133.48 279.06C132.693 279.06 132.08 279.313 131.64 279.82C131.213 280.313 130.986 280.98 130.96 281.82H128.76C128.8 280.3 129.253 279.14 130.12 278.34C131 277.527 132.113 277.12 133.46 277.12C134.913 277.12 136.046 277.52 136.86 278.32C137.686 279.12 138.1 280.187 138.1 281.52C138.1 282.48 137.853 283.407 137.36 284.3C136.88 285.18 136.3 285.973 135.62 286.68C134.953 287.373 134.1 288.18 133.06 289.1L132.16 289.9H138.5V291.8H128.78V290.14L130.22 288.9ZM140.21 284.52C140.21 282.213 140.597 280.413 141.37 279.12C142.157 277.813 143.504 277.16 145.41 277.16C147.317 277.16 148.657 277.813 149.43 279.12C150.217 280.413 150.61 282.213 150.61 284.52C150.61 286.853 150.217 288.68 149.43 290C148.657 291.307 147.317 291.96 145.41 291.96C143.504 291.96 142.157 291.307 141.37 290C140.597 288.68 140.21 286.853 140.21 284.52ZM148.37 284.52C148.37 283.44 148.297 282.527 148.15 281.78C148.017 281.033 147.737 280.427 147.31 279.96C146.884 279.48 146.25 279.24 145.41 279.24C144.57 279.24 143.937 279.48 143.51 279.96C143.084 280.427 142.797 281.033 142.65 281.78C142.517 282.527 142.45 283.44 142.45 284.52C142.45 285.64 142.517 286.58 142.65 287.34C142.784 288.1 143.064 288.713 143.49 289.18C143.93 289.647 144.57 289.88 145.41 289.88C146.25 289.88 146.884 289.647 147.31 289.18C147.75 288.713 148.037 288.1 148.17 287.34C148.304 286.58 148.37 285.64 148.37 284.52Z" fill="white"/>
</svg>
