<svg width="117" height="136" viewBox="0 0 117 136" fill="none" xmlns="http://www.w3.org/2000/svg">
<path d="M1.2756 1.9999C1.28627 0.895387 2.19031 0.00864961 3.29483 0.0193194L114.965 1.09807C116.069 1.10874 116.956 2.01278 116.945 3.1173L115.69 133.111C115.679 134.216 114.775 135.102 113.67 135.092L2.00042 134.013C0.895905 134.002 0.00916917 133.098 0.019839 131.994L1.2756 1.9999Z" fill="white"/>
<path d="M56.7506 37.3073L56.7162 38.24L57.2607 38.2453L58.1917 38.2289L58.2793 38.3408L58.173 39.5141L57.138 39.4787L56.6726 39.4742L56.6716 39.5789L56.7186 41.2679L55.1041 41.2523L55.198 39.7266L55.1543 36.0509L58.6209 36.0844L58.7084 36.1963L58.5926 37.3695L57.3078 37.3095L56.7474 37.3041L56.7506 37.3073ZM76.4368 25.8972L77.9752 25.9216C78.2222 25.924 78.4196 26.129 78.4173 26.3766C78.4166 26.4464 78.4001 26.5129 78.3711 26.5697L76.7597 29.8327C76.6821 29.9938 76.5198 30.0843 76.352 30.0826L69.2258 30.0138L69.2154 31.0864L67.0373 31.0654L67.0477 29.9928L54.1407 29.8681L54.1304 30.9407L51.9523 30.9197L51.9627 29.847L47.0114 29.7992L46.7606 55.7584C46.7571 56.1202 46.6052 56.4456 46.3654 56.6813C46.1225 56.917 45.7918 57.063 45.4341 57.0595L43.8829 57.0446C43.522 57.0411 43.1942 56.8887 42.959 56.6484L42.9308 56.6164C42.7115 56.3794 42.5784 56.0608 42.5818 55.7149L42.8325 29.7588L40.7937 29.7391C40.4328 29.7357 40.105 29.5833 39.8699 29.343C39.6348 29.1027 39.4892 28.7712 39.4927 28.4095L39.5077 26.8544C39.5112 26.4927 39.6632 26.1641 39.9029 25.9283C40.1426 25.6926 40.4733 25.5466 40.8342 25.5501L42.873 25.5698L42.8876 24.0561C42.889 23.9164 42.9535 23.7933 43.0524 23.7117L44.6852 22.1628C44.861 21.9963 45.1364 22.0021 45.3057 22.1688L46.9303 23.7682C47.0213 23.858 47.0645 23.9758 47.0633 24.0932L47.0487 25.607L76.4368 25.8909L76.4368 25.8972ZM51.4612 31.9464L72.5454 32.1501C73.2102 32.1565 73.8154 32.4385 74.2512 32.8807C74.6901 33.3293 74.9565 33.938 74.95 34.6076L74.7948 50.6814C74.7883 51.3478 74.507 51.9513 74.0627 52.3882L74.0596 52.3881C73.6152 52.8282 73.0048 53.0952 72.3431 53.0888L51.2589 52.8851C50.5941 52.8787 49.9889 52.5999 49.5531 52.1546C49.1173 51.7092 48.8478 51.0972 48.8542 50.4308L49.0095 34.3539C49.016 33.6843 49.2941 33.0776 49.7384 32.6407C50.1827 32.2038 50.7932 31.9368 51.4612 31.9432L51.4612 31.9464ZM72.5338 33.3529L51.4495 33.1492C51.114 33.1459 50.8024 33.2826 50.5786 33.5026C50.3549 33.7226 50.2126 34.0291 50.2093 34.3686L50.054 50.4424C50.0508 50.7788 50.1871 51.0911 50.4065 51.3154C50.626 51.5397 50.9349 51.6823 51.2705 51.6856L72.3547 51.8892C72.6903 51.8925 72.9987 51.7558 73.2224 51.5358C73.4494 51.3127 73.5885 51.0062 73.5917 50.6698L73.7471 34.5928C73.7503 34.2564 73.614 33.9441 73.3946 33.7198C73.1751 33.4955 72.8662 33.3529 72.5306 33.3496L72.5338 33.3529ZM61.4742 36.0199C62.2276 36.0272 62.8079 36.2581 63.2183 36.7096C63.6287 37.1611 63.8252 37.7946 63.8174 38.6101C63.8087 39.5114 63.5772 40.2042 63.1197 40.6949C62.6622 41.1825 62.0203 41.4238 61.1909 41.4158C60.4374 41.4085 59.8571 41.1776 59.4468 40.7198C59.0396 40.262 58.84 39.6189 58.8481 38.7875C58.8567 37.8957 59.0881 37.2124 59.5455 36.7313C60.0029 36.2501 60.6447 36.0151 61.4741 36.0231L61.4742 36.0199ZM61.3161 37.3069C61.1071 37.3049 60.9485 37.3383 60.8402 37.4103C60.7318 37.4822 60.6546 37.6084 60.6086 37.7889C60.5625 37.9725 60.5377 38.2357 60.5344 38.5848C60.5301 39.0291 60.5521 39.3689 60.5974 39.5978C60.6427 39.8299 60.7234 39.9894 60.8365 40.0826C60.9496 40.1757 61.1201 40.2218 61.3449 40.2239C61.5538 40.226 61.7125 40.1926 61.8208 40.1206C61.9291 40.0487 62.0063 39.9225 62.0525 39.7357C62.0986 39.552 62.1265 39.2857 62.1299 38.9366C62.1341 38.4987 62.112 38.162 62.0668 37.9299C62.0215 37.6978 61.9407 37.5383 61.8276 37.4452C61.7146 37.3521 61.544 37.306 61.3193 37.3038L61.3161 37.3069ZM67.958 39.3325C68.3384 39.936 68.7161 40.4983 69.0973 41.0161L69.0703 41.1936C68.5242 41.3533 67.985 41.4465 67.456 41.4763L67.3053 41.3479L67.2091 41.147C67.1656 41.0609 67.0819 40.8792 66.9579 40.6019C66.8308 40.3245 66.7225 40.0632 66.6267 39.8211L66.0885 39.8159L66.1305 41.3683L64.5191 41.3527L64.613 39.827L64.5693 36.1514L67.0324 36.1656C67.6149 36.1713 68.0631 36.3121 68.377 36.5944C68.6909 36.8736 68.8454 37.2718 68.8404 37.7922C68.8374 38.0969 68.7586 38.3849 68.6041 38.65C68.4496 38.9183 68.2352 39.1448 67.9579 39.3357L67.958 39.3325ZM67.1451 37.9345C67.1472 37.7219 67.0949 37.5595 66.9851 37.4537C66.8753 37.348 66.6986 37.2891 66.4518 37.2772L66.1634 37.2998L66.1188 38.6419L66.7042 38.6793C66.8536 38.6109 66.9654 38.5168 67.0362 38.4C67.1069 38.2833 67.1433 38.1281 67.1451 37.9345ZM55.5314 43.5574C56.0379 43.5623 56.5404 43.6623 57.0356 43.8544L56.7665 45.1626L56.5408 45.2588C56.3174 45.117 56.0968 45.0038 55.8791 44.9223C55.6615 44.8409 55.4846 44.7979 55.3516 44.7966C55.2282 44.7954 55.1298 44.8167 55.0597 44.8668C54.9864 44.9137 54.951 44.9768 54.9502 45.0593C54.9492 45.1609 55.0021 45.2503 55.1123 45.3211C55.2224 45.3952 55.4019 45.4922 55.6604 45.6121C55.9567 45.7482 56.2024 45.8776 56.3944 45.9937C56.5864 46.1098 56.7526 46.2701 56.8963 46.4714C57.04 46.6728 57.1104 46.9242 57.1076 47.2193C57.1044 47.5462 57.0129 47.8405 56.8299 48.1053C56.6469 48.3701 56.3916 48.5771 56.0577 48.7294C55.7238 48.8817 55.3399 48.9573 54.8999 48.9531C54.3554 48.9478 53.7833 48.8407 53.187 48.6319L53.4348 47.2346L53.5972 47.1378C53.8423 47.3274 54.1036 47.4791 54.3843 47.5929C54.665 47.7067 54.8987 47.7629 55.0855 47.7647C55.2343 47.7661 55.3422 47.7418 55.4123 47.6917C55.4793 47.6416 55.5147 47.5784 55.5155 47.5023C55.5165 47.3912 55.4605 47.2954 55.3473 47.215C55.2341 47.1346 55.0482 47.0407 54.7928 46.924C54.4997 46.791 54.2602 46.6681 54.0714 46.552C53.8826 46.436 53.7195 46.2757 53.5821 46.0712C53.4448 45.8668 53.3775 45.6186 53.3804 45.3266C53.3836 44.9871 53.4784 44.6865 53.6614 44.4153C53.8445 44.1473 54.103 43.9371 54.4306 43.7848C54.7581 43.6324 55.1293 43.5567 55.5472 43.5607L55.5314 43.5574ZM62.312 48.9231L60.6848 48.9074L60.5475 48.046L60.5382 48.0205L59.7532 47.997L59.0944 48.0224L58.9499 48.8906L57.3765 48.8754L59.0002 43.6861L60.9408 43.7049L62.3088 48.9231L62.312 48.9231ZM60.3089 46.844L59.974 45.1364L59.8759 45.1355L59.4099 46.8353L59.8593 46.8492L60.3089 46.844ZM66.1226 47.7539L66.016 48.9589L62.9262 48.9291L63.0201 47.4034L62.9764 43.7277L64.6131 43.7435L64.4905 47.2557L64.5028 47.6272L66.035 47.642L66.1226 47.7571L66.1226 47.7539ZM70.3655 47.7155L70.4531 47.8275L70.3436 49.0007L66.684 48.9654L66.7779 47.4397L66.7342 43.764L70.4572 43.8L70.5448 43.9119L70.4289 45.0851L69.1536 45.0251L68.3273 45.0172L68.3044 45.7501L69.099 45.7578L69.935 45.7405L70.0226 45.8524L69.9131 47.0256L68.9826 46.9944L68.2608 46.9874L68.2515 47.292L68.263 47.7428L69.0323 47.7503L70.3655 47.7155Z" fill="#0E3860" fill-opacity="0.7"/>
<path d="M37.3176 87.9754L37.3045 89.3313L33.8127 89.2976L33.7919 91.4455L36.4678 91.4713L36.4549 92.8032L33.7791 92.7774L33.7449 96.3172L32.0649 96.301L32.1459 87.9254L37.3176 87.9754ZM42.1907 96.4828C41.4067 96.4753 40.6885 96.2843 40.0361 95.91C39.3837 95.5357 38.8686 95.0227 38.4909 94.371C38.1132 93.7113 37.9284 92.9695 37.9364 92.1455C37.9442 91.3296 38.1433 90.5995 38.5335 89.9552C38.9239 89.3029 39.4488 88.796 40.1083 88.4343C40.7678 88.0727 41.4896 87.8957 42.2735 87.9032C43.0655 87.9109 43.7837 88.1018 44.4281 88.4761C45.0805 88.8504 45.5916 89.3673 45.9612 90.0269C46.3389 90.6786 46.5238 91.4124 46.516 92.2284C46.508 93.0524 46.3089 93.7905 45.9185 94.4427C45.5363 95.0871 45.0154 95.5901 44.3559 95.9517C43.6964 96.3134 42.9746 96.4904 42.1907 96.4828ZM42.2052 94.9829C42.7091 94.9878 43.1542 94.8801 43.5403 94.6598C43.9266 94.4315 44.2297 94.1064 44.4498 93.6845C44.6699 93.2626 44.7826 92.7717 44.788 92.2117C44.7935 91.6517 44.6902 91.1627 44.4782 90.7447C44.2663 90.3186 43.9694 89.9917 43.5876 89.764C43.2058 89.5363 42.7629 89.42 42.2589 89.4152C41.755 89.4103 41.3059 89.518 40.9118 89.7382C40.5256 89.9584 40.2225 90.2795 40.0024 90.7014C39.7824 91.1153 39.6697 91.6022 39.6643 92.1622C39.6589 92.7222 39.7621 93.2152 39.974 93.6413C40.1859 94.0673 40.4827 94.3982 40.8645 94.6339C41.2543 94.8617 41.7012 94.978 42.2052 94.9829ZM51.9206 96.4928L50.1042 93.2111L49.3123 93.2035L49.2807 96.4673L47.6008 96.4511L47.6817 88.0755L50.8256 88.1058C51.4736 88.1121 52.0244 88.2334 52.4781 88.4698C52.932 88.6982 53.269 89.0095 53.4892 89.4036C53.7175 89.7899 53.8293 90.223 53.8246 90.7029C53.8193 91.2549 53.6545 91.7533 53.3302 92.1982C53.0059 92.6351 52.527 92.9345 51.8934 93.0964L53.8645 96.5116L51.9206 96.4928ZM49.3244 91.9435L50.7284 91.9571C51.1844 91.9615 51.5254 91.8568 51.7515 91.643C51.9776 91.4211 52.0926 91.1142 52.0964 90.7222C52.1001 90.3383 51.9909 90.0412 51.769 89.831C51.5471 89.6129 51.2081 89.5016 50.7521 89.4972L49.3482 89.4836L49.3244 91.9435ZM60.7897 96.6625C60.2057 96.6569 59.6787 96.5518 59.2087 96.3472C58.7466 96.1427 58.3814 95.8512 58.1131 95.4726C57.8447 95.094 57.709 94.6486 57.706 94.1366L59.5059 94.154C59.5266 94.4982 59.6439 94.7713 59.858 94.9734C60.08 95.1756 60.3831 95.2785 60.767 95.2822C61.159 95.286 61.4679 95.197 61.6937 95.0151C61.9195 94.8253 62.0339 94.5784 62.0368 94.2744C62.0392 94.0264 61.9652 93.8217 61.8148 93.6603C61.6643 93.4988 61.4735 93.3729 61.2424 93.2827C61.0193 93.1845 60.7083 93.0775 60.3094 92.9617C59.767 92.7964 59.3245 92.6362 58.982 92.4808C58.6476 92.3176 58.3579 92.0788 58.1129 91.7644C57.876 91.4421 57.7601 91.017 57.7652 90.489C57.77 89.993 57.8982 89.5622 58.1497 89.1966C58.4013 88.8311 58.7519 88.5544 59.2018 88.3668C59.6517 88.1711 60.1646 88.0761 60.7406 88.0816C61.6046 88.09 62.3025 88.3087 62.8344 88.7379C63.3743 89.1591 63.6687 89.746 63.7174 90.4985L61.8695 90.4806C61.8563 90.1925 61.7345 89.9553 61.5043 89.7691C61.2822 89.5749 60.9831 89.476 60.6072 89.4724C60.2792 89.4692 60.0144 89.5507 59.8128 89.7167C59.6191 89.8829 59.5208 90.1259 59.5177 90.4459C59.5155 90.6699 59.5857 90.8586 59.7282 91.012C59.8788 91.1574 60.0617 91.2792 60.2767 91.3773C60.4999 91.4675 60.8109 91.5745 61.2097 91.6983C61.7521 91.8636 62.1945 92.0278 62.537 92.1912C62.8794 92.3545 63.1731 92.5973 63.418 92.9197C63.6629 93.2421 63.7828 93.6633 63.7778 94.1832C63.7735 94.6312 63.6535 95.0461 63.4178 95.4278C63.1821 95.8096 62.8391 96.1143 62.3889 96.3419C61.9387 96.5616 61.4057 96.6684 60.7897 96.6625ZM70.2377 95.0737L66.9019 95.0415L66.3345 96.6321L64.5706 96.615L67.6635 88.2565L69.6194 88.2754L72.5502 96.6921L70.7743 96.6749L70.2377 95.0737ZM69.7947 93.7253L68.6166 90.2098L67.3708 93.7019L69.7947 93.7253ZM75.2445 95.3861L78.0044 95.4127L77.9915 96.7447L73.5517 96.7018L73.6326 88.3262L75.3125 88.3424L75.2445 95.3861ZM80.6827 89.7503L80.6624 91.8502L83.4823 91.8775L83.4695 93.2094L80.6496 93.1822L80.6281 95.4021L83.808 95.4328L83.7948 96.8007L78.935 96.7538L79.016 88.3662L83.8758 88.4131L83.8626 89.781L80.6827 89.7503Z" fill="#0E3860"/>
<path d="M0.210938 112.238L115.881 113.356L115.69 133.115C115.679 134.22 114.775 135.107 113.671 135.096L2.00064 134.017C0.896121 134.007 0.00938503 133.103 0.0200549 131.998L0.210938 112.238Z" fill="#0E3860" fill-opacity="0.7"/>
<path d="M15.739 105.513L22.1194 112.447L9.22586 112.323L15.739 105.513Z" fill="#0E3860" fill-opacity="0.7"/>
<path d="M48.5308 125.943L48.5391 125.083L51.9455 120.295L53.3255 120.309L53.2802 124.999L54.2101 125.008L54.2006 125.998L53.2706 125.989L53.2559 127.508L52.136 127.498L52.1507 125.978L48.5308 125.943ZM52.2443 121.458L49.8503 124.965L52.2102 124.988L52.2443 121.458ZM59.7669 121.261L56.4171 121.229L56.3978 123.219C56.5396 123.033 56.7478 122.879 57.0224 122.755C57.3036 122.631 57.6008 122.57 57.9141 122.573C58.4741 122.579 58.9263 122.703 59.2706 122.946C59.6216 123.19 59.8687 123.495 60.0118 123.864C60.1616 124.232 60.2345 124.619 60.2306 125.026C60.2258 125.519 60.1249 125.958 59.9278 126.343C59.7375 126.721 59.4513 127.018 59.0692 127.235C58.6937 127.451 58.2327 127.557 57.686 127.551C56.9594 127.544 56.3778 127.359 55.9413 126.994C55.5048 126.63 55.2461 126.151 55.1652 125.557L56.2751 125.568C56.3454 125.882 56.5064 126.133 56.7579 126.322C57.0095 126.505 57.3252 126.598 57.7052 126.601C58.1785 126.606 58.5332 126.466 58.7693 126.182C59.0121 125.897 59.1358 125.518 59.1403 125.045C59.145 124.565 59.0285 124.197 58.791 123.942C58.5535 123.679 58.2014 123.546 57.7348 123.542C57.4081 123.538 57.1307 123.619 56.9024 123.784C56.6809 123.941 56.5188 124.16 56.4161 124.439L55.3361 124.428L55.3768 120.219L59.7766 120.261L59.7669 121.261ZM61.3045 123.846C61.3156 122.693 61.5176 121.795 61.9105 121.152C62.3101 120.502 62.9866 120.182 63.9399 120.191C64.8932 120.201 65.56 120.534 65.9403 121.191C66.3274 121.841 66.5153 122.743 66.5042 123.896C66.4929 125.063 66.2875 125.974 65.8878 126.63C65.4948 127.28 64.8217 127.6 63.8684 127.591C62.9151 127.582 62.245 127.249 61.858 126.592C61.4777 125.928 61.2932 125.013 61.3045 123.846ZM65.3843 123.885C65.3895 123.345 65.3572 122.888 65.2875 122.514C65.2244 122.14 65.0874 121.836 64.8763 121.6C64.6653 121.358 64.3498 121.235 63.9298 121.231C63.5099 121.227 63.192 121.344 62.9764 121.582C62.7608 121.813 62.6146 122.115 62.5376 122.488C62.4674 122.861 62.4296 123.317 62.4244 123.857C62.419 124.417 62.4478 124.887 62.5108 125.268C62.5738 125.648 62.7108 125.956 62.9219 126.192C63.1396 126.427 63.4585 126.547 63.8784 126.551C64.2984 126.555 64.6162 126.441 64.8318 126.21C65.054 125.979 65.2003 125.674 65.2706 125.294C65.341 124.915 65.3789 124.445 65.3843 123.885Z" fill="white"/>
</svg>
