<svg width="268" height="310" viewBox="0 0 268 310" fill="none" xmlns="http://www.w3.org/2000/svg">
<rect width="268" height="310" rx="8" fill="white"/>
<path d="M129.122 85.0536L129.063 87.2122H130.323L132.477 87.1534L132.682 87.4104L132.462 90.1269L130.067 90.0682H128.99V90.3105L129.137 94.2164H125.401L125.584 90.6849L125.401 82.1829H133.421L133.626 82.4398L133.385 85.1564L130.411 85.0462H129.115L129.122 85.0536ZM174.408 58.2185L177.967 58.2405C178.539 58.2405 179 58.7104 179 59.2831C179 59.4446 178.963 59.5988 178.897 59.7309L175.243 67.3153C175.067 67.6897 174.693 67.9026 174.305 67.9026H157.818V70.3842H152.779V67.9026H122.918V70.3842H117.879V67.9026H106.424V127.96C106.424 128.797 106.08 129.554 105.531 130.104C104.974 130.655 104.212 131 103.385 131H99.7959C98.9609 131 98.1992 130.655 97.6499 130.104L97.584 130.031C97.0713 129.488 96.7563 128.753 96.7563 127.953V67.9026H92.0396C91.2046 67.9026 90.4429 67.5575 89.8936 67.0069C89.3442 66.4562 89 65.6927 89 64.8557V61.2581C89 60.4211 89.3442 59.6575 89.8936 59.1069C90.4429 58.5562 91.2046 58.2111 92.0396 58.2111H96.7563V54.709C96.7563 54.3859 96.9028 54.0996 97.1299 53.9087L100.873 50.2891C101.275 49.9 101.913 49.9073 102.308 50.2891L106.102 53.9528C106.314 54.1583 106.417 54.43 106.417 54.7017V58.2038H174.408V58.2185ZM116.766 72.7704H165.545C167.084 72.7704 168.49 73.4091 169.508 74.4223C170.533 75.4502 171.163 76.8526 171.163 78.4017V115.589C171.163 117.131 170.526 118.533 169.508 119.554H169.5C168.482 120.582 167.076 121.213 165.545 121.213H116.766C115.228 121.213 113.822 120.582 112.804 119.561C111.786 118.541 111.148 117.131 111.148 115.589V78.3944C111.148 76.8452 111.778 75.4355 112.796 74.415C113.814 73.3945 115.221 72.763 116.766 72.763V72.7704ZM165.545 75.553H116.766C115.99 75.553 115.272 75.8761 114.759 76.39C114.247 76.9039 113.924 77.6161 113.924 78.4017V115.589C113.924 116.367 114.247 117.087 114.759 117.601C115.272 118.115 115.99 118.438 116.766 118.438H165.545C166.322 118.438 167.032 118.115 167.545 117.601C168.065 117.08 168.38 116.367 168.38 115.589V78.3944C168.38 77.6161 168.058 76.8966 167.545 76.3827C167.032 75.8687 166.314 75.5457 165.538 75.5457L165.545 75.553ZM140.021 81.9699C141.764 81.9699 143.111 82.4912 144.071 83.5265C145.03 84.5617 145.499 86.0227 145.499 87.9096C145.499 89.9948 144.979 91.6027 143.932 92.748C142.884 93.8861 141.405 94.4587 139.486 94.4587C137.743 94.4587 136.395 93.9374 135.436 92.8875C134.483 91.8376 134.007 90.3545 134.007 88.4309C134.007 86.3678 134.527 84.7819 135.575 83.6586C136.622 82.5353 138.102 81.9773 140.021 81.9773V81.9699ZM139.684 84.9508C139.2 84.9508 138.834 85.0316 138.585 85.2004C138.336 85.3693 138.16 85.663 138.058 86.0815C137.955 86.5073 137.904 87.1167 137.904 87.9243C137.904 88.9522 137.962 89.7378 138.072 90.2664C138.182 90.8024 138.373 91.1695 138.636 91.3824C138.9 91.5953 139.295 91.6981 139.815 91.6981C140.299 91.6981 140.665 91.6174 140.914 91.4485C141.163 91.2796 141.339 90.986 141.441 90.5528C141.544 90.1269 141.603 89.5102 141.603 88.7026C141.603 87.6894 141.544 86.9111 141.434 86.3752C141.324 85.8392 141.134 85.4721 140.87 85.2592C140.606 85.0463 140.211 84.9435 139.691 84.9435L139.684 84.9508ZM155.094 89.4882C155.987 90.8758 156.874 92.168 157.767 93.3574L157.708 93.7686C156.449 94.1504 155.204 94.378 153.98 94.4587L153.629 94.1651L153.402 93.7025C153.299 93.5043 153.102 93.0858 152.809 92.447C152.508 91.8083 152.252 91.2062 152.025 90.6482H150.78L150.912 94.2385H147.184L147.367 90.707L147.184 82.2049L152.882 82.1829C154.229 82.1829 155.27 82.4986 156.002 83.1447C156.734 83.7834 157.101 84.7012 157.101 85.9053C157.101 86.6101 156.925 87.2782 156.573 87.895C156.222 88.519 155.731 89.0477 155.094 89.4955V89.4882ZM153.182 86.2724C153.182 85.7805 153.058 85.406 152.801 85.1637C152.545 84.9214 152.135 84.7893 151.563 84.7673L150.897 84.826L150.824 87.9317L152.179 88.0051C152.523 87.8436 152.779 87.6233 152.94 87.3517C153.102 87.08 153.182 86.7202 153.182 86.2724ZM126.441 99.5394C127.613 99.5394 128.778 99.7597 129.928 100.193L129.334 103.225L128.814 103.453C128.294 103.13 127.782 102.873 127.276 102.689C126.771 102.506 126.361 102.41 126.053 102.41C125.768 102.41 125.541 102.462 125.379 102.579C125.211 102.689 125.13 102.836 125.13 103.027C125.13 103.262 125.255 103.467 125.511 103.629C125.768 103.798 126.185 104.018 126.786 104.29C127.474 104.598 128.045 104.892 128.492 105.156C128.939 105.42 129.327 105.787 129.664 106.25C130.001 106.713 130.169 107.293 130.169 107.975C130.169 108.732 129.964 109.414 129.547 110.031C129.129 110.648 128.543 111.132 127.774 111.492C127.005 111.852 126.119 112.036 125.101 112.036C123.841 112.036 122.516 111.801 121.131 111.331L121.673 108.093L122.047 107.865C122.618 108.298 123.226 108.644 123.878 108.901C124.53 109.157 125.072 109.282 125.504 109.282C125.848 109.282 126.097 109.224 126.258 109.106C126.412 108.989 126.493 108.842 126.493 108.666C126.493 108.409 126.361 108.188 126.097 108.005C125.833 107.821 125.401 107.608 124.808 107.344C124.127 107.043 123.57 106.764 123.131 106.5C122.691 106.235 122.311 105.868 121.988 105.398C121.666 104.928 121.505 104.356 121.505 103.68C121.505 102.895 121.717 102.197 122.135 101.566C122.552 100.942 123.146 100.45 123.9 100.09C124.654 99.7303 125.511 99.5468 126.478 99.5468L126.441 99.5394ZM142.247 111.801H138.482L138.146 109.811L138.124 109.752L136.307 109.715L134.784 109.789L134.469 111.801H130.829L134.469 99.7597H138.958L142.24 111.801H142.247ZM137.567 107.036L136.754 103.093H136.527L135.487 107.036L136.527 107.058L137.567 107.036ZM151.036 109.011L150.816 111.801H143.668L143.851 108.269L143.668 99.767H147.455L147.25 107.895L147.286 108.754H150.831L151.036 109.018V109.011ZM160.851 108.827L161.056 109.084L160.829 111.801H152.362L152.545 108.269L152.362 99.767H160.975L161.18 100.024L160.938 102.741L157.987 102.63H156.075L156.039 104.326H157.877L159.811 104.268L160.016 104.525L159.789 107.241L157.635 107.19H155.965L155.951 107.895L155.987 108.937H157.767L160.851 108.827Z" fill="#0E3860" fill-opacity="0.7"/>
<path d="M93.3949 203.248V205.96H86.4109V210.256H91.7629V212.92H86.4109V220H83.0509V203.248H93.3949ZM103.261 220.168C101.693 220.168 100.253 219.8 98.9409 219.064C97.6289 218.328 96.5889 217.312 95.8209 216.016C95.0529 214.704 94.6689 213.224 94.6689 211.576C94.6689 209.944 95.0529 208.48 95.8209 207.184C96.5889 205.872 97.6289 204.848 98.9409 204.112C100.253 203.376 101.693 203.008 103.261 203.008C104.845 203.008 106.285 203.376 107.581 204.112C108.893 204.848 109.925 205.872 110.677 207.184C111.445 208.48 111.829 209.944 111.829 211.576C111.829 213.224 111.445 214.704 110.677 216.016C109.925 217.312 108.893 218.328 107.581 219.064C106.269 219.8 104.829 220.168 103.261 220.168ZM103.261 217.168C104.269 217.168 105.157 216.944 105.925 216.496C106.693 216.032 107.293 215.376 107.725 214.528C108.157 213.68 108.373 212.696 108.373 211.576C108.373 210.456 108.157 209.48 107.725 208.648C107.293 207.8 106.693 207.152 105.925 206.704C105.157 206.256 104.269 206.032 103.261 206.032C102.253 206.032 101.357 206.256 100.573 206.704C99.8049 207.152 99.2049 207.8 98.7729 208.648C98.3409 209.48 98.1249 210.456 98.1249 211.576C98.1249 212.696 98.3409 213.68 98.7729 214.528C99.2049 215.376 99.8049 216.032 100.573 216.496C101.357 216.944 102.253 217.168 103.261 217.168ZM122.676 220L118.98 213.472H117.396V220H114.036V203.248H120.324C121.62 203.248 122.724 203.48 123.636 203.944C124.548 204.392 125.228 205.008 125.676 205.792C126.14 206.56 126.372 207.424 126.372 208.384C126.372 209.488 126.052 210.488 125.412 211.384C124.772 212.264 123.82 212.872 122.556 213.208L126.564 220H122.676ZM117.396 210.952H120.204C121.116 210.952 121.796 210.736 122.244 210.304C122.692 209.856 122.916 209.24 122.916 208.456C122.916 207.688 122.692 207.096 122.244 206.68C121.796 206.248 121.116 206.032 120.204 206.032H117.396V210.952ZM140.329 220.168C139.161 220.168 138.105 219.968 137.161 219.568C136.233 219.168 135.497 218.592 134.953 217.84C134.409 217.088 134.129 216.2 134.113 215.176H137.713C137.761 215.864 138.001 216.408 138.433 216.808C138.881 217.208 139.489 217.408 140.257 217.408C141.041 217.408 141.657 217.224 142.105 216.856C142.553 216.472 142.777 215.976 142.777 215.368C142.777 214.872 142.625 214.464 142.321 214.144C142.017 213.824 141.633 213.576 141.169 213.4C140.721 213.208 140.097 213 139.297 212.776C138.209 212.456 137.321 212.144 136.633 211.84C135.961 211.52 135.377 211.048 134.881 210.424C134.401 209.784 134.161 208.936 134.161 207.88C134.161 206.888 134.409 206.024 134.905 205.288C135.401 204.552 136.097 203.992 136.993 203.608C137.889 203.208 138.913 203.008 140.065 203.008C141.793 203.008 143.193 203.432 144.265 204.28C145.353 205.112 145.953 206.28 146.065 207.784H142.369C142.337 207.208 142.089 206.736 141.625 206.368C141.177 205.984 140.577 205.792 139.825 205.792C139.169 205.792 138.641 205.96 138.241 206.296C137.857 206.632 137.665 207.12 137.665 207.76C137.665 208.208 137.809 208.584 138.097 208.888C138.401 209.176 138.769 209.416 139.201 209.608C139.649 209.784 140.273 209.992 141.073 210.232C142.161 210.552 143.049 210.872 143.737 211.192C144.425 211.512 145.017 211.992 145.513 212.632C146.009 213.272 146.257 214.112 146.257 215.152C146.257 216.048 146.025 216.88 145.561 217.648C145.097 218.416 144.417 219.032 143.521 219.496C142.625 219.944 141.561 220.168 140.329 220.168ZM159.149 216.808H152.477L151.373 220H147.845L153.869 203.224H157.781L163.805 220H160.253L159.149 216.808ZM158.237 214.12L155.813 207.112L153.389 214.12H158.237ZM169.125 217.336H174.645V220H165.765V203.248H169.125V217.336ZM179.848 205.96V210.16H185.488V212.824H179.848V217.264H186.208V220H176.488V203.224H186.208V205.96H179.848Z" fill="#0E3860"/>
<path d="M0 260H268V302C268 306.418 264.418 310 260 310H7.99999C3.58172 310 0 306.418 0 302V260Z" fill="#567490"/>
<path d="M35.5 244L49.7894 260.5H21.2106L35.5 244Z" fill="#567490"/>
<path d="M115.945 288.96V287.24L122.665 277.6H125.425V286.98H127.285V288.96H125.425V292H123.185V288.96H115.945ZM123.285 279.92L118.565 286.98H123.285V279.92ZM138.282 279.38H131.582V283.36C131.862 282.987 132.275 282.673 132.822 282.42C133.382 282.167 133.975 282.04 134.602 282.04C135.722 282.04 136.628 282.28 137.322 282.76C138.028 283.24 138.528 283.847 138.822 284.58C139.128 285.313 139.282 286.087 139.282 286.9C139.282 287.887 139.088 288.767 138.702 289.54C138.328 290.3 137.762 290.9 137.002 291.34C136.255 291.78 135.335 292 134.242 292C132.788 292 131.622 291.64 130.742 290.92C129.862 290.2 129.335 289.247 129.162 288.06H131.382C131.528 288.687 131.855 289.187 132.362 289.56C132.868 289.92 133.502 290.1 134.262 290.1C135.208 290.1 135.915 289.813 136.382 289.24C136.862 288.667 137.102 287.907 137.102 286.96C137.102 286 136.862 285.267 136.382 284.76C135.902 284.24 135.195 283.98 134.262 283.98C133.608 283.98 133.055 284.147 132.602 284.48C132.162 284.8 131.842 285.24 131.642 285.8H129.482V277.38H138.282V279.38ZM141.363 284.52C141.363 282.213 141.749 280.413 142.523 279.12C143.309 277.813 144.656 277.16 146.563 277.16C148.469 277.16 149.809 277.813 150.583 279.12C151.369 280.413 151.763 282.213 151.763 284.52C151.763 286.853 151.369 288.68 150.583 290C149.809 291.307 148.469 291.96 146.563 291.96C144.656 291.96 143.309 291.307 142.523 290C141.749 288.68 141.363 286.853 141.363 284.52ZM149.523 284.52C149.523 283.44 149.449 282.527 149.303 281.78C149.169 281.033 148.889 280.427 148.463 279.96C148.036 279.48 147.403 279.24 146.563 279.24C145.723 279.24 145.089 279.48 144.663 279.96C144.236 280.427 143.949 281.033 143.803 281.78C143.669 282.527 143.603 283.44 143.603 284.52C143.603 285.64 143.669 286.58 143.803 287.34C143.936 288.1 144.216 288.713 144.643 289.18C145.083 289.647 145.723 289.88 146.563 289.88C147.403 289.88 148.036 289.647 148.463 289.18C148.903 288.713 149.189 288.1 149.323 287.34C149.456 286.58 149.523 285.64 149.523 284.52Z" fill="white"/>
</svg>
