<svg width="268" height="310" viewBox="0 0 268 310" fill="none" xmlns="http://www.w3.org/2000/svg">
<rect width="268" height="310" rx="8" fill="white"/>
<path d="M91.3675 203.248V205.96H84.3835V210.256H89.7355V212.92H84.3835V220H81.0235V203.248H91.3675ZM101.234 220.168C99.6656 220.168 98.2256 219.8 96.9136 219.064C95.6016 218.328 94.5616 217.312 93.7936 216.016C93.0256 214.704 92.6416 213.224 92.6416 211.576C92.6416 209.944 93.0256 208.48 93.7936 207.184C94.5616 205.872 95.6016 204.848 96.9136 204.112C98.2256 203.376 99.6656 203.008 101.234 203.008C102.818 203.008 104.258 203.376 105.554 204.112C106.866 204.848 107.898 205.872 108.65 207.184C109.418 208.48 109.802 209.944 109.802 211.576C109.802 213.224 109.418 214.704 108.65 216.016C107.898 217.312 106.866 218.328 105.554 219.064C104.242 219.8 102.802 220.168 101.234 220.168ZM101.234 217.168C102.242 217.168 103.13 216.944 103.898 216.496C104.666 216.032 105.266 215.376 105.698 214.528C106.13 213.68 106.346 212.696 106.346 211.576C106.346 210.456 106.13 209.48 105.698 208.648C105.266 207.8 104.666 207.152 103.898 206.704C103.13 206.256 102.242 206.032 101.234 206.032C100.226 206.032 99.3296 206.256 98.5456 206.704C97.7776 207.152 97.1776 207.8 96.7456 208.648C96.3136 209.48 96.0976 210.456 96.0976 211.576C96.0976 212.696 96.3136 213.68 96.7456 214.528C97.1776 215.376 97.7776 216.032 98.5456 216.496C99.3296 216.944 100.226 217.168 101.234 217.168ZM120.649 220L116.953 213.472H115.369V220H112.009V203.248H118.297C119.593 203.248 120.697 203.48 121.609 203.944C122.521 204.392 123.201 205.008 123.649 205.792C124.113 206.56 124.345 207.424 124.345 208.384C124.345 209.488 124.025 210.488 123.385 211.384C122.745 212.264 121.793 212.872 120.529 213.208L124.537 220H120.649ZM115.369 210.952H118.177C119.089 210.952 119.769 210.736 120.217 210.304C120.665 209.856 120.889 209.24 120.889 208.456C120.889 207.688 120.665 207.096 120.217 206.68C119.769 206.248 119.089 206.032 118.177 206.032H115.369V210.952ZM141.158 220L137.462 213.472H135.878V220H132.518V203.248H138.806C140.102 203.248 141.206 203.48 142.118 203.944C143.03 204.392 143.71 205.008 144.158 205.792C144.622 206.56 144.854 207.424 144.854 208.384C144.854 209.488 144.534 210.488 143.894 211.384C143.254 212.264 142.302 212.872 141.038 213.208L145.046 220H141.158ZM135.878 210.952H138.686C139.598 210.952 140.278 210.736 140.726 210.304C141.174 209.856 141.398 209.24 141.398 208.456C141.398 207.688 141.174 207.096 140.726 206.68C140.278 206.248 139.598 206.032 138.686 206.032H135.878V210.952ZM150.96 205.96V210.16H156.6V212.824H150.96V217.264H157.32V220H147.6V203.224H157.32V205.96H150.96ZM174.409 220H171.049L163.441 208.504V220H160.081V203.224H163.441L171.049 214.744V203.224H174.409V220ZM188.837 203.248V205.96H184.373V220H181.013V205.96H176.549V203.248H188.837Z" fill="#0E3860"/>
<path d="M97.1305 53.9087L100.874 50.2891C101.276 49.9 101.914 49.9073 102.309 50.2891L106.103 53.9528C106.316 54.1583 106.418 54.43 106.418 54.7017V58.2038H174.407L177.967 58.2258C178.539 58.2258 179 58.6957 179 59.2684C179 59.4299 178.963 59.5841 178.897 59.7163L175.242 67.3006C175.067 67.675 174.693 67.8879 174.305 67.8879H157.817V70.3695H152.777V67.8879H122.921V70.3695H117.882V67.8879H106.426V127.96C106.426 128.797 106.081 129.554 105.532 130.104C104.975 130.655 104.214 131 103.386 131H99.7968C98.9617 131 98.2 130.655 97.6506 130.104L97.5847 130.031C97.0719 129.488 96.757 128.753 96.757 127.953V67.9026H92.0398C91.2048 67.9026 90.443 67.5575 89.8936 67.0069C89.3443 66.4562 89 65.6927 89 64.8557V61.2581C89 60.4211 89.3443 59.6575 89.8936 59.1069C90.443 58.5562 91.2048 58.2111 92.0398 58.2111H96.757V54.709C96.757 54.3859 96.9035 54.0996 97.1305 53.9087ZM129.228 85.0536L129.169 87.2122H130.429L132.583 87.1534L132.788 87.4104L132.561 90.1269L130.165 90.0682H129.089V90.3105L129.235 94.2164H125.507L125.69 90.6849L125.507 82.1829H133.528L133.733 82.4398L133.491 85.1564L130.517 85.0463H129.221L129.228 85.0536ZM140.127 81.9626C141.871 81.9626 143.218 82.4839 144.178 83.5191C145.13 84.5543 145.606 86.0154 145.606 87.9023C145.606 89.9874 145.086 91.5953 144.039 92.7407C142.991 93.8787 141.512 94.4514 139.592 94.4514C137.849 94.4514 136.501 93.9301 135.549 92.8802C134.597 91.8303 134.121 90.3472 134.121 88.4236C134.121 86.3605 134.641 84.7746 135.688 83.6513C136.736 82.5279 138.215 81.9699 140.135 81.9699L140.127 81.9626ZM139.79 84.9435C139.307 84.9435 138.941 85.0242 138.692 85.1931C138.442 85.362 138.267 85.6556 138.164 86.0741C138.062 86.5 138.01 87.1094 138.01 87.917C138.01 88.9449 138.062 89.7305 138.179 90.2591C138.289 90.7951 138.479 91.1622 138.743 91.3751C139.007 91.588 139.402 91.6908 139.922 91.6908C140.406 91.6908 140.772 91.61 141.021 91.4412C141.27 91.2723 141.446 90.9786 141.548 90.5454C141.651 90.1196 141.709 89.5029 141.709 88.6952C141.709 87.682 141.651 86.9038 141.541 86.3678C141.431 85.8318 141.241 85.4647 140.977 85.2518C140.713 85.0389 140.318 84.9361 139.798 84.9361L139.79 84.9435ZM155.202 89.4808C156.095 90.8685 156.982 92.1607 157.875 93.3501L157.817 93.7612C156.557 94.143 155.312 94.3706 154.081 94.4514L153.729 94.1577L153.502 93.6952C153.4 93.4969 153.202 93.0784 152.909 92.4397C152.609 91.8009 152.352 91.1989 152.125 90.6409H150.88L151.012 94.2311H147.276L147.459 90.6996L147.276 82.1975L152.975 82.1755C154.323 82.1755 155.363 82.4912 156.095 83.1373C156.828 83.7761 157.194 84.6938 157.194 85.8979C157.194 86.6028 157.018 87.2709 156.667 87.8876C156.315 88.5117 155.824 89.0403 155.194 89.4882L155.202 89.4808ZM153.29 86.265C153.29 85.7731 153.165 85.3987 152.909 85.1564C152.653 84.9141 152.242 84.7819 151.678 84.7599L151.012 84.8113L150.939 87.917L152.294 87.9904C152.638 87.8289 152.894 87.6086 153.056 87.337C153.217 87.0653 153.297 86.7056 153.297 86.2577L153.29 86.265ZM127.558 107.05C128.451 108.438 129.338 109.73 130.231 110.92L130.173 111.331C128.913 111.712 127.668 111.94 126.437 112.021L126.086 111.72L125.858 111.257C125.763 111.059 125.558 110.641 125.265 110.002C124.965 109.363 124.708 108.761 124.489 108.21H123.244L123.375 111.801H119.647L119.83 108.269L119.647 99.767L125.346 99.7523C126.693 99.7523 127.734 100.068 128.466 100.714C129.199 101.353 129.565 102.271 129.565 103.475C129.565 104.18 129.389 104.848 129.037 105.464C128.686 106.081 128.195 106.617 127.565 107.065L127.558 107.05ZM125.646 103.835C125.646 103.335 125.522 102.968 125.265 102.726C125.009 102.484 124.599 102.351 124.027 102.329L123.361 102.381L123.287 105.486L124.643 105.56C124.987 105.398 125.243 105.178 125.404 104.906C125.565 104.635 125.646 104.275 125.646 103.827V103.835ZM140.061 108.82L140.266 109.077L140.039 111.793H131.572L131.755 108.262L131.572 99.7597H140.186L140.391 100.017L140.149 102.733L137.197 102.623H135.286L135.249 104.319H137.087L139.021 104.26L139.226 104.517L138.999 107.234L136.846 107.182H135.176L135.161 107.887L135.198 108.93H136.978L140.061 108.82ZM152.587 107.873L152.733 111.801H148.69L145.313 105.362H145.086L145.064 107.447L145.211 111.801H141.834L142.017 108.269L141.834 99.767H145.877L149.254 106.206H149.474L149.364 99.8992L152.777 99.6936L152.572 107.88L152.587 107.873ZM163.64 100.017L163.435 102.733L160.981 102.623H160.761L160.666 107.887L160.812 111.793H157.099L157.282 108.262L157.187 102.623H156.945L154.477 102.733L154.257 102.476L154.462 99.7597H163.427L163.633 100.017H163.64ZM116.768 72.7704H165.544C167.083 72.7704 168.489 73.4091 169.507 74.4223C170.533 75.4502 171.162 76.8526 171.162 78.4017V115.589C171.162 117.131 170.533 118.533 169.514 119.554H169.507C168.489 120.582 167.083 121.213 165.552 121.213H116.768C115.23 121.213 113.824 120.582 112.806 119.561C111.787 118.541 111.15 117.131 111.15 115.589V78.3944C111.15 76.8452 111.78 75.4355 112.798 74.415C113.816 73.3945 115.223 72.763 116.768 72.763V72.7704ZM165.552 75.553H116.768C115.992 75.553 115.274 75.8761 114.761 76.39C114.249 76.9039 113.926 77.6161 113.926 78.4017V115.589C113.926 116.367 114.249 117.087 114.761 117.601C115.274 118.115 115.992 118.438 116.768 118.438H165.552C166.335 118.438 167.039 118.115 167.551 117.601C168.071 117.08 168.386 116.367 168.386 115.589V78.3944C168.386 77.6161 168.064 76.8966 167.551 76.3827C167.039 75.8687 166.328 75.5457 165.544 75.5457L165.552 75.553Z" fill="#0E3860" fill-opacity="0.7"/>
<path d="M0 260H268V302C268 306.418 264.418 310 260 310H7.99999C3.58172 310 0 306.418 0 302V260Z" fill="#567490"/>
<path d="M35.5 244L49.7894 260.5H21.2106L35.5 244Z" fill="#567490"/>
<path d="M124.104 280.8C123.957 280.187 123.691 279.727 123.304 279.42C122.917 279.113 122.377 278.96 121.684 278.96C120.631 278.96 119.844 279.367 119.324 280.18C118.804 280.98 118.531 282.313 118.504 284.18C118.851 283.593 119.357 283.14 120.024 282.82C120.691 282.5 121.411 282.34 122.184 282.34C123.064 282.34 123.837 282.533 124.504 282.92C125.184 283.293 125.711 283.84 126.084 284.56C126.471 285.28 126.664 286.14 126.664 287.14C126.664 288.073 126.477 288.907 126.104 289.64C125.744 290.373 125.204 290.953 124.484 291.38C123.764 291.793 122.897 292 121.884 292C120.511 292 119.431 291.7 118.644 291.1C117.871 290.487 117.324 289.627 117.004 288.52C116.697 287.413 116.544 286.033 116.544 284.38C116.544 279.5 118.264 277.06 121.704 277.06C123.037 277.06 124.084 277.42 124.844 278.14C125.617 278.86 126.071 279.747 126.204 280.8H124.104ZM121.684 284.26C120.871 284.26 120.177 284.507 119.604 285C119.044 285.48 118.764 286.18 118.764 287.1C118.764 288.02 119.024 288.753 119.544 289.3C120.077 289.833 120.817 290.1 121.764 290.1C122.604 290.1 123.264 289.84 123.744 289.32C124.237 288.8 124.484 288.107 124.484 287.24C124.484 286.333 124.244 285.613 123.764 285.08C123.297 284.533 122.604 284.26 121.684 284.26ZM128.804 284.52C128.804 282.213 129.19 280.413 129.964 279.12C130.75 277.813 132.097 277.16 134.004 277.16C135.91 277.16 137.25 277.813 138.024 279.12C138.81 280.413 139.204 282.213 139.204 284.52C139.204 286.853 138.81 288.68 138.024 290C137.25 291.307 135.91 291.96 134.004 291.96C132.097 291.96 130.75 291.307 129.964 290C129.19 288.68 128.804 286.853 128.804 284.52ZM136.964 284.52C136.964 283.44 136.89 282.527 136.744 281.78C136.61 281.033 136.33 280.427 135.904 279.96C135.477 279.48 134.844 279.24 134.004 279.24C133.164 279.24 132.53 279.48 132.104 279.96C131.677 280.427 131.39 281.033 131.244 281.78C131.11 282.527 131.044 283.44 131.044 284.52C131.044 285.64 131.11 286.58 131.244 287.34C131.377 288.1 131.657 288.713 132.084 289.18C132.524 289.647 133.164 289.88 134.004 289.88C134.844 289.88 135.477 289.647 135.904 289.18C136.344 288.713 136.63 288.1 136.764 287.34C136.897 286.58 136.964 285.64 136.964 284.52ZM141.324 284.52C141.324 282.213 141.71 280.413 142.484 279.12C143.27 277.813 144.617 277.16 146.524 277.16C148.43 277.16 149.77 277.813 150.544 279.12C151.33 280.413 151.724 282.213 151.724 284.52C151.724 286.853 151.33 288.68 150.544 290C149.77 291.307 148.43 291.96 146.524 291.96C144.617 291.96 143.27 291.307 142.484 290C141.71 288.68 141.324 286.853 141.324 284.52ZM149.484 284.52C149.484 283.44 149.41 282.527 149.264 281.78C149.13 281.033 148.85 280.427 148.424 279.96C147.997 279.48 147.364 279.24 146.524 279.24C145.684 279.24 145.05 279.48 144.624 279.96C144.197 280.427 143.91 281.033 143.764 281.78C143.63 282.527 143.564 283.44 143.564 284.52C143.564 285.64 143.63 286.58 143.764 287.34C143.897 288.1 144.177 288.713 144.604 289.18C145.044 289.647 145.684 289.88 146.524 289.88C147.364 289.88 147.997 289.647 148.424 289.18C148.864 288.713 149.15 288.1 149.284 287.34C149.417 286.58 149.484 285.64 149.484 284.52Z" fill="white"/>
</svg>
