<svg width="118" height="136" viewBox="0 0 118 136" fill="none" xmlns="http://www.w3.org/2000/svg">
<path d="M2.19748 2.65615C2.20815 1.55164 3.11219 0.6649 4.2167 0.675569L115.887 1.75432C116.991 1.76499 117.878 2.66903 117.867 3.77355L116.612 133.767C116.601 134.872 115.697 135.759 114.592 135.748L2.9223 134.669C1.81778 134.659 0.931044 133.755 0.941714 132.65L2.19748 2.65615Z" fill="white"/>
<path d="M36.7258 88.6168L36.7127 89.9727L33.2209 89.939L33.2001 92.0869L35.876 92.1127L35.8631 93.4447L33.1872 93.4188L33.153 96.9586L31.4731 96.9424L31.554 88.5668L36.7258 88.6168ZM41.5988 97.1242C40.8149 97.1167 40.0967 96.9257 39.4443 96.5514C38.7919 96.1771 38.2768 95.6641 37.8991 95.0124C37.5214 94.3527 37.3366 93.6109 37.3445 92.7869C37.3524 91.971 37.5515 91.2409 37.9417 90.5966C38.332 89.9443 38.857 89.4374 39.5165 89.0757C40.176 88.7141 40.8978 88.5371 41.6817 88.5446C42.4737 88.5523 43.1919 88.7432 43.8363 89.1175C44.4887 89.4918 44.9997 90.0088 45.3694 90.6684C45.7471 91.32 45.932 92.0539 45.9241 92.8698C45.9162 93.6938 45.717 94.4319 45.3267 95.0842C44.9445 95.7285 44.4236 96.2315 43.7641 96.5931C43.1046 96.9548 42.3828 97.1318 41.5988 97.1242ZM41.6133 95.6243C42.1173 95.6292 42.5624 95.5215 42.9485 95.3012C43.3347 95.0729 43.6379 94.7478 43.858 94.3259C44.0781 93.904 44.1908 93.4131 44.1962 92.8531C44.2016 92.2932 44.0984 91.8041 43.8864 91.3861C43.6745 90.96 43.3776 90.6331 42.9958 90.4054C42.614 90.1777 42.1711 90.0614 41.6671 90.0566C41.1631 90.0517 40.7141 90.1594 40.3199 90.3796C39.9338 90.5999 39.6307 90.9209 39.4106 91.3428C39.1906 91.7567 39.0779 92.2437 39.0725 92.8036C39.0671 93.3636 39.1703 93.8566 39.3822 94.2827C39.5941 94.7088 39.8909 95.0396 40.2726 95.2753C40.6625 95.5031 41.1094 95.6194 41.6133 95.6243ZM51.3288 97.1342L49.5124 93.8525L48.7205 93.8449L48.6889 97.1087L47.009 97.0925L47.0899 88.7169L50.2338 88.7473C50.8817 88.7535 51.4326 88.8748 51.8863 89.1112C52.3401 89.3396 52.6771 89.6509 52.8974 90.0451C53.1256 90.4313 53.2375 90.8644 53.2328 91.3444C53.2275 91.8963 53.0627 92.3948 52.7384 92.8396C52.4141 93.2765 51.9352 93.5759 51.3016 93.7378L53.2727 97.153L51.3288 97.1342ZM48.7326 92.5849L50.1366 92.5985C50.5925 92.6029 50.9336 92.4982 51.1596 92.2844C51.3858 92.0625 51.5008 91.7556 51.5045 91.3637C51.5083 90.9797 51.3991 90.6826 51.1771 90.4725C50.9552 90.2543 50.6163 90.143 50.1603 90.1386L48.7564 90.1251L48.7326 92.5849ZM61.6266 97.2337L59.8103 93.952L59.0183 93.9444L58.9868 97.2082L57.3068 97.192L57.3877 88.8164L60.5316 88.8467C61.1796 88.853 61.7304 88.9743 62.1842 89.2107C62.638 89.4391 62.975 89.7504 63.1952 90.1445C63.4235 90.5308 63.5353 90.9639 63.5307 91.4438C63.5253 91.9958 63.3605 92.4942 63.0362 92.9391C62.712 93.376 62.233 93.6754 61.5994 93.8373L63.5705 97.2525L61.6266 97.2337ZM59.0305 92.6844L60.4344 92.698C60.8904 92.7024 61.2314 92.5977 61.4575 92.3838C61.6836 92.162 61.7986 91.8551 61.8024 91.4631C61.8061 91.0792 61.697 90.7821 61.475 90.5719C61.2531 90.3538 60.9141 90.2425 60.4582 90.2381L59.0542 90.2245L59.0305 92.6844ZM66.6174 90.2616L66.5972 92.3615L69.417 92.3887L69.4042 93.7207L66.5843 93.6934L66.5628 95.9133L69.7427 95.944L69.7295 97.312L64.8697 97.265L64.9507 88.8774L69.8105 88.9244L69.7973 90.2923L66.6174 90.2616ZM78.2955 97.3947L76.6156 97.3785L72.8673 91.594L72.8118 97.3418L71.1319 97.3255L71.2129 88.9379L72.8928 88.9541L76.641 94.7506L76.6966 88.9909L78.3765 89.0071L78.2955 97.3947ZM85.612 89.089L85.5989 90.445L83.367 90.4234L83.2992 97.4431L81.6193 97.4268L81.6871 90.4072L79.4552 90.3856L79.4683 89.0297L85.612 89.089Z" fill="#0E3860"/>
<path d="M43.9919 24.4771L45.6261 22.9574C45.802 22.794 46.0777 22.7998 46.2472 22.9634L47.8738 24.5333C47.9649 24.6214 48.0081 24.737 48.007 24.8522L47.9927 26.3377L77.408 26.6219L78.948 26.6461C79.1952 26.6485 79.393 26.8497 79.3906 27.0926C79.3899 27.1612 79.3735 27.2264 79.3444 27.2822L77.732 30.4839C77.6544 30.642 77.4919 30.7307 77.3239 30.7291L70.1903 30.6602L70.1802 31.7128L67.9999 31.6918L68.01 30.6391L55.0929 30.5144L55.0827 31.567L52.9024 31.5459L52.9126 30.4933L47.9562 30.4454L47.71 55.9261C47.7066 56.2811 47.5545 56.6004 47.3146 56.8317C47.0715 57.0629 46.7405 57.2061 46.3824 57.2027L44.8295 57.1877C44.4683 57.1842 44.1401 57.0346 43.9047 56.7987L43.8765 56.7673C43.6568 56.5347 43.5236 56.222 43.5269 55.8825L43.7729 30.4112L41.732 30.3915C41.3708 30.388 41.0426 30.2385 40.8072 30.0026C40.5718 29.7668 40.4259 29.4414 40.4294 29.0864L40.4441 27.5604C40.4475 27.2054 40.5996 26.883 40.8395 26.6517C41.0795 26.4204 41.4105 26.2773 41.7718 26.2807L43.8126 26.3005L43.827 24.815C43.8283 24.6779 43.8929 24.5571 43.9919 24.4771ZM57.7511 37.8218L57.7169 38.7371L58.262 38.7424L59.194 38.7265L59.2816 38.8363L59.1723 39.9877L58.1362 39.9527L57.6704 39.9482L57.6694 40.051L57.7168 41.7084L56.1037 41.6928L56.1974 40.1956L56.153 36.5886L59.6231 36.6221L59.7108 36.732L59.5951 37.8832L58.3089 37.8241L57.748 37.8187L57.7511 37.8218ZM62.4794 36.5563C63.2336 36.5635 63.8146 36.7903 64.2255 37.2334C64.6332 37.6765 64.8332 38.2982 64.8255 39.0986C64.817 39.983 64.5854 40.6629 64.1275 41.1443C63.6696 41.6226 63.0272 41.8594 62.1969 41.8513C61.4426 41.844 60.8616 41.6173 60.454 41.168C60.0463 40.7187 59.8464 40.0876 59.8543 39.2717C59.8627 38.3966 60.0942 37.7261 60.552 37.254C61.0098 36.7819 61.6522 36.5514 62.4825 36.5594L62.4794 36.5563ZM62.3214 37.8192C62.1122 37.8172 61.9534 37.8499 61.845 37.9205C61.7366 37.9911 61.6593 38.1149 61.6132 38.292C61.5671 38.4722 61.5424 38.7305 61.5391 39.0731C61.5349 39.509 61.5539 39.8425 61.6024 40.0672C61.6477 40.295 61.7286 40.4515 61.8418 40.5429C61.9551 40.6343 62.1258 40.6796 62.3508 40.6818C62.5599 40.6838 62.7187 40.6511 62.8272 40.5805C62.9356 40.5099 63.0129 40.386 63.059 40.2027C63.1051 40.0225 63.133 39.7612 63.1363 39.4186C63.1405 38.9889 63.1183 38.6585 63.073 38.4307C63.0276 38.2029 62.9467 38.0464 62.8335 37.955C62.7203 37.8636 62.5496 37.8183 62.3246 37.8161L62.3214 37.8192ZM68.9705 39.8082C69.3514 40.4006 69.7296 40.9524 70.1114 41.4606L70.0843 41.6348C69.5377 41.7914 68.998 41.8828 68.4653 41.9119L68.3144 41.7858L68.218 41.5887C68.1745 41.5042 68.0906 41.3259 67.9665 41.0537C67.8392 40.7815 67.7307 40.5251 67.6347 40.2874L67.096 40.2822L67.1383 41.8056L65.5221 41.79L65.6158 40.2928L65.5714 36.6858L68.037 36.7003C68.6202 36.7059 69.0689 36.8442 69.3831 37.1213C69.6974 37.3953 69.8521 37.7861 69.8472 38.2968C69.8443 38.5958 69.7655 38.8784 69.6109 39.1386C69.4562 39.4018 69.2417 39.624 68.9673 39.8113L68.9705 39.8082ZM68.1566 38.4362C68.1586 38.2276 68.1062 38.0682 67.9963 37.9644C67.8864 37.8605 67.7095 37.8028 67.4655 37.7911L67.1769 37.8101L67.1325 39.1271L67.7185 39.1639C67.8681 39.0968 67.9799 39.0045 68.0508 38.8899C68.1216 38.7754 68.1579 38.6231 68.1598 38.4331L68.1566 38.4362ZM56.9385 47.1451C57.3194 47.7374 57.6976 48.2892 58.0793 48.7974L58.0523 48.9716C57.5056 49.1283 56.966 49.2196 56.4332 49.2487L56.2823 49.1196L56.186 48.9224C56.1456 48.8379 56.0586 48.6596 55.9344 48.3874C55.8071 48.1152 55.6987 47.8588 55.6059 47.6243L55.0671 47.6191L55.1094 49.1425L53.4964 49.1269L53.5901 47.6297L53.5457 44.0227L56.0113 44.0403C56.5944 44.0459 57.0431 44.1842 57.3574 44.4613C57.6717 44.7353 57.8264 45.1261 57.8214 45.6368C57.8185 45.9358 57.7397 46.2184 57.5851 46.4786C57.4305 46.7387 57.2159 46.964 56.9416 47.1513L56.9385 47.1451ZM56.1245 45.773C56.1265 45.5613 56.0742 45.405 55.9643 45.3012C55.8543 45.1973 55.6774 45.1396 55.4303 45.1278L55.1417 45.1469L55.0973 46.4639L55.6833 46.5007C55.8329 46.4336 55.9447 46.3413 56.0155 46.2267C56.0864 46.1121 56.1227 45.9599 56.1245 45.7699L56.1245 45.773ZM62.3408 47.9478L62.4285 48.0577L62.3191 49.209L58.6557 49.1736L58.7494 47.6764L58.705 44.0694L62.4318 44.1054L62.5195 44.2153L62.4038 45.3665L61.1271 45.3075L60.3 45.2995L60.2772 46.0187L61.0726 46.0264L61.9095 46.0096L61.9972 46.1194L61.8878 47.2707L60.9563 47.2399L60.2337 47.2329L60.2245 47.5319L60.2361 47.9742L61.0062 47.9817L62.3408 47.9478ZM67.7638 47.5985L67.8111 49.2652L66.0618 49.2483L64.6272 46.503L64.529 46.502L64.5109 47.3864L64.5564 49.2337L63.0955 49.2196L63.1892 47.7224L63.1448 44.1154L64.8941 44.1323L66.3287 46.8776L66.4238 46.8785L66.4021 44.2029L67.8797 44.13L67.7574 47.6015L67.7638 47.5985ZM72.5781 44.3124L72.4782 45.4638L71.4171 45.4069L71.322 45.4059L71.2592 47.6385L71.3066 49.2958L69.6999 49.2803L69.7936 47.7831L69.7755 45.391L69.6709 45.39L68.6025 45.4264L68.5084 45.3165L68.6083 44.1651L72.4873 44.2025L72.5749 44.3124L72.5781 44.3124ZM52.4109 32.5596L73.5137 32.7635C74.1792 32.7699 74.7851 33.0467 75.2214 33.4807C75.6609 33.921 75.9277 34.5185 75.9213 35.1756L75.7689 50.9492C75.7626 51.6031 75.4843 52.1953 75.0396 52.6239L75.0365 52.6239C74.5918 53.0557 73.9807 53.3176 73.3184 53.3112L52.2124 53.1073C51.5469 53.1009 50.941 52.8272 50.5047 52.39C50.0684 51.9529 49.7984 51.3523 49.8047 50.6983L49.9572 34.9216C49.9635 34.2645 50.2418 33.6692 50.6865 33.2406C51.1312 32.812 51.7422 32.55 52.4109 32.5565L52.4109 32.5596ZM73.5055 33.9438L52.3995 33.7399C52.0636 33.7367 51.7517 33.8707 51.5277 34.0865C51.3038 34.3024 51.1614 34.6031 51.1582 34.9364L51.0058 50.7099C51.0026 51.04 51.1391 51.3466 51.3589 51.5667C51.5786 51.7869 51.8878 51.9269 52.2238 51.9301L73.3298 52.134C73.6688 52.1373 73.9744 52.0032 74.1983 51.7874C74.4255 51.5684 74.5647 51.2677 74.5679 50.9375L74.7203 35.1609C74.7234 34.8307 74.587 34.5242 74.3672 34.3041C74.1475 34.0839 73.8414 33.9439 73.5023 33.9407L73.5055 33.9438Z" fill="#0E3860" fill-opacity="0.7"/>
<path d="M1.13281 112.895L116.803 114.012L116.612 133.772C116.601 134.876 115.697 135.763 114.593 135.752L2.92251 134.674C1.818 134.663 0.93126 133.759 0.94193 132.654L1.13281 112.895Z" fill="#0E3860" fill-opacity="0.7"/>
<path d="M16.2078 106.166L22.5882 113.099L9.69461 112.975L16.2078 106.166Z" fill="#0E3860" fill-opacity="0.7"/>
<path d="M53.0713 122.554C53.0009 122.246 52.8698 122.015 52.678 121.86C52.4861 121.705 52.2169 121.626 51.8702 121.622C51.3436 121.617 50.9483 121.817 50.6844 122.221C50.4205 122.618 50.2774 123.284 50.2551 124.217C50.4312 123.925 50.6867 123.701 51.0216 123.544C51.3565 123.387 51.7172 123.311 52.1039 123.315C52.5439 123.319 52.9296 123.419 53.261 123.616C53.5992 123.806 53.8599 124.082 54.0431 124.443C54.2329 124.805 54.3254 125.236 54.3206 125.736C54.3161 126.203 54.2187 126.618 54.0285 126.983C53.845 127.348 53.5722 127.636 53.2102 127.845C52.8482 128.049 52.4139 128.148 51.9072 128.143C51.2206 128.136 50.6821 127.981 50.2916 127.677C49.908 127.367 49.6388 126.934 49.4841 126.379C49.3362 125.825 49.2662 125.134 49.2742 124.307C49.2977 121.867 50.1695 120.656 51.8894 120.672C52.556 120.679 53.0776 120.864 53.4541 121.227C53.8373 121.591 54.0596 122.037 54.1212 122.564L53.0713 122.554ZM51.8446 124.272C51.438 124.268 51.0901 124.388 50.8011 124.632C50.5188 124.869 50.3754 125.218 50.371 125.678C50.3665 126.138 50.493 126.506 50.7503 126.782C51.0144 127.051 51.3831 127.188 51.8564 127.192C52.2764 127.196 52.6076 127.07 52.8501 126.812C53.0993 126.554 53.226 126.209 53.2302 125.776C53.2345 125.322 53.118 124.961 52.8806 124.692C52.6499 124.417 52.3046 124.277 51.8446 124.272ZM55.4249 124.437C55.4361 123.283 55.6381 122.385 56.031 121.742C56.4306 121.093 57.1071 120.773 58.0604 120.782C59.0136 120.791 59.6805 121.124 60.0608 121.781C60.4479 122.432 60.6358 123.334 60.6247 124.487C60.6134 125.654 60.4079 126.565 60.0082 127.221C59.6153 127.871 58.9422 128.191 57.9889 128.182C57.0356 128.172 56.3654 127.839 55.9784 127.182C55.5982 126.518 55.4137 125.603 55.4249 124.437ZM59.5047 124.476C59.51 123.936 59.4777 123.479 59.408 123.105C59.3449 122.731 59.2079 122.426 58.9968 122.191C58.7858 121.949 58.4703 121.826 58.0503 121.822C57.6303 121.818 57.3125 121.935 57.0969 122.173C56.8813 122.404 56.735 122.706 56.6581 123.079C56.5878 123.451 56.5501 123.908 56.5449 124.447C56.5395 125.007 56.5683 125.478 56.6313 125.858C56.6942 126.239 56.8313 126.547 57.0423 126.782C57.2601 127.018 57.5789 127.138 57.9989 127.142C58.4189 127.146 58.7367 127.032 58.9523 126.801C59.1745 126.57 59.3208 126.264 59.3911 125.885C59.4615 125.506 59.4993 125.036 59.5047 124.476ZM61.7066 124.497C61.7177 123.344 61.9198 122.446 62.3127 121.803C62.7123 121.154 63.3887 120.833 64.342 120.843C65.2953 120.852 65.9621 121.185 66.3425 121.842C66.7295 122.492 66.9175 123.394 66.9064 124.548C66.8951 125.714 66.6896 126.626 66.2899 127.282C65.897 127.931 65.2238 128.252 64.2706 128.242C63.3173 128.233 62.6471 127.9 62.2601 127.243C61.8798 126.579 61.6953 125.664 61.7066 124.497ZM65.7864 124.537C65.7916 123.997 65.7594 123.54 65.6897 123.166C65.6266 122.792 65.4895 122.487 65.2785 122.252C65.0675 122.01 64.752 121.887 64.332 121.883C63.912 121.879 63.5942 121.995 63.3786 122.233C63.163 122.465 63.0167 122.767 62.9398 123.139C62.8695 123.512 62.8318 123.968 62.8266 124.508C62.8211 125.068 62.8499 125.538 62.9129 125.919C62.9759 126.3 63.113 126.608 63.324 126.843C63.5418 127.079 63.8606 127.198 64.2806 127.202C64.7006 127.206 65.0184 127.093 65.2339 126.862C65.4562 126.63 65.6025 126.325 65.6728 125.946C65.7431 125.566 65.781 125.097 65.7864 124.537Z" fill="white"/>
</svg>
