<svg width="268" height="310" viewBox="0 0 268 310" fill="none" xmlns="http://www.w3.org/2000/svg">
<rect width="268" height="310" rx="8" fill="white"/>
<path d="M157.695 58.4258L169.419 58.9037V74.7378L157.695 67.0017V58.4258Z" fill="#0E3860" fill-opacity="0.7"/>
<path d="M141.649 102.018C142.585 102.018 143.35 101.253 143.35 100.317C143.35 99.3819 142.585 98.6172 141.649 98.6172C140.714 98.6172 139.949 99.3819 139.949 100.317C139.949 101.253 140.714 102.018 141.649 102.018Z" fill="#0E3860" fill-opacity="0.7"/>
<path d="M125.788 109.949C124.853 109.949 124.088 110.714 124.088 111.649C124.088 112.585 124.853 113.35 125.788 113.35C126.723 113.35 127.488 112.585 127.488 111.649C127.488 110.714 126.723 109.949 125.788 109.949Z" fill="#0E3860" fill-opacity="0.7"/>
<path d="M134.173 88.668C122.483 88.668 113.006 98.1452 113.006 109.835C113.006 121.524 122.483 131.001 134.173 131.001C145.862 131.001 155.339 121.524 155.339 109.835C155.339 98.1452 145.862 88.668 134.173 88.668ZM142.557 123.771C140.12 123.771 138.14 121.79 138.14 119.353C138.14 119.305 138.14 119.264 138.146 119.216L129.407 114.177C128.608 115.318 127.283 116.069 125.788 116.069C123.35 116.069 121.37 114.089 121.37 111.651C121.37 109.213 123.35 107.233 125.788 107.233C127.092 107.233 128.266 107.807 129.079 108.715L137.47 101.75C137.313 101.3 137.232 100.822 137.232 100.323C137.232 97.8857 139.212 95.9056 141.649 95.9056C144.087 95.9056 146.067 97.8857 146.067 100.323C146.067 102.761 144.087 104.741 141.649 104.741C140.7 104.741 139.826 104.441 139.102 103.928L130.561 111.016C130.465 111.091 130.417 111.255 130.431 111.419C130.444 111.562 130.499 111.685 130.574 111.726L139.082 116.629C139.894 115.604 141.144 114.942 142.55 114.942C144.988 114.942 146.968 116.922 146.968 119.36C146.968 121.797 144.988 123.777 142.55 123.777L142.557 123.771Z" fill="#0E3860" fill-opacity="0.7"/>
<path d="M142.558 121.053C143.497 121.053 144.258 120.291 144.258 119.353C144.258 118.414 143.497 117.652 142.558 117.652C141.619 117.652 140.857 118.414 140.857 119.353C140.857 120.291 141.619 121.053 142.558 121.053Z" fill="#0E3860" fill-opacity="0.7"/>
<path d="M174.144 86.8094C174.09 86.7479 174.035 86.7001 173.974 86.6523L134.925 56.302C134.365 55.865 133.593 55.9128 133.081 56.3771L94.1274 86.7821C94.0387 86.8503 93.9636 86.9323 93.8953 87.0142C92.5502 88.6871 92.0791 90.4692 92.2566 92.0464C92.3727 93.0638 92.755 93.9856 93.3559 94.7435C93.9568 95.5014 94.7761 96.0886 95.7457 96.4163C96.9884 96.8397 98.4837 96.826 100.081 96.2115V126.255H100.102V128.03H119.493C118.189 126.978 117.008 125.79 115.956 124.486H103.905V94.7366C103.905 93.849 131.183 72.8462 134.317 70.4632C137.267 72.7642 164.053 93.9378 164.053 94.6274V124.486H152.391C151.339 125.79 150.158 126.978 148.854 128.03H167.876V96.3071C169.522 97.0855 171.147 97.0991 172.513 96.6075C173.373 96.3003 174.131 95.7813 174.725 95.1122C175.319 94.443 175.749 93.6373 175.968 92.7361C176.405 90.913 175.954 88.7553 174.144 86.8094Z" fill="#0E3860" fill-opacity="0.7"/>
<path d="M88.7511 220.168C87.5831 220.168 86.5271 219.968 85.5831 219.568C84.6551 219.168 83.9191 218.592 83.3751 217.84C82.8311 217.088 82.5511 216.2 82.5351 215.176H86.1351C86.1831 215.864 86.4231 216.408 86.8551 216.808C87.3031 217.208 87.9111 217.408 88.6791 217.408C89.4631 217.408 90.0791 217.224 90.5271 216.856C90.9751 216.472 91.1991 215.976 91.1991 215.368C91.1991 214.872 91.0471 214.464 90.7431 214.144C90.4391 213.824 90.0551 213.576 89.5911 213.4C89.1431 213.208 88.5191 213 87.7191 212.776C86.6311 212.456 85.7431 212.144 85.0551 211.84C84.3831 211.52 83.7991 211.048 83.3031 210.424C82.8231 209.784 82.5831 208.936 82.5831 207.88C82.5831 206.888 82.8311 206.024 83.3271 205.288C83.8231 204.552 84.5191 203.992 85.4151 203.608C86.3111 203.208 87.3351 203.008 88.4871 203.008C90.2151 203.008 91.6151 203.432 92.6871 204.28C93.7751 205.112 94.3751 206.28 94.4871 207.784H90.7911C90.7591 207.208 90.5111 206.736 90.0471 206.368C89.5991 205.984 88.9991 205.792 88.2471 205.792C87.5911 205.792 87.0631 205.96 86.6631 206.296C86.2791 206.632 86.0871 207.12 86.0871 207.76C86.0871 208.208 86.2311 208.584 86.5191 208.888C86.8231 209.176 87.1911 209.416 87.6231 209.608C88.0711 209.784 88.6951 209.992 89.4951 210.232C90.5831 210.552 91.4711 210.872 92.1591 211.192C92.8471 211.512 93.4391 211.992 93.9351 212.632C94.4311 213.272 94.6791 214.112 94.6791 215.152C94.6791 216.048 94.4471 216.88 93.9831 217.648C93.5191 218.416 92.8391 219.032 91.9431 219.496C91.0471 219.944 89.9831 220.168 88.7511 220.168ZM111.196 203.248V220H107.836V212.872H100.66V220H97.2996V203.248H100.66V210.136H107.836V203.248H111.196ZM124.482 216.808H117.81L116.706 220H113.178L119.202 203.224H123.114L129.138 220H125.586L124.482 216.808ZM123.57 214.12L121.146 207.112L118.722 214.12H123.57ZM139.737 220L136.041 213.472H134.457V220H131.097V203.248H137.385C138.681 203.248 139.785 203.48 140.697 203.944C141.609 204.392 142.289 205.008 142.737 205.792C143.201 206.56 143.433 207.424 143.433 208.384C143.433 209.488 143.113 210.488 142.473 211.384C141.833 212.264 140.881 212.872 139.617 213.208L143.625 220H139.737ZM134.457 210.952H137.265C138.177 210.952 138.857 210.736 139.305 210.304C139.753 209.856 139.977 209.24 139.977 208.456C139.977 207.688 139.753 207.096 139.305 206.68C138.857 206.248 138.177 206.032 137.265 206.032H134.457V210.952ZM149.54 203.248V220H146.18V203.248H149.54ZM166.895 220H163.535L155.927 208.504V220H152.567V203.224H155.927L163.535 214.744V203.224H166.895V220ZM181.587 208.288C181.203 207.584 180.675 207.048 180.003 206.68C179.331 206.312 178.547 206.128 177.651 206.128C176.659 206.128 175.779 206.352 175.011 206.8C174.243 207.248 173.643 207.888 173.211 208.72C172.779 209.552 172.563 210.512 172.563 211.6C172.563 212.72 172.779 213.696 173.211 214.528C173.659 215.36 174.275 216 175.059 216.448C175.843 216.896 176.755 217.12 177.795 217.12C179.075 217.12 180.123 216.784 180.939 216.112C181.755 215.424 182.291 214.472 182.547 213.256H176.787V210.688H185.859V213.616C185.635 214.784 185.155 215.864 184.419 216.856C183.683 217.848 182.731 218.648 181.563 219.256C180.411 219.848 179.115 220.144 177.675 220.144C176.059 220.144 174.595 219.784 173.283 219.064C171.987 218.328 170.963 217.312 170.211 216.016C169.475 214.72 169.107 213.248 169.107 211.6C169.107 209.952 169.475 208.48 170.211 207.184C170.963 205.872 171.987 204.856 173.283 204.136C174.595 203.4 176.051 203.032 177.651 203.032C179.539 203.032 181.179 203.496 182.571 204.424C183.963 205.336 184.923 206.624 185.451 208.288H181.587Z" fill="#0E3860"/>
<path d="M0 260H268V302C268 306.418 264.418 310 260 310H7.99999C3.58172 310 0 306.418 0 302V260Z" fill="#567490"/>
<path d="M118.903 279.5V277.42H123.063V292H120.763V279.5H118.903ZM135.303 279.38H128.603V283.36C128.883 282.987 129.296 282.673 129.843 282.42C130.403 282.167 130.996 282.04 131.623 282.04C132.743 282.04 133.65 282.28 134.343 282.76C135.05 283.24 135.55 283.847 135.843 284.58C136.15 285.313 136.303 286.087 136.303 286.9C136.303 287.887 136.11 288.767 135.723 289.54C135.35 290.3 134.783 290.9 134.023 291.34C133.276 291.78 132.356 292 131.263 292C129.81 292 128.643 291.64 127.763 290.92C126.883 290.2 126.356 289.247 126.183 288.06H128.403C128.55 288.687 128.876 289.187 129.383 289.56C129.89 289.92 130.523 290.1 131.283 290.1C132.23 290.1 132.936 289.813 133.403 289.24C133.883 288.667 134.123 287.907 134.123 286.96C134.123 286 133.883 285.267 133.403 284.76C132.923 284.24 132.216 283.98 131.283 283.98C130.63 283.98 130.076 284.147 129.623 284.48C129.183 284.8 128.863 285.24 128.663 285.8H126.503V277.38H135.303V279.38ZM138.384 284.52C138.384 282.213 138.771 280.413 139.544 279.12C140.331 277.813 141.677 277.16 143.584 277.16C145.491 277.16 146.831 277.813 147.604 279.12C148.391 280.413 148.784 282.213 148.784 284.52C148.784 286.853 148.391 288.68 147.604 290C146.831 291.307 145.491 291.96 143.584 291.96C141.677 291.96 140.331 291.307 139.544 290C138.771 288.68 138.384 286.853 138.384 284.52ZM146.544 284.52C146.544 283.44 146.471 282.527 146.324 281.78C146.191 281.033 145.911 280.427 145.484 279.96C145.057 279.48 144.424 279.24 143.584 279.24C142.744 279.24 142.111 279.48 141.684 279.96C141.257 280.427 140.971 281.033 140.824 281.78C140.691 282.527 140.624 283.44 140.624 284.52C140.624 285.64 140.691 286.58 140.824 287.34C140.957 288.1 141.237 288.713 141.664 289.18C142.104 289.647 142.744 289.88 143.584 289.88C144.424 289.88 145.057 289.647 145.484 289.18C145.924 288.713 146.211 288.1 146.344 287.34C146.477 286.58 146.544 285.64 146.544 284.52Z" fill="white"/>
</svg>
