<svg width="269" height="310" viewBox="0 0 269 310" fill="none" xmlns="http://www.w3.org/2000/svg">
<rect width="268" height="310" rx="8" fill="white"/>
<path d="M54.9746 212.6C54.9746 210.952 55.3426 209.48 56.0786 208.184C56.8306 206.872 57.8466 205.856 59.1266 205.136C60.4226 204.4 61.8706 204.032 63.4706 204.032C65.3426 204.032 66.9826 204.512 68.3906 205.472C69.7986 206.432 70.7826 207.76 71.3426 209.456H67.4786C67.0946 208.656 66.5506 208.056 65.8466 207.656C65.1586 207.256 64.3586 207.056 63.4466 207.056C62.4706 207.056 61.5986 207.288 60.8306 207.752C60.0786 208.2 59.4866 208.84 59.0546 209.672C58.6386 210.504 58.4306 211.48 58.4306 212.6C58.4306 213.704 58.6386 214.68 59.0546 215.528C59.4866 216.36 60.0786 217.008 60.8306 217.472C61.5986 217.92 62.4706 218.144 63.4466 218.144C64.3586 218.144 65.1586 217.944 65.8466 217.544C66.5506 217.128 67.0946 216.52 67.4786 215.72H71.3426C70.7826 217.432 69.7986 218.768 68.3906 219.728C66.9986 220.672 65.3586 221.144 63.4706 221.144C61.8706 221.144 60.4226 220.784 59.1266 220.064C57.8466 219.328 56.8306 218.312 56.0786 217.016C55.3426 215.72 54.9746 214.248 54.9746 212.6ZM81.7494 221.168C80.1814 221.168 78.7414 220.8 77.4294 220.064C76.1174 219.328 75.0774 218.312 74.3094 217.016C73.5414 215.704 73.1574 214.224 73.1574 212.576C73.1574 210.944 73.5414 209.48 74.3094 208.184C75.0774 206.872 76.1174 205.848 77.4294 205.112C78.7414 204.376 80.1814 204.008 81.7494 204.008C83.3334 204.008 84.7734 204.376 86.0694 205.112C87.3814 205.848 88.4134 206.872 89.1654 208.184C89.9334 209.48 90.3174 210.944 90.3174 212.576C90.3174 214.224 89.9334 215.704 89.1654 217.016C88.4134 218.312 87.3814 219.328 86.0694 220.064C84.7574 220.8 83.3174 221.168 81.7494 221.168ZM81.7494 218.168C82.7574 218.168 83.6454 217.944 84.4134 217.496C85.1814 217.032 85.7814 216.376 86.2134 215.528C86.6454 214.68 86.8614 213.696 86.8614 212.576C86.8614 211.456 86.6454 210.48 86.2134 209.648C85.7814 208.8 85.1814 208.152 84.4134 207.704C83.6454 207.256 82.7574 207.032 81.7494 207.032C80.7414 207.032 79.8454 207.256 79.0614 207.704C78.2934 208.152 77.6934 208.8 77.2614 209.648C76.8294 210.48 76.6134 211.456 76.6134 212.576C76.6134 213.696 76.8294 214.68 77.2614 215.528C77.6934 216.376 78.2934 217.032 79.0614 217.496C79.8454 217.944 80.7414 218.168 81.7494 218.168ZM110.842 204.248V221H107.482V210.104L102.994 221H100.45L95.938 210.104V221H92.578V204.248H96.394L101.722 216.704L107.05 204.248H110.842ZM132.189 204.248V221H128.829V210.104L124.341 221H121.797L117.285 210.104V221H113.925V204.248H117.741L123.069 216.704L128.397 204.248H132.189ZM138.632 206.96V211.16H144.272V213.824H138.632V218.264H144.992V221H135.272V204.224H144.992V206.96H138.632ZM156.446 221L152.75 214.472H151.166V221H147.806V204.248H154.094C155.39 204.248 156.494 204.48 157.406 204.944C158.318 205.392 158.998 206.008 159.446 206.792C159.91 207.56 160.142 208.424 160.142 209.384C160.142 210.488 159.822 211.488 159.182 212.384C158.542 213.264 157.59 213.872 156.326 214.208L160.334 221H156.446ZM151.166 211.952H153.974C154.886 211.952 155.566 211.736 156.014 211.304C156.462 210.856 156.686 210.24 156.686 209.456C156.686 208.688 156.462 208.096 156.014 207.68C155.566 207.248 154.886 207.032 153.974 207.032H151.166V211.952ZM162.126 212.6C162.126 210.952 162.494 209.48 163.23 208.184C163.982 206.872 164.998 205.856 166.278 205.136C167.574 204.4 169.022 204.032 170.622 204.032C172.494 204.032 174.134 204.512 175.542 205.472C176.95 206.432 177.934 207.76 178.494 209.456H174.63C174.246 208.656 173.702 208.056 172.998 207.656C172.31 207.256 171.51 207.056 170.598 207.056C169.622 207.056 168.75 207.288 167.982 207.752C167.23 208.2 166.638 208.84 166.206 209.672C165.79 210.504 165.582 211.48 165.582 212.6C165.582 213.704 165.79 214.68 166.206 215.528C166.638 216.36 167.23 217.008 167.982 217.472C168.75 217.92 169.622 218.144 170.598 218.144C171.51 218.144 172.31 217.944 172.998 217.544C173.702 217.128 174.246 216.52 174.63 215.72H178.494C177.934 217.432 176.95 218.768 175.542 219.728C174.15 220.672 172.51 221.144 170.622 221.144C169.022 221.144 167.574 220.784 166.278 220.064C164.998 219.328 163.982 218.312 163.23 217.016C162.494 215.72 162.126 214.248 162.126 212.6ZM184.485 204.248V221H181.125V204.248H184.485ZM197.837 217.808H191.165L190.061 221H186.533L192.557 204.224H196.469L202.493 221H198.941L197.837 217.808ZM196.925 215.12L194.501 208.112L192.077 215.12H196.925ZM207.866 218.336H213.386V221H204.506V204.248H207.866V218.336Z" fill="#0E3860"/>
<path d="M1 260H269V302C269 306.418 265.418 310 261 310H8.99999C4.58172 310 1 306.418 1 302V260Z" fill="#567490"/>
<path d="M36.5 244L50.7894 260.5H22.2106L36.5 244Z" fill="#567490"/>
<path d="M115.669 288.9C116.949 287.793 117.955 286.887 118.689 286.18C119.435 285.46 120.055 284.713 120.549 283.94C121.042 283.167 121.289 282.393 121.289 281.62C121.289 280.82 121.095 280.193 120.709 279.74C120.335 279.287 119.742 279.06 118.929 279.06C118.142 279.06 117.529 279.313 117.089 279.82C116.662 280.313 116.435 280.98 116.409 281.82H114.209C114.249 280.3 114.702 279.14 115.569 278.34C116.449 277.527 117.562 277.12 118.909 277.12C120.362 277.12 121.495 277.52 122.309 278.32C123.135 279.12 123.549 280.187 123.549 281.52C123.549 282.48 123.302 283.407 122.809 284.3C122.329 285.18 121.749 285.973 121.069 286.68C120.402 287.373 119.549 288.18 118.509 289.1L117.609 289.9H123.949V291.8H114.229V290.14L115.669 288.9ZM125.659 284.52C125.659 282.213 126.046 280.413 126.819 279.12C127.606 277.813 128.952 277.16 130.859 277.16C132.766 277.16 134.106 277.813 134.879 279.12C135.666 280.413 136.059 282.213 136.059 284.52C136.059 286.853 135.666 288.68 134.879 290C134.106 291.307 132.766 291.96 130.859 291.96C128.952 291.96 127.606 291.307 126.819 290C126.046 288.68 125.659 286.853 125.659 284.52ZM133.819 284.52C133.819 283.44 133.746 282.527 133.599 281.78C133.466 281.033 133.186 280.427 132.759 279.96C132.332 279.48 131.699 279.24 130.859 279.24C130.019 279.24 129.386 279.48 128.959 279.96C128.532 280.427 128.246 281.033 128.099 281.78C127.966 282.527 127.899 283.44 127.899 284.52C127.899 285.64 127.966 286.58 128.099 287.34C128.232 288.1 128.512 288.713 128.939 289.18C129.379 289.647 130.019 289.88 130.859 289.88C131.699 289.88 132.332 289.647 132.759 289.18C133.199 288.713 133.486 288.1 133.619 287.34C133.752 286.58 133.819 285.64 133.819 284.52ZM138.179 284.52C138.179 282.213 138.566 280.413 139.339 279.12C140.126 277.813 141.472 277.16 143.379 277.16C145.286 277.16 146.626 277.813 147.399 279.12C148.186 280.413 148.579 282.213 148.579 284.52C148.579 286.853 148.186 288.68 147.399 290C146.626 291.307 145.286 291.96 143.379 291.96C141.472 291.96 140.126 291.307 139.339 290C138.566 288.68 138.179 286.853 138.179 284.52ZM146.339 284.52C146.339 283.44 146.266 282.527 146.119 281.78C145.986 281.033 145.706 280.427 145.279 279.96C144.852 279.48 144.219 279.24 143.379 279.24C142.539 279.24 141.906 279.48 141.479 279.96C141.052 280.427 140.766 281.033 140.619 281.78C140.486 282.527 140.419 283.44 140.419 284.52C140.419 285.64 140.486 286.58 140.619 287.34C140.752 288.1 141.032 288.713 141.459 289.18C141.899 289.647 142.539 289.88 143.379 289.88C144.219 289.88 144.852 289.647 145.279 289.18C145.719 288.713 146.006 288.1 146.139 287.34C146.272 286.58 146.339 285.64 146.339 284.52Z" fill="white"/>
<path d="M104.558 123.826H111.325C111.447 124.678 111.724 125.503 112.136 126.253L112.642 127.342H100.796V125.577H100.776V95.8267C99.1952 96.4353 97.716 96.4488 96.4868 96.0296C95.5277 95.705 94.7172 95.1235 94.1229 94.373C93.5285 93.6225 93.1503 92.7097 93.0355 91.7022C92.8599 90.1403 93.3259 88.3756 94.6565 86.719C94.724 86.6379 94.7983 86.5567 94.8861 86.4891L133.425 56.3734C133.924 55.9137 134.694 55.8663 135.248 56.2991L173.875 86.3606C173.935 86.408 173.989 86.4553 174.043 86.5162C175.833 88.4432 176.279 90.5798 175.847 92.3851C175.631 93.2776 175.205 94.0755 174.618 94.7381C174.03 95.4008 173.28 95.9146 172.429 96.2189C171.078 96.7057 169.471 96.6922 167.843 95.9214V123.826V127.335H145.278L145.508 126.463H145.501C145.636 125.956 145.71 125.442 145.73 124.921C145.92 124.577 146.075 124.205 146.203 123.819H164.054V94.2581C164.054 93.5752 137.558 72.6078 134.634 70.3292C131.534 72.6889 104.551 93.4873 104.551 94.3662V123.826H104.558ZM156.321 58.4019L167.917 58.8752V74.5551L156.321 66.8943V58.4019ZM141.016 100.722C140.422 101.047 139.679 100.823 139.355 100.235C139.03 99.6402 139.253 98.8964 139.848 98.5719C142.664 97.0438 143.974 95.0627 144.238 93.1289C144.38 92.0944 144.218 91.0599 143.833 90.0997C143.434 89.1261 142.806 88.2403 142.016 87.5304C140.469 86.1443 138.294 85.414 136.025 85.982C135.106 86.2119 134.309 86.6717 133.614 87.3208C132.871 88.0104 132.236 88.9097 131.675 89.978C131.358 90.5798 130.622 90.8097 130.021 90.4919C129.419 90.1741 129.19 89.4371 129.507 88.8354C130.196 87.5304 131 86.408 131.952 85.5222C132.945 84.5959 134.107 83.9333 135.451 83.602C138.571 82.8311 141.543 83.8116 143.657 85.7048C144.731 86.6649 145.582 87.8617 146.115 89.1869C146.656 90.519 146.872 91.9862 146.669 93.4737C146.305 96.1242 144.609 98.7815 141.023 100.736L141.016 100.722ZM131.635 110.405C126.995 104.164 126.88 98.2541 132.513 92.757L128.454 90.5122C125.205 89.2478 119.248 98.5719 121.551 101.067L124.712 105.759L124.057 107.118C123.874 107.524 124.057 107.808 124.496 108.004L124.921 108.119L118.255 122.846L119.917 126.395L123.246 125.415L124.104 123.752L123.287 122.217L125.097 121.831L125.516 121.013L124.57 119.573L125.191 118.37L126.995 118.14L127.582 116.997L126.576 115.678L127.218 114.428L129.055 114.13L130 110.905L130.426 111.135C131.162 111.581 131.54 111.297 131.628 110.398L131.635 110.405ZM140.368 114.319L140.699 117.335L138.997 118.011L138.639 119.343L139.881 120.398L139.557 121.608L137.876 122.203L137.531 123.488L138.733 124.671L138.504 125.543L136.849 126.294L137.957 127.599L137.477 129.37L134.499 131L132.168 127.944L135.052 112.913L133.978 112.622C133.756 112.561 133.621 112.332 133.681 112.108L134.134 110.425C130.878 107.957 129.264 103.677 130.385 99.4847C131.824 94.0958 137.254 90.8435 142.644 92.0538C142.671 92.3446 142.664 92.6353 142.624 92.9261C142.522 93.6563 142.212 94.4068 141.624 95.1303C141.543 95.225 141.462 95.3264 141.374 95.421C139.652 95.3061 138.044 96.4217 137.578 98.1527C137.376 98.8964 137.423 99.6537 137.659 100.33C137.713 100.573 137.808 100.803 137.93 101.033C138.213 101.554 138.632 101.953 139.118 102.203C139.436 102.412 139.8 102.575 140.185 102.683C142.117 103.197 144.096 102.088 144.67 100.181C145.251 99.6673 145.764 99.1196 146.197 98.5584C147.048 97.463 147.622 96.3068 147.966 95.1235C150.303 97.6456 151.33 101.276 150.377 104.853C149.256 109.045 145.717 111.946 141.671 112.453L141.219 114.137C141.158 114.36 140.928 114.495 140.705 114.434L140.368 114.333V114.319Z" fill="#0E3860" fill-opacity="0.7"/>
</svg>
