<svg width="268" height="310" viewBox="0 0 268 310" fill="none" xmlns="http://www.w3.org/2000/svg">
<rect width="268" height="310" rx="8" fill="white"/>
<path d="M96.3394 208.432C96.3394 209.328 96.1234 210.168 95.6914 210.952C95.2754 211.736 94.6114 212.368 93.6994 212.848C92.8034 213.328 91.6674 213.568 90.2914 213.568H87.4834V220H84.1234V203.248H90.2914C91.5874 203.248 92.6914 203.472 93.6034 203.92C94.5154 204.368 95.1954 204.984 95.6434 205.768C96.1074 206.552 96.3394 207.44 96.3394 208.432ZM90.1474 210.856C91.0754 210.856 91.7634 210.648 92.2114 210.232C92.6594 209.8 92.8834 209.2 92.8834 208.432C92.8834 206.8 91.9714 205.984 90.1474 205.984H87.4834V210.856H90.1474ZM108.704 216.808H102.032L100.928 220H97.4004L103.424 203.224H107.336L113.36 220H109.808L108.704 216.808ZM107.792 214.12L105.368 207.112L102.944 214.12H107.792ZM123.96 220L120.264 213.472H118.68V220H115.32V203.248H121.608C122.904 203.248 124.008 203.48 124.92 203.944C125.832 204.392 126.512 205.008 126.96 205.792C127.424 206.56 127.656 207.424 127.656 208.384C127.656 209.488 127.336 210.488 126.696 211.384C126.056 212.264 125.104 212.872 123.84 213.208L127.848 220H123.96ZM118.68 210.952H121.488C122.4 210.952 123.08 210.736 123.528 210.304C123.976 209.856 124.2 209.24 124.2 208.456C124.2 207.688 123.976 207.096 123.528 206.68C123.08 206.248 122.4 206.032 121.488 206.032H118.68V210.952ZM139.858 220L133.762 212.536V220H130.402V203.248H133.762V210.76L139.858 203.248H143.914L137.002 211.552L144.106 220H139.858ZM149.384 203.248V220H146.024V203.248H149.384ZM166.739 220H163.379L155.771 208.504V220H152.411V203.224H155.771L163.379 214.744V203.224H166.739V220ZM181.431 208.288C181.047 207.584 180.519 207.048 179.847 206.68C179.175 206.312 178.391 206.128 177.495 206.128C176.503 206.128 175.623 206.352 174.855 206.8C174.087 207.248 173.487 207.888 173.055 208.72C172.623 209.552 172.407 210.512 172.407 211.6C172.407 212.72 172.623 213.696 173.055 214.528C173.503 215.36 174.119 216 174.903 216.448C175.687 216.896 176.599 217.12 177.639 217.12C178.919 217.12 179.967 216.784 180.783 216.112C181.599 215.424 182.135 214.472 182.391 213.256H176.631V210.688H185.703V213.616C185.479 214.784 184.999 215.864 184.263 216.856C183.527 217.848 182.575 218.648 181.407 219.256C180.255 219.848 178.959 220.144 177.519 220.144C175.903 220.144 174.439 219.784 173.127 219.064C171.831 218.328 170.807 217.312 170.055 216.016C169.319 214.72 168.951 213.248 168.951 211.6C168.951 209.952 169.319 208.48 170.055 207.184C170.807 205.872 171.831 204.856 173.127 204.136C174.439 203.4 175.895 203.032 177.495 203.032C179.383 203.032 181.023 203.496 182.415 204.424C183.807 205.336 184.767 206.624 185.295 208.288H181.431Z" fill="#0E3860"/>
<path d="M0 260H268V302C268 306.418 264.418 310 260 310H7.99999C3.58172 310 0 306.418 0 302V260Z" fill="#567490"/>
<path d="M23.5 244L37.7894 260.5H9.21058L23.5 244Z" fill="#567490"/>
<path d="M115.669 288.9C116.949 287.793 117.955 286.887 118.689 286.18C119.435 285.46 120.055 284.713 120.549 283.94C121.042 283.167 121.289 282.393 121.289 281.62C121.289 280.82 121.095 280.193 120.709 279.74C120.335 279.287 119.742 279.06 118.929 279.06C118.142 279.06 117.529 279.313 117.089 279.82C116.662 280.313 116.435 280.98 116.409 281.82H114.209C114.249 280.3 114.702 279.14 115.569 278.34C116.449 277.527 117.562 277.12 118.909 277.12C120.362 277.12 121.495 277.52 122.309 278.32C123.135 279.12 123.549 280.187 123.549 281.52C123.549 282.48 123.302 283.407 122.809 284.3C122.329 285.18 121.749 285.973 121.069 286.68C120.402 287.373 119.549 288.18 118.509 289.1L117.609 289.9H123.949V291.8H114.229V290.14L115.669 288.9ZM125.659 284.52C125.659 282.213 126.046 280.413 126.819 279.12C127.606 277.813 128.952 277.16 130.859 277.16C132.766 277.16 134.106 277.813 134.879 279.12C135.666 280.413 136.059 282.213 136.059 284.52C136.059 286.853 135.666 288.68 134.879 290C134.106 291.307 132.766 291.96 130.859 291.96C128.952 291.96 127.606 291.307 126.819 290C126.046 288.68 125.659 286.853 125.659 284.52ZM133.819 284.52C133.819 283.44 133.746 282.527 133.599 281.78C133.466 281.033 133.186 280.427 132.759 279.96C132.332 279.48 131.699 279.24 130.859 279.24C130.019 279.24 129.386 279.48 128.959 279.96C128.532 280.427 128.246 281.033 128.099 281.78C127.966 282.527 127.899 283.44 127.899 284.52C127.899 285.64 127.966 286.58 128.099 287.34C128.232 288.1 128.512 288.713 128.939 289.18C129.379 289.647 130.019 289.88 130.859 289.88C131.699 289.88 132.332 289.647 132.759 289.18C133.199 288.713 133.486 288.1 133.619 287.34C133.752 286.58 133.819 285.64 133.819 284.52ZM138.179 284.52C138.179 282.213 138.566 280.413 139.339 279.12C140.126 277.813 141.472 277.16 143.379 277.16C145.286 277.16 146.626 277.813 147.399 279.12C148.186 280.413 148.579 282.213 148.579 284.52C148.579 286.853 148.186 288.68 147.399 290C146.626 291.307 145.286 291.96 143.379 291.96C141.472 291.96 140.126 291.307 139.339 290C138.566 288.68 138.179 286.853 138.179 284.52ZM146.339 284.52C146.339 283.44 146.266 282.527 146.119 281.78C145.986 281.033 145.706 280.427 145.279 279.96C144.852 279.48 144.219 279.24 143.379 279.24C142.539 279.24 141.906 279.48 141.479 279.96C141.052 280.427 140.766 281.033 140.619 281.78C140.486 282.527 140.419 283.44 140.419 284.52C140.419 285.64 140.486 286.58 140.619 287.34C140.752 288.1 141.032 288.713 141.459 289.18C141.899 289.647 142.539 289.88 143.379 289.88C144.219 289.88 144.852 289.647 145.279 289.18C145.719 288.713 146.006 288.1 146.139 287.34C146.272 286.58 146.339 285.64 146.339 284.52Z" fill="white"/>
<path fill-rule="evenodd" clip-rule="evenodd" d="M115.404 83.3049C113.001 84.2265 111.595 86.8691 110.694 89.7314L107.81 98.7639L106.422 96.1212C100.252 95.749 99.5433 99.3314 105.713 102.481C98.8464 106.997 99.7896 114.9 100.468 123.67C100.462 123.78 100.462 123.89 100.468 124V128.882C100.468 130.048 101.406 130.994 102.553 131H111.415C112.562 131 113.493 130.048 113.499 128.882V127.186H155.512V128.882C155.512 130.048 156.449 130.994 157.596 131H166.482C167.629 131 168.561 130.048 168.567 128.882V125.129C169.257 113.698 169.69 109.096 165.238 104.452L164.145 102.749C170.892 99.5023 170.291 95.7429 163.947 96.1212L162.745 98.4831L160.6 89.7253C159.711 86.1184 157.596 82.957 153.932 82.957H153.89C153.487 84.1776 153.024 85.3433 152.502 86.5151C155.205 86.6005 156.845 88.9563 157.428 91.6721L159.579 100.753H110.814L113.499 91.6721C113.776 90.7445 114.166 89.8473 114.653 89.0112C114.881 88.523 115.212 88.0897 115.62 87.7357C115.999 87.3573 116.443 87.0522 116.93 86.8447C116.72 86.4235 116.515 86.0085 116.329 85.5813C115.987 84.8368 115.674 84.08 115.392 83.3232L115.404 83.3049ZM142.054 92.5632C140.144 94.7176 137.939 96.5851 135.506 98.1108C135.193 98.3427 134.773 98.3611 134.448 98.1474C130.97 95.9076 127.882 93.1003 125.305 89.8351C122.163 85.9414 120.042 81.3031 119.159 76.3475C118.426 71.7519 119.111 67.3272 121.364 63.7325C122.283 62.2739 123.43 60.974 124.77 59.8998C127.696 57.422 131.378 56.0427 135.187 56C138.87 56.061 142.391 57.5258 145.058 60.1012C146.085 61.0594 146.975 62.1579 147.696 63.3663C150.099 67.4187 150.639 72.588 149.576 77.8183C148.392 83.3171 145.797 88.4009 142.054 92.551V92.5632ZM140.751 70.6472C140.751 71.4712 140.546 72.2829 140.15 72.9969C139.753 73.7171 139.165 74.303 138.45 74.6935C137.584 75.1208 136.623 75.3344 135.662 75.3038H133.643V79.0694H129.726V65.9723H135.632C137.014 65.8747 138.378 66.3324 139.429 67.2479C140.324 68.1389 140.805 69.3778 140.751 70.6472ZM135.446 72.2218C136.191 72.2096 136.785 71.5871 136.773 70.8242C136.773 70.7632 136.773 70.7022 136.761 70.6472C136.846 69.8905 136.311 69.2069 135.56 69.1215C135.524 69.1215 135.482 69.1154 135.446 69.1154H133.643V72.2218H135.446ZM134.496 60.1989C140.678 60.1989 145.695 65.6916 145.695 72.5209C145.695 79.3502 140.678 84.8429 134.496 84.8429C128.314 84.8429 123.298 79.3502 123.298 72.5209C123.298 65.6916 128.314 60.1989 134.496 60.1989ZM117.074 112.88L109.162 111.867C107.299 111.66 106.801 112.477 107.431 114.089L108.291 116.194C108.531 116.688 108.897 117.116 109.354 117.415C109.895 117.732 110.501 117.897 111.12 117.909L118.167 117.964C119.868 117.964 120.601 117.268 120.066 115.688C119.681 114.241 118.51 113.155 117.062 112.892L117.074 112.88ZM151.955 112.88L159.849 111.867C161.718 111.66 162.216 112.477 161.58 114.089L160.726 116.194C160.486 116.688 160.12 117.11 159.663 117.415C159.116 117.732 158.492 117.903 157.861 117.909L150.82 117.964C149.119 117.964 148.416 117.268 148.915 115.688C149.3 114.247 150.471 113.155 151.919 112.892L151.955 112.88Z" fill="#0E3860" fill-opacity="0.7"/>
</svg>
