<svg width="27" height="27" viewBox="0 0 27 27" fill="none" xmlns="http://www.w3.org/2000/svg">
<g clip-path="url(#clip0_501_1409)">
<path d="M0 12.8269C0.0484169 12.7721 0.0387335 12.7079 0.0287475 12.6438C0.0281423 12.5838 0.0278397 12.5239 0.0272345 12.4639C0.0287475 12.4536 0.0302606 12.4434 0.0317736 12.4331C0.052956 12.2396 0.0735332 12.0462 0.095926 11.8531C0.100465 11.8149 0.111359 11.7774 0.119529 11.7399C0.131028 11.6384 0.142527 11.537 0.153724 11.4356C0.16492 11.2307 0.250255 11.0379 0.250255 10.8311C0.295646 10.7143 0.323788 10.5935 0.334985 10.4688C0.37856 10.2896 0.422135 10.1104 0.46571 9.93116L0.460869 9.93055C0.527442 9.80704 0.548019 9.66961 0.579793 9.53582C0.646366 9.38295 0.697506 9.22493 0.735332 9.06238C0.810983 8.90254 0.869992 8.73666 0.914777 8.56563L0.918711 8.55867L0.912962 8.55291C1.0107 8.42184 1.04823 8.26383 1.10814 8.1161C1.16201 7.98775 1.24341 7.87181 1.2779 7.73499C1.31755 7.65023 1.35719 7.56517 1.39713 7.48041C1.45795 7.39595 1.50667 7.30484 1.54329 7.20736C1.62832 7.05752 1.71366 6.90738 1.79869 6.75754C1.81533 6.72666 1.83228 6.69609 1.84892 6.66521C1.92276 6.54503 1.99659 6.42486 2.07043 6.30438C2.26833 6.01317 2.46624 5.72166 2.66444 5.43045C2.69773 5.38989 2.73102 5.34902 2.76461 5.30816C2.86235 5.19373 2.95858 5.0781 3.03635 4.94823C3.12834 4.88345 3.17887 4.78174 3.25392 4.70183C3.30688 4.62827 3.39705 4.58649 3.42943 4.49538C3.5069 4.41304 3.58467 4.3307 3.66213 4.24836C3.71328 4.19176 3.76442 4.13545 3.81556 4.07885C3.91874 3.97562 4.02224 3.87209 4.12542 3.76887C4.18625 3.72256 4.25554 3.68593 4.29458 3.6157L4.53727 3.40531C4.61867 3.32752 4.7152 3.26607 4.78208 3.17283C4.878 3.12864 4.94972 3.05447 5.02114 2.9797C5.17183 2.90372 5.27926 2.76932 5.42179 2.68244C5.43026 2.67396 5.43873 2.66549 5.44721 2.65701C5.7486 2.45268 6.04969 2.24835 6.35109 2.04402L6.36138 2.03615L6.35896 2.02344L6.36017 2.02193C6.51934 1.95987 6.65672 1.85967 6.80106 1.77158C6.95146 1.68985 7.10185 1.60812 7.25255 1.52639C7.37087 1.4831 7.48223 1.42528 7.58875 1.35808C7.63747 1.33326 7.68619 1.30874 7.73521 1.28392C7.89317 1.22761 8.04508 1.15769 8.19245 1.07777C8.48355 0.966978 8.77496 0.856186 9.06607 0.745394C9.20981 0.704225 9.35445 0.664873 9.4879 0.595249C9.79989 0.51382 10.1122 0.432693 10.4242 0.351264C10.5755 0.318571 10.7265 0.286181 10.8778 0.253488C11.0288 0.225942 11.1795 0.198395 11.3305 0.170848C11.4406 0.155107 11.5508 0.139064 11.6606 0.123323C12.2501 0.062175 12.8402 0.00344911 13.4333 0.000119286C13.768 -0.00169698 14.1029 0.0176765 14.4376 0.027666L14.4364 0.023428C14.6128 0.0676238 14.7944 0.0661103 14.9735 0.0860892C15.0985 0.102738 15.2235 0.119085 15.3482 0.135734C15.5391 0.163583 15.7304 0.191735 15.9213 0.219585C16.0423 0.241077 16.1567 0.295868 16.2832 0.289511C16.4436 0.326139 16.6037 0.362464 16.7641 0.399092C16.7898 0.424217 16.8216 0.411503 16.8512 0.413622C16.9556 0.469624 17.0703 0.487787 17.1853 0.505344C17.3396 0.580719 17.507 0.613109 17.6722 0.651856C17.8159 0.723901 17.9702 0.766583 18.1222 0.816833C18.1781 0.833785 18.2338 0.850737 18.2898 0.867689C18.3863 0.933074 18.4941 0.971519 18.6063 0.999065C18.6965 1.0363 18.7764 1.09714 18.8747 1.11591C19.2327 1.27938 19.5898 1.44466 19.9354 1.63355C20.0216 1.68228 20.1006 1.74495 20.1971 1.77461C20.2504 1.83213 20.3263 1.8521 20.3899 1.89206C20.5403 1.98409 20.6907 2.07611 20.8408 2.16844C20.8825 2.21415 20.9343 2.24472 20.9899 2.26985C21.0898 2.33947 21.1897 2.40879 21.2895 2.47841C21.587 2.70484 21.8844 2.93097 22.1819 3.15739C22.3266 3.2921 22.4709 3.4265 22.6155 3.56121C22.6334 3.56969 22.6513 3.57816 22.6691 3.58664C22.8147 3.73224 22.9602 3.87785 23.1058 4.02345C23.1058 4.03405 23.1115 4.03949 23.1221 4.0398C23.268 4.19055 23.4135 4.3413 23.5594 4.49205C23.8078 4.79567 24.0562 5.09898 24.305 5.4026C24.3268 5.47707 24.3861 5.52399 24.4342 5.57908C24.4938 5.68745 24.5649 5.78795 24.646 5.88149C24.7129 5.98199 24.7795 6.08249 24.8464 6.18299C24.8799 6.23657 24.9132 6.29045 24.9468 6.34403C25.0243 6.47208 25.1021 6.59982 25.1795 6.72787C25.2458 6.84744 25.3121 6.96671 25.3786 7.08628C25.4077 7.13774 25.4146 7.2007 25.4615 7.24278C25.536 7.39172 25.6101 7.54035 25.6846 7.68928C25.6988 7.76133 25.7342 7.82278 25.7817 7.87787C25.8041 7.96293 25.8253 8.0483 25.8885 8.11489C25.9369 8.26019 25.9799 8.40792 26.0643 8.53838C26.1754 8.86077 26.2865 9.18346 26.3975 9.50585C26.4387 9.63723 26.4471 9.77829 26.5183 9.90058C26.5888 10.2118 26.6593 10.523 26.7298 10.8341C26.7564 10.9655 26.7833 11.0966 26.81 11.228C26.8212 11.4465 26.8611 11.6608 26.9083 11.874C26.9029 11.9418 26.8823 12.0117 26.9304 12.0734C26.9177 12.3934 26.9952 12.7094 26.9752 13.0297C26.9743 13.0464 26.9903 13.0642 26.9985 13.0815C26.9927 13.0872 26.9933 13.0927 26.9997 13.0975C26.9991 13.3796 26.9985 13.6621 26.9982 13.9442L26.9976 13.9378C26.9522 13.9832 26.9785 14.0405 26.9743 14.0919C26.9646 14.2133 26.9918 14.3374 26.9495 14.4567C26.9467 14.5472 26.944 14.638 26.9413 14.7285C26.9138 14.9401 26.8865 15.1514 26.859 15.363C26.8451 15.5004 26.8308 15.6376 26.8169 15.775C26.7761 15.936 26.7234 16.095 26.7237 16.2642L26.7289 16.2663C26.6502 16.4298 26.645 16.612 26.5945 16.7827C26.5615 16.9144 26.5288 17.0461 26.4959 17.1778C26.4435 17.3261 26.3881 17.4738 26.3657 17.6309C26.258 17.923 26.1503 18.2151 26.0426 18.5073C25.9723 18.6674 25.9021 18.8275 25.8319 18.9877C25.821 19.0185 25.8099 19.0494 25.799 19.0806C25.7233 19.1905 25.6888 19.3197 25.6334 19.4393C25.5554 19.5904 25.477 19.7414 25.3989 19.8925C25.3508 19.9448 25.3239 20.0072 25.3099 20.0759C25.2307 20.1489 25.1865 20.243 25.1505 20.342C24.9471 20.6559 24.7441 20.9698 24.5407 21.2837C24.5177 21.3204 24.4672 21.3373 24.4654 21.3891C24.3761 21.5008 24.2805 21.6079 24.2133 21.7357C24.1277 21.8331 24.0369 21.9267 23.957 22.0287C23.4771 22.6408 22.9324 23.1905 22.3465 23.7C22.1486 23.8719 21.948 24.0408 21.7489 24.2112C21.6351 24.2573 21.5434 24.3338 21.4617 24.4234C21.3994 24.451 21.3428 24.4867 21.2941 24.5348C21.1376 24.6432 20.9812 24.7513 20.8247 24.8597C20.6734 24.9359 20.5297 25.0252 20.3917 25.1236C20.294 25.1699 20.1941 25.2129 20.1154 25.291C20.0446 25.3019 19.9904 25.3455 19.9332 25.383C19.7726 25.466 19.6119 25.5486 19.4512 25.6316C19.3441 25.6676 19.2436 25.7166 19.1513 25.7826C19.1059 25.7859 19.0651 25.8005 19.0294 25.8292C18.8635 25.9019 18.6868 25.95 18.5346 26.0526C18.5052 26.0554 18.472 26.0502 18.4468 26.062C18.206 26.1777 17.9466 26.2439 17.7009 26.3463C17.5115 26.4032 17.3218 26.4604 17.1323 26.5173C16.8778 26.5791 16.6197 26.6275 16.3704 26.7101C16.1888 26.7349 16.0084 26.7655 15.8314 26.8143C15.7285 26.8106 15.6299 26.8379 15.5303 26.8572C15.2767 26.8924 15.0201 26.9051 14.7696 26.962C14.7599 26.962 14.7508 26.9638 14.742 26.9674C14.6661 26.9714 14.5868 26.9408 14.5157 26.9913L14.5099 26.9859L14.503 26.9892C14.4963 26.985 14.4897 26.9844 14.4824 26.9871C14.4049 26.9596 14.3272 26.9596 14.2497 26.9871C14.2367 26.9871 14.2234 26.9871 14.2104 26.9871C14.1934 26.9629 14.1789 26.9653 14.1668 26.9913C14.1281 26.9947 14.0893 26.9977 14.0506 27.001C13.8987 27.001 13.7465 27.001 13.5946 27.001C13.4445 27.001 13.2947 27.001 13.1446 27.001C13.0329 26.9992 12.9216 26.9971 12.8099 26.9953C12.6093 26.9729 12.4083 26.9484 12.2056 26.9611C12.067 26.9244 11.9275 26.8957 11.7829 26.9084C11.6352 26.8672 11.4839 26.8527 11.3314 26.8454C11.1973 26.8 11.0587 26.781 10.9177 26.7773C10.761 26.7074 10.5909 26.695 10.4251 26.6647C10.4072 26.6602 10.3894 26.6556 10.3715 26.6508C10.2387 26.616 10.1055 26.5809 9.97268 26.5461C9.82289 26.4982 9.67461 26.4446 9.51816 26.4216C9.36746 26.3717 9.21707 26.3217 9.06637 26.2718C9.02733 26.237 8.98194 26.2264 8.9308 26.2361C8.83911 26.1592 8.72201 26.1419 8.61488 26.1014C8.46509 26.0426 8.315 25.9836 8.16521 25.9249C7.87229 25.7869 7.57967 25.6488 7.28675 25.5111C6.98717 25.3394 6.68759 25.1678 6.38801 24.9962C6.2939 24.9371 6.19979 24.8784 6.10537 24.8194C6.04546 24.7782 5.98554 24.7371 5.92532 24.6956C5.61303 24.4652 5.30044 24.2352 4.98815 24.0048L4.9824 23.9987L4.97454 24.0015C4.86257 23.854 4.69463 23.7693 4.56844 23.6382C4.52244 23.598 4.47614 23.5577 4.43015 23.5174C4.32454 23.4172 4.21863 23.3173 4.11302 23.2171C4.06793 23.1766 4.02284 23.136 3.97775 23.0955C3.87184 22.985 3.76593 22.8745 3.66002 22.764C3.60373 22.7228 3.59042 22.6435 3.52415 22.6111C3.41884 22.4906 3.31353 22.3702 3.20823 22.2497C3.18614 22.2115 3.15739 22.1801 3.11744 22.1598C3.00336 21.9942 2.87687 21.8386 2.74221 21.6894C2.63388 21.5253 2.52827 21.3594 2.39482 21.2138C2.39119 21.1781 2.38151 21.146 2.34308 21.1321C2.27378 21.0183 2.21053 20.9005 2.12248 20.7991C2.03896 20.655 1.96633 20.5042 1.86103 20.3738C1.84801 20.3508 1.835 20.3281 1.82229 20.3051C1.75088 20.1773 1.67946 20.0496 1.60774 19.9218C1.53603 19.7823 1.46401 19.6427 1.39229 19.5032C1.38714 19.4923 1.3817 19.4811 1.37655 19.4702C1.3009 19.3101 1.22525 19.1496 1.1496 18.9895C1.02039 18.6662 0.891174 18.3426 0.761659 18.0193C0.720202 17.8894 0.678442 17.7599 0.636985 17.63C0.589779 17.4756 0.54227 17.3212 0.495063 17.1672C0.482656 17.1387 0.498694 17.0981 0.459356 17.0809C0.443015 16.9574 0.430305 16.8327 0.369784 16.7204C0.337103 16.5608 0.304724 16.4016 0.272043 16.2421C0.242387 16.111 0.24269 15.9736 0.189431 15.8473C0.128607 15.3915 0.071415 14.9353 0.0323788 14.477C-0.00817035 14.0026 0.00907817 13.5277 0.00484169 13.053C0.00423648 12.9779 0.00181563 12.9029 0 12.8278L0 12.8269ZM16.6736 19.4587C16.6736 17.7172 16.6757 15.9757 16.6699 14.2342C16.6693 14.0922 16.7123 14.0641 16.8433 14.0647C17.7805 14.0701 18.7177 14.0671 19.6549 14.0698C19.7574 14.0698 19.8065 14.061 19.8264 13.9306C19.9024 13.4375 19.9683 12.9434 20.0343 12.4491C20.119 11.814 20.1611 11.1753 20.2386 10.5402C20.2549 10.4064 20.2098 10.3758 20.0773 10.3764C19.0003 10.3825 17.9233 10.3777 16.8464 10.3828C16.7265 10.3834 16.6975 10.3507 16.6984 10.2336C16.7038 9.52401 16.7011 8.81415 16.7011 8.1046C16.7011 7.97655 16.712 7.86061 16.7834 7.73832C16.998 7.37083 17.31 7.16196 17.7276 7.15439C18.5158 7.14016 19.3044 7.15227 20.0927 7.15106C20.1587 7.15106 20.2404 7.18315 20.2398 7.04965C20.2346 5.81641 20.2362 4.58347 20.2386 3.35022C20.2386 3.26788 20.2119 3.25002 20.1354 3.25123C18.7933 3.27031 17.451 3.22187 16.1092 3.27727C15.6238 3.29725 15.1478 3.36929 14.6845 3.50703C14.0457 3.69743 13.5062 4.06068 13.029 4.51869C12.582 4.94793 12.3027 5.47798 12.1251 6.06554C12.0201 6.41245 12.0059 6.77479 12.0004 7.13048C11.9844 8.16696 11.9929 9.20405 11.9974 10.2408C11.998 10.3528 11.9723 10.3837 11.8576 10.3828C11.1882 10.3771 10.5189 10.3828 9.84982 10.3774C9.73301 10.3764 9.69942 10.4046 9.70003 10.5251C9.70487 11.6575 9.70487 12.79 9.70003 13.9224C9.69942 14.0417 9.7315 14.0732 9.84951 14.0722C10.5025 14.0674 11.1556 14.0765 11.8086 14.0674C11.9587 14.0653 11.9986 14.0956 11.9986 14.2517C11.9935 17.7296 11.9953 21.2077 11.9917 24.6856C11.9917 24.8155 12.0183 24.8515 12.1539 24.8509C13.6082 24.8451 15.0628 24.8448 16.5171 24.8512C16.6591 24.8518 16.676 24.8064 16.6757 24.6829C16.6718 22.9414 16.673 21.1999 16.673 19.4584L16.6736 19.4587Z" fill="#3B5998"/>
<path d="M16.6722 19.4588C16.6722 21.2003 16.671 22.9418 16.6749 24.6833C16.6749 24.8068 16.6583 24.8522 16.5163 24.8516C15.062 24.8453 13.6074 24.8456 12.1531 24.8513C12.0175 24.8519 11.9906 24.8159 11.9909 24.6861C11.9948 21.2082 11.9927 17.7301 11.9978 14.2522C11.9978 14.096 11.9579 14.0657 11.8078 14.0679C11.1548 14.0769 10.5017 14.0679 9.84871 14.0727C9.7307 14.0736 9.69862 14.0418 9.69923 13.9229C9.70407 12.7904 9.70407 11.658 9.69923 10.5255C9.69862 10.4051 9.73221 10.3766 9.84902 10.3778C10.5184 10.3833 11.1877 10.3778 11.8568 10.3833C11.9715 10.3842 11.9969 10.3533 11.9966 10.2413C11.9921 9.20451 11.9833 8.16743 11.9996 7.13094C12.0051 6.77526 12.0193 6.41291 12.1243 6.06601C12.3019 5.47875 12.5812 4.9484 13.0282 4.51915C13.5054 4.06115 14.0449 3.6976 14.6837 3.50749C15.147 3.36946 15.623 3.29771 16.1084 3.27773C17.4505 3.22204 18.7928 3.27077 20.1346 3.2517C20.2111 3.25049 20.2381 3.26865 20.2378 3.35069C20.2351 4.58393 20.2338 5.81687 20.239 7.05012C20.2396 7.18361 20.1576 7.15153 20.0919 7.15153C19.3033 7.15274 18.5147 7.14093 17.7268 7.15486C17.3092 7.16242 16.9972 7.37099 16.7826 7.73879C16.7115 7.86078 16.7003 7.97702 16.7003 8.10507C16.7003 8.81462 16.703 9.52448 16.6976 10.234C16.6967 10.3512 16.7257 10.3839 16.8456 10.3833C17.9225 10.3784 18.9995 10.3833 20.0765 10.3769C20.209 10.3763 20.2541 10.4069 20.2378 10.5407C20.1603 11.1758 20.1182 11.8145 20.0335 12.4496C19.9675 12.9442 19.9016 13.4382 19.8256 13.931C19.8057 14.0615 19.7566 14.0706 19.654 14.0703C18.7169 14.0676 17.7797 14.0703 16.8425 14.0651C16.7115 14.0645 16.6688 14.0924 16.6691 14.2347C16.6749 15.9762 16.6728 17.7177 16.6728 19.4591L16.6722 19.4588Z" fill="#FEFEFE"/>
</g>
<defs>
<clipPath id="clip0_501_1409">
<rect width="27" height="27" fill="white"/>
</clipPath>
</defs>
</svg>
