<svg width="23" height="25" viewBox="0 0 23 25" fill="none" xmlns="http://www.w3.org/2000/svg">
<path d="M1 5.59961H3.3H21.7" stroke="#9FAFBF" stroke-width="2" stroke-linecap="round" stroke-linejoin="round"/>
<path d="M19.4047 5.6V21.7C19.4047 22.31 19.1624 22.895 18.731 23.3263C18.2997 23.7577 17.7147 24 17.1047 24H5.60469C4.99469 24 4.40968 23.7577 3.97834 23.3263C3.54701 22.895 3.30469 22.31 3.30469 21.7V5.6M6.75469 5.6V3.3C6.75469 2.69 6.99701 2.10499 7.42834 1.67365C7.85968 1.24232 8.44469 1 9.05469 1H13.6547C14.2647 1 14.8497 1.24232 15.281 1.67365C15.7124 2.10499 15.9547 2.69 15.9547 3.3V5.6" stroke="#9FAFBF" stroke-width="2" stroke-linecap="round" stroke-linejoin="round"/>
<path d="M9.05469 11.3496V18.2496" stroke="#9FAFBF" stroke-width="2" stroke-linecap="round" stroke-linejoin="round"/>
<path d="M13.6523 11.3496V18.2496" stroke="#9FAFBF" stroke-width="2" stroke-linecap="round" stroke-linejoin="round"/>
</svg>
