<svg width="32" height="38" viewBox="0 0 32 38" fill="none" xmlns="http://www.w3.org/2000/svg">
<path d="M29.8182 15.9091C29.8182 26.7273 15.9091 36 15.9091 36C15.9091 36 2 26.7273 2 15.9091C2 12.2202 3.46542 8.68234 6.07388 6.07388C8.68234 3.46542 12.2202 2 15.9091 2C19.598 2 23.1358 3.46542 25.7443 6.07388C28.3528 8.68234 29.8182 12.2202 29.8182 15.9091Z" stroke="#0E3860" stroke-width="3.09091" stroke-linecap="round" stroke-linejoin="round"/>
<path d="M15.9098 20.5462C18.4704 20.5462 20.5462 18.4704 20.5462 15.9098C20.5462 13.3492 18.4704 11.2734 15.9098 11.2734C13.3492 11.2734 11.2734 13.3492 11.2734 15.9098C11.2734 18.4704 13.3492 20.5462 15.9098 20.5462Z" stroke="#0E3860" stroke-width="3.09091" stroke-linecap="round" stroke-linejoin="round"/>
</svg>
