<svg width="32" height="34" viewBox="0 0 32 34" fill="none" xmlns="http://www.w3.org/2000/svg">
<path d="M30.2938 16.064L16.9171 29.4406C15.2784 31.0794 13.0558 32 10.7382 32C8.42072 32 6.19811 31.0794 4.55937 29.4406C2.92063 27.8019 2 25.5793 2 23.2618C2 20.9442 2.92063 18.7216 4.55937 17.0829L17.936 3.70625C19.0285 2.61376 20.5102 2 22.0553 2C23.6003 2 25.082 2.61376 26.1745 3.70625C27.267 4.79874 27.8808 6.28048 27.8808 7.82549C27.8808 9.37051 27.267 10.8523 26.1745 11.9447L12.7833 25.3214C12.2371 25.8676 11.4962 26.1745 10.7237 26.1745C9.95118 26.1745 9.21031 25.8676 8.66406 25.3214C8.11782 24.7751 7.81094 24.0343 7.81094 23.2618C7.81094 22.4892 8.11782 21.7484 8.66406 21.2021L21.0218 8.85895" stroke="#0E3860" stroke-opacity="0.7" stroke-width="2.5" stroke-linecap="round" stroke-linejoin="round"/>
</svg>
