<svg width="33" height="33" viewBox="0 0 33 33" fill="none" xmlns="http://www.w3.org/2000/svg">
<g clip-path="url(#clip0_1628_5846)">
<path d="M6.875 28.873V24.748M25.4375 28.873V24.748M6.1875 15.123V15.123C5.04841 15.123 4.125 16.0447 4.125 17.1838C4.125 17.7238 4.125 18.4009 4.125 19.248C4.125 19.6768 4.14463 20.0817 4.17919 20.4622C4.2988 21.7789 4.3586 22.4372 5.62372 23.5926C6.88884 24.748 7.93473 24.748 10.0265 24.748H21.802C24.7098 24.748 26.1637 24.748 27.4265 23.602C27.5055 23.5303 27.6573 23.3785 27.7289 23.2996C28.875 22.0367 28.875 21.1072 28.875 19.248V19.248C28.875 18.5062 28.875 17.7984 28.875 17.1851C28.875 16.046 27.9516 15.123 26.8125 15.123V15.123M6.1875 15.123L7.26477 10.814C8.06811 7.60059 8.46979 5.9939 9.66786 5.05847C10.8659 4.12305 12.5221 4.12305 15.8344 4.12305H17.1656C20.4779 4.12305 22.1341 4.12305 23.3321 5.05847C24.5302 5.9939 24.9319 7.60059 25.7352 10.814L26.8125 15.123M6.1875 15.123H26.8125" stroke="#0E3860" stroke-width="1.3" stroke-linecap="round" stroke-linejoin="round"/>
<path d="M11 19.248C11 20.0074 10.3844 20.623 9.625 20.623C8.86561 20.623 8.25 20.0074 8.25 19.248C8.25 18.4887 8.86561 17.873 9.625 17.873C10.3844 17.873 11 18.4887 11 19.248Z" fill="#0E3860"/>
<path d="M24.75 19.248C24.75 20.0074 24.1344 20.623 23.375 20.623C22.6156 20.623 22 20.0074 22 19.248C22 18.4887 22.6156 17.873 23.375 17.873C24.1344 17.873 24.75 18.4887 24.75 19.248Z" fill="#0E3860"/>
</g>
<defs>
<clipPath id="clip0_1628_5846">
<rect width="33" height="33" fill="white"/>
</clipPath>
</defs>
</svg>
