<svg width="85" height="16" viewBox="0 0 85 16" fill="none" xmlns="http://www.w3.org/2000/svg">
<path d="M7.47853 13.4442C11.0565 13.4442 13.9571 10.6585 13.9571 7.22209C13.9571 3.78572 11.0565 1 7.47853 1C3.90054 1 1 3.78572 1 7.22209C1 10.6585 3.90054 13.4442 7.47853 13.4442Z" stroke="white" stroke-width="1.5" stroke-linecap="round" stroke-linejoin="round"/>
<path d="M15.5774 15.0004L12.0547 11.6172" stroke="white" stroke-width="1.5" stroke-linecap="round" stroke-linejoin="round"/>
<path d="M27.256 12.098C26.6027 12.098 26.0147 11.986 25.492 11.762C24.9693 11.5287 24.5587 11.202 24.26 10.782C23.9613 10.362 23.812 9.872 23.812 9.312H25.52C25.5573 9.732 25.7207 10.0773 26.01 10.348C26.3087 10.6187 26.724 10.754 27.256 10.754C27.8067 10.754 28.236 10.6233 28.544 10.362C28.852 10.0913 29.006 9.746 29.006 9.326C29.006 8.99933 28.908 8.73333 28.712 8.528C28.5253 8.32267 28.2873 8.164 27.998 8.052C27.718 7.94 27.326 7.81867 26.822 7.688C26.1873 7.52 25.6693 7.352 25.268 7.184C24.876 7.00667 24.54 6.736 24.26 6.372C23.98 6.008 23.84 5.52267 23.84 4.916C23.84 4.356 23.98 3.866 24.26 3.446C24.54 3.026 24.932 2.704 25.436 2.48C25.94 2.256 26.5233 2.144 27.186 2.144C28.1287 2.144 28.8987 2.382 29.496 2.858C30.1027 3.32467 30.4387 3.96867 30.504 4.79H28.74C28.712 4.43533 28.544 4.132 28.236 3.88C27.928 3.628 27.522 3.502 27.018 3.502C26.5607 3.502 26.1873 3.61867 25.898 3.852C25.6087 4.08533 25.464 4.42133 25.464 4.86C25.464 5.15867 25.5527 5.406 25.73 5.602C25.9167 5.78867 26.15 5.938 26.43 6.05C26.71 6.162 27.0927 6.28333 27.578 6.414C28.222 6.59133 28.7447 6.76867 29.146 6.946C29.5567 7.12333 29.902 7.39867 30.182 7.772C30.4713 8.136 30.616 8.626 30.616 9.242C30.616 9.73667 30.4807 10.2033 30.21 10.642C29.9487 11.0807 29.5613 11.4353 29.048 11.706C28.544 11.9673 27.9467 12.098 27.256 12.098ZM39.4526 7.954C39.4526 8.24333 39.4339 8.50467 39.3966 8.738H33.5026C33.5492 9.354 33.7779 9.84867 34.1886 10.222C34.5992 10.5953 35.1032 10.782 35.7006 10.782C36.5592 10.782 37.1659 10.4227 37.5206 9.704H39.2426C39.0092 10.4133 38.5846 10.9967 37.9686 11.454C37.3619 11.902 36.6059 12.126 35.7006 12.126C34.9632 12.126 34.3006 11.9627 33.7126 11.636C33.1339 11.3 32.6766 10.8333 32.3406 10.236C32.0139 9.62933 31.8506 8.92933 31.8506 8.136C31.8506 7.34267 32.0092 6.64733 32.3266 6.05C32.6532 5.44333 33.1059 4.97667 33.6846 4.65C34.2726 4.32333 34.9446 4.16 35.7006 4.16C36.4286 4.16 37.0772 4.31867 37.6466 4.636C38.2159 4.95333 38.6592 5.40133 38.9766 5.98C39.2939 6.54933 39.4526 7.20733 39.4526 7.954ZM37.7866 7.45C37.7772 6.862 37.5672 6.39067 37.1566 6.036C36.7459 5.68133 36.2372 5.504 35.6306 5.504C35.0799 5.504 34.6086 5.68133 34.2166 6.036C33.8246 6.38133 33.5912 6.85267 33.5166 7.45H37.7866ZM40.3746 8.108C40.3746 7.33333 40.5332 6.64733 40.8506 6.05C41.1772 5.45267 41.6159 4.99067 42.1666 4.664C42.7266 4.328 43.3426 4.16 44.0146 4.16C44.6212 4.16 45.1486 4.28133 45.5966 4.524C46.0539 4.75733 46.4179 5.05133 46.6886 5.406V4.286H48.2986V12H46.6886V10.852C46.4179 11.216 46.0492 11.5193 45.5826 11.762C45.1159 12.0047 44.5839 12.126 43.9866 12.126C43.3239 12.126 42.7172 11.958 42.1666 11.622C41.6159 11.2767 41.1772 10.8007 40.8506 10.194C40.5332 9.578 40.3746 8.88267 40.3746 8.108ZM46.6886 8.136C46.6886 7.604 46.5766 7.142 46.3526 6.75C46.1379 6.358 45.8532 6.05933 45.4986 5.854C45.1439 5.64867 44.7612 5.546 44.3506 5.546C43.9399 5.546 43.5572 5.64867 43.2026 5.854C42.8479 6.05 42.5586 6.344 42.3346 6.736C42.1199 7.11867 42.0126 7.576 42.0126 8.108C42.0126 8.64 42.1199 9.10667 42.3346 9.508C42.5586 9.90933 42.8479 10.2173 43.2026 10.432C43.5666 10.6373 43.9492 10.74 44.3506 10.74C44.7612 10.74 45.1439 10.6373 45.4986 10.432C45.8532 10.2267 46.1379 9.928 46.3526 9.536C46.5766 9.13467 46.6886 8.668 46.6886 8.136ZM51.8742 5.406C52.1075 5.014 52.4155 4.71067 52.7982 4.496C53.1902 4.272 53.6522 4.16 54.1842 4.16V5.812H53.7782C53.1529 5.812 52.6769 5.97067 52.3502 6.288C52.0329 6.60533 51.8742 7.156 51.8742 7.94V12H50.2782V4.286H51.8742V5.406ZM55.0026 8.136C55.0026 7.34267 55.1613 6.64733 55.4786 6.05C55.8053 5.44333 56.2533 4.97667 56.8226 4.65C57.392 4.32333 58.0453 4.16 58.7826 4.16C59.716 4.16 60.486 4.384 61.0926 4.832C61.7086 5.27067 62.124 5.90067 62.3386 6.722H60.6166C60.4766 6.33933 60.2526 6.04067 59.9446 5.826C59.6366 5.61133 59.2493 5.504 58.7826 5.504C58.1293 5.504 57.6066 5.73733 57.2146 6.204C56.832 6.66133 56.6406 7.30533 56.6406 8.136C56.6406 8.96667 56.832 9.61533 57.2146 10.082C57.6066 10.5487 58.1293 10.782 58.7826 10.782C59.7066 10.782 60.318 10.376 60.6166 9.564H62.3386C62.1146 10.348 61.6946 10.9733 61.0786 11.44C60.4626 11.8973 59.6973 12.126 58.7826 12.126C58.0453 12.126 57.392 11.9627 56.8226 11.636C56.2533 11.3 55.8053 10.8333 55.4786 10.236C55.1613 9.62933 55.0026 8.92933 55.0026 8.136ZM67.8025 4.16C68.3905 4.16 68.9132 4.286 69.3705 4.538C69.8372 4.79 70.2012 5.16333 70.4625 5.658C70.7332 6.15267 70.8685 6.75 70.8685 7.45V12H69.2865V7.688C69.2865 6.99733 69.1138 6.47 68.7685 6.106C68.4232 5.73267 67.9518 5.546 67.3545 5.546C66.7572 5.546 66.2812 5.73267 65.9265 6.106C65.5812 6.47 65.4085 6.99733 65.4085 7.688V12H63.8125V1.64H65.4085V5.182C65.6792 4.85533 66.0198 4.60333 66.4305 4.426C66.8505 4.24867 67.3078 4.16 67.8025 4.16Z" fill="white"/>
</svg>
