<svg width="21" height="23" viewBox="0 0 21 23" fill="none" xmlns="http://www.w3.org/2000/svg">
<path d="M1.52344 5.24219H3.57634H19.9995" stroke="#2695FF" stroke-width="1.5" stroke-linecap="round" stroke-linejoin="round"/>
<path d="M17.9484 5.24252V19.6128C17.9484 20.1573 17.7321 20.6794 17.3471 21.0644C16.9621 21.4494 16.44 21.6657 15.8955 21.6657H5.63102C5.08656 21.6657 4.5644 21.4494 4.17941 21.0644C3.79441 20.6794 3.57813 20.1573 3.57812 19.6128V5.24252M6.65747 5.24252V3.18962C6.65747 2.64516 6.87376 2.12299 7.25876 1.738C7.64375 1.35301 8.16591 1.13672 8.71037 1.13672H12.8162C13.3606 1.13672 13.8828 1.35301 14.2678 1.738C14.6528 2.12299 14.8691 2.64516 14.8691 3.18962V5.24252" stroke="#2695FF" stroke-width="1.5" stroke-linecap="round" stroke-linejoin="round"/>
<path d="M8.71094 10.375V16.5337" stroke="#2695FF" stroke-width="1.5" stroke-linecap="round" stroke-linejoin="round"/>
<path d="M12.8125 10.375V16.5337" stroke="#2695FF" stroke-width="1.5" stroke-linecap="round" stroke-linejoin="round"/>
</svg>
