<svg width="24" height="24" viewBox="0 0 24 24" fill="none" xmlns="http://www.w3.org/2000/svg">
<path d="M12 23C18.0751 23 23 18.0751 23 12C23 5.92487 18.0751 1 12 1C5.92487 1 1 5.92487 1 12C1 18.0751 5.92487 23 12 23Z" stroke="#0E3860" stroke-linecap="round" stroke-linejoin="round"/>
<path d="M17.1288 6.30859L15.9057 7.53172M15.9057 7.53172L17.7404 9.3664L15.5999 11.5069L13.7652 9.67218M15.9057 7.53172L13.7652 9.67218M11.2517 12.1857C11.5675 12.4973 11.8185 12.8682 11.9903 13.2772C12.1621 13.6862 12.2514 14.1251 12.2528 14.5687C12.2543 15.0123 12.1681 15.4518 11.999 15.862C11.8299 16.2721 11.5814 16.6447 11.2677 16.9584C10.954 17.2721 10.5814 17.5206 10.1713 17.6897C9.76113 17.8588 9.32161 17.945 8.87801 17.9436C8.4344 17.9421 7.99547 17.8529 7.58649 17.681C7.17751 17.5092 6.80655 17.2582 6.49498 16.9424C5.88228 16.308 5.54324 15.4584 5.55091 14.5765C5.55857 13.6945 5.91232 12.8509 6.53595 12.2273C7.15959 11.6036 8.00322 11.2499 8.88514 11.2422C9.76706 11.2346 10.6167 11.5736 11.2511 12.1863L11.2517 12.1857ZM11.2517 12.1857L13.7652 9.67218" stroke="#0E3860" stroke-linecap="round" stroke-linejoin="round"/>
</svg>
