<svg width="100" height="22" viewBox="0 0 100 22" fill="none" xmlns="http://www.w3.org/2000/svg">
<path d="M2.625 7.5H10.5M18.375 7.5H15.75" stroke="white" stroke-width="1.75" stroke-linecap="round"/>
<path d="M2.625 14.5H5.25M18.375 14.5H10.5" stroke="white" stroke-width="1.75" stroke-linecap="round"/>
<circle cx="13.125" cy="7.5" r="2.625" stroke="white" stroke-width="1.75"/>
<circle cx="7.875" cy="14.5" r="2.625" stroke="white" stroke-width="1.75"/>
<path d="M34.916 14.012H30.842L30.142 16H28.476L31.962 6.256H33.81L37.296 16H35.616L34.916 14.012ZM34.468 12.71L32.886 8.188L31.29 12.71H34.468ZM38.1297 12.108C38.1297 11.3333 38.2884 10.6473 38.6057 10.05C38.9324 9.45267 39.3711 8.99067 39.9217 8.664C40.4817 8.328 41.1024 8.16 41.7837 8.16C42.2877 8.16 42.7824 8.272 43.2677 8.496C43.7624 8.71067 44.1544 9 44.4437 9.364V5.64H46.0537V16H44.4437V14.838C44.1824 15.2113 43.8184 15.5193 43.3517 15.762C42.8944 16.0047 42.3671 16.126 41.7697 16.126C41.0977 16.126 40.4817 15.958 39.9217 15.622C39.3711 15.2767 38.9324 14.8007 38.6057 14.194C38.2884 13.578 38.1297 12.8827 38.1297 12.108ZM44.4437 12.136C44.4437 11.604 44.3317 11.142 44.1077 10.75C43.8931 10.358 43.6084 10.0593 43.2537 9.854C42.8991 9.64867 42.5164 9.546 42.1057 9.546C41.6951 9.546 41.3124 9.64867 40.9577 9.854C40.6031 10.05 40.3137 10.344 40.0897 10.736C39.8751 11.1187 39.7677 11.576 39.7677 12.108C39.7677 12.64 39.8751 13.1067 40.0897 13.508C40.3137 13.9093 40.6031 14.2173 40.9577 14.432C41.3217 14.6373 41.7044 14.74 42.1057 14.74C42.5164 14.74 42.8991 14.6373 43.2537 14.432C43.6084 14.2267 43.8931 13.928 44.1077 13.536C44.3317 13.1347 44.4437 12.668 44.4437 12.136ZM50.982 14.572L53.166 8.286H54.86L51.92 16H50.016L47.09 8.286H48.798L50.982 14.572ZM55.3844 12.108C55.3844 11.3333 55.5431 10.6473 55.8604 10.05C56.1871 9.45267 56.6257 8.99067 57.1764 8.664C57.7364 8.328 58.3524 8.16 59.0244 8.16C59.6311 8.16 60.1584 8.28133 60.6064 8.524C61.0637 8.75733 61.4277 9.05133 61.6984 9.406V8.286H63.3084V16H61.6984V14.852C61.4277 15.216 61.0591 15.5193 60.5924 15.762C60.1257 16.0047 59.5937 16.126 58.9964 16.126C58.3337 16.126 57.7271 15.958 57.1764 15.622C56.6257 15.2767 56.1871 14.8007 55.8604 14.194C55.5431 13.578 55.3844 12.8827 55.3844 12.108ZM61.6984 12.136C61.6984 11.604 61.5864 11.142 61.3624 10.75C61.1477 10.358 60.8631 10.0593 60.5084 9.854C60.1537 9.64867 59.7711 9.546 59.3604 9.546C58.9497 9.546 58.5671 9.64867 58.2124 9.854C57.8577 10.05 57.5684 10.344 57.3444 10.736C57.1297 11.1187 57.0224 11.576 57.0224 12.108C57.0224 12.64 57.1297 13.1067 57.3444 13.508C57.5684 13.9093 57.8577 14.2173 58.2124 14.432C58.5764 14.6373 58.9591 14.74 59.3604 14.74C59.7711 14.74 60.1537 14.6373 60.5084 14.432C60.8631 14.2267 61.1477 13.928 61.3624 13.536C61.5864 13.1347 61.6984 12.668 61.6984 12.136ZM69.1467 8.16C69.7534 8.16 70.2947 8.286 70.7707 8.538C71.256 8.79 71.634 9.16333 71.9047 9.658C72.1754 10.1527 72.3107 10.75 72.3107 11.45V16H70.7287V11.688C70.7287 10.9973 70.556 10.47 70.2107 10.106C69.8654 9.73267 69.394 9.546 68.7967 9.546C68.1994 9.546 67.7234 9.73267 67.3687 10.106C67.0234 10.47 66.8507 10.9973 66.8507 11.688V16H65.2547V8.286H66.8507V9.168C67.112 8.85067 67.4434 8.60333 67.8447 8.426C68.2554 8.24867 68.6894 8.16 69.1467 8.16ZM73.6645 12.136C73.6645 11.3427 73.8232 10.6473 74.1405 10.05C74.4672 9.44333 74.9152 8.97667 75.4845 8.65C76.0538 8.32333 76.7072 8.16 77.4445 8.16C78.3778 8.16 79.1478 8.384 79.7545 8.832C80.3705 9.27067 80.7858 9.90067 81.0005 10.722H79.2785C79.1385 10.3393 78.9145 10.0407 78.6065 9.826C78.2985 9.61133 77.9112 9.504 77.4445 9.504C76.7912 9.504 76.2685 9.73733 75.8765 10.204C75.4938 10.6613 75.3025 11.3053 75.3025 12.136C75.3025 12.9667 75.4938 13.6153 75.8765 14.082C76.2685 14.5487 76.7912 14.782 77.4445 14.782C78.3685 14.782 78.9798 14.376 79.2785 13.564H81.0005C80.7765 14.348 80.3565 14.9733 79.7405 15.44C79.1245 15.8973 78.3592 16.126 77.4445 16.126C76.7072 16.126 76.0538 15.9627 75.4845 15.636C74.9152 15.3 74.4672 14.8333 74.1405 14.236C73.8232 13.6293 73.6645 12.9293 73.6645 12.136ZM89.511 11.954C89.511 12.2433 89.4923 12.5047 89.455 12.738H83.561C83.6077 13.354 83.8363 13.8487 84.247 14.222C84.6577 14.5953 85.1617 14.782 85.759 14.782C86.6177 14.782 87.2243 14.4227 87.579 13.704H89.301C89.0677 14.4133 88.643 14.9967 88.027 15.454C87.4203 15.902 86.6643 16.126 85.759 16.126C85.0217 16.126 84.359 15.9627 83.771 15.636C83.1923 15.3 82.735 14.8333 82.399 14.236C82.0723 13.6293 81.909 12.9293 81.909 12.136C81.909 11.3427 82.0677 10.6473 82.385 10.05C82.7117 9.44333 83.1643 8.97667 83.743 8.65C84.331 8.32333 85.003 8.16 85.759 8.16C86.487 8.16 87.1357 8.31867 87.705 8.636C88.2743 8.95333 88.7177 9.40133 89.035 9.98C89.3523 10.5493 89.511 11.2073 89.511 11.954ZM87.845 11.45C87.8357 10.862 87.6257 10.3907 87.215 10.036C86.8043 9.68133 86.2957 9.504 85.689 9.504C85.1383 9.504 84.667 9.68133 84.275 10.036C83.883 10.3813 83.6497 10.8527 83.575 11.45H87.845ZM90.3996 12.108C90.3996 11.3333 90.5583 10.6473 90.8756 10.05C91.2023 9.45267 91.641 8.99067 92.1916 8.664C92.7516 8.328 93.3723 8.16 94.0536 8.16C94.5576 8.16 95.0523 8.272 95.5376 8.496C96.0323 8.71067 96.4243 9 96.7136 9.364V5.64H98.3236V16H96.7136V14.838C96.4523 15.2113 96.0883 15.5193 95.6216 15.762C95.1643 16.0047 94.637 16.126 94.0396 16.126C93.3676 16.126 92.7516 15.958 92.1916 15.622C91.641 15.2767 91.2023 14.8007 90.8756 14.194C90.5583 13.578 90.3996 12.8827 90.3996 12.108ZM96.7136 12.136C96.7136 11.604 96.6016 11.142 96.3776 10.75C96.163 10.358 95.8783 10.0593 95.5236 9.854C95.169 9.64867 94.7863 9.546 94.3756 9.546C93.965 9.546 93.5823 9.64867 93.2276 9.854C92.873 10.05 92.5836 10.344 92.3596 10.736C92.145 11.1187 92.0376 11.576 92.0376 12.108C92.0376 12.64 92.145 13.1067 92.3596 13.508C92.5836 13.9093 92.873 14.2173 93.2276 14.432C93.5916 14.6373 93.9743 14.74 94.3756 14.74C94.7863 14.74 95.169 14.6373 95.5236 14.432C95.8783 14.2267 96.163 13.928 96.3776 13.536C96.6016 13.1347 96.7136 12.668 96.7136 12.136Z" fill="white"/>
</svg>
