<svg width="11" height="12" viewBox="0 0 11 12" fill="none" xmlns="http://www.w3.org/2000/svg">
<path d="M1.49023 4.49423V2.06389C1.49023 2.05234 1.4996 2.04297 1.51116 2.04297H3.17077C3.18232 2.04297 3.19169 2.05234 3.19169 2.06389V2.92742" stroke="#0E3860" stroke-width="0.35" stroke-linecap="round"/>
<path d="M0.382812 5.64099L5.1365 1.01401C5.14454 1.00618 5.15733 1.0061 5.16548 1.01382L10.0495 5.64099" stroke="#0E3860" stroke-width="0.35" stroke-linecap="round"/>
<path d="M9.56713 11H0.869141" stroke="#0E3860" stroke-width="0.35"/>
<path d="M0.853516 10.9884V5.26562" stroke="#0E3860" stroke-width="0.35" stroke-linecap="round"/>
<path d="M9.57422 10.9932V5.21094" stroke="#0E3860" stroke-width="0.35" stroke-linecap="round"/>
<path d="M2.00391 5.89983C2.00391 5.88827 2.01327 5.87891 2.02483 5.87891H4.44583C4.45738 5.87891 4.46675 5.88827 4.46675 5.89983V10.9907H2.00391V5.89983Z" stroke="#0E3860" stroke-width="0.35"/>
<rect x="5.66406" y="5.87891" width="2.901" height="2.74845" rx="0.0209225" stroke="#0E3860" stroke-width="0.35"/>
<path d="M5.66211 7.25391H8.56813" stroke="#0E3860" stroke-width="0.35" stroke-linecap="square"/>
<path d="M7.10352 5.87891L7.10352 8.63212" stroke="#0E3860" stroke-width="0.35" stroke-linecap="square"/>
</svg>
