<svg width="20" height="22" viewBox="0 0 20 22" fill="none" xmlns="http://www.w3.org/2000/svg">
<path d="M16 7C16 5.4087 15.3679 3.88258 14.2426 2.75736C13.1174 1.63214 11.5913 1 10 1C8.4087 1 6.88258 1.63214 5.75736 2.75736C4.63214 3.88258 4 5.4087 4 7C4 14 1 16 1 16H19C19 16 16 14 16 7Z" stroke="#2695FF" stroke-width="1.5" stroke-linecap="round" stroke-linejoin="round"/>
<path d="M11.7334 20C11.5576 20.3031 11.3053 20.5547 11.0017 20.7295C10.698 20.9044 10.3538 20.9965 10.0034 20.9965C9.65306 20.9965 9.30883 20.9044 9.00521 20.7295C8.70159 20.5547 8.44925 20.3031 8.27344 20" stroke="#2695FF" stroke-width="1.5" stroke-linecap="round" stroke-linejoin="round"/>
</svg>
