<svg width="14" height="14" viewBox="0 0 14 14" fill="none" xmlns="http://www.w3.org/2000/svg">
<rect x="0.304348" y="0.304348" width="13.3913" height="13.3913" rx="0.304348" stroke="#0E3860" stroke-width="0.608696" stroke-dasharray="4.26 4.26"/>
<mask id="path-2-inside-1_1339_5356" fill="white">
<rect y="6.69531" width="7.30435" height="7.30435" rx="0.31758"/>
</mask>
<rect y="6.69531" width="7.30435" height="7.30435" rx="0.31758" stroke="#0E3860" stroke-width="1.21739" mask="url(#path-2-inside-1_1339_5356)"/>
<path d="M10.3478 3.95703C10.3478 3.78894 10.2116 3.65268 10.0435 3.65268L7.30435 3.65268C7.13626 3.65268 7 3.78894 7 3.95703C7 4.12512 7.13626 4.26138 7.30435 4.26138L9.73913 4.26138V6.69616C9.73913 6.86425 9.87539 7.00051 10.0435 7.00051C10.2116 7.00051 10.3478 6.86425 10.3478 6.69616V3.95703ZM7.21521 7.21572L10.2587 4.17224L9.82827 3.74182L6.78479 6.7853L7.21521 7.21572Z" fill="#0E3860"/>
</svg>
