<svg width="23" height="23" viewBox="0 0 23 23" fill="none" xmlns="http://www.w3.org/2000/svg">
<path d="M13.1543 20.0898C12.9865 20.3791 12.7456 20.6193 12.4558 20.7862C12.166 20.9531 11.8374 21.041 11.5029 21.041C11.1685 21.041 10.8399 20.9531 10.5501 20.7862C10.2603 20.6193 10.0194 20.3791 9.85156 20.0898" stroke="#707070" stroke-width="1.5" stroke-linecap="round" stroke-linejoin="round"/>
<path d="M17.8301 12.4524C17.4055 10.8978 17.203 9.291 17.2287 7.67969" stroke="#707070" stroke-width="1.5" stroke-linecap="round" stroke-linejoin="round"/>
<path d="M6.02588 6.01953C5.86004 6.55752 5.77637 7.11747 5.7777 7.68044C5.7777 14.3623 2.91406 16.2713 2.91406 16.2713H16.2777" stroke="#707070" stroke-width="1.5" stroke-linecap="round" stroke-linejoin="round"/>
<path d="M17.234 7.68108C17.2356 6.64355 16.9552 5.62509 16.423 4.73449C15.8907 3.84388 15.1265 3.11459 14.2121 2.62451C13.2976 2.13443 12.2671 1.90197 11.2308 1.95197C10.1945 2.00196 9.19119 2.33253 8.32812 2.90836" stroke="#707070" stroke-width="1.5" stroke-linecap="round" stroke-linejoin="round"/>
<path d="M1 1L22 22" stroke="#707070" stroke-width="1.5" stroke-linecap="round" stroke-linejoin="round"/>
</svg>
