<svg width="20" height="14" viewBox="0 0 20 14" fill="none" xmlns="http://www.w3.org/2000/svg">
<g clip-path="url(#clip0_1339_5354)">
<path d="M0.47191 5.78371V13.5258H2.32529V5.83978C2.32529 5.81641 2.3284 5.79305 2.33463 5.77281C2.63989 4.29322 3.22861 3.34628 4.03226 2.80429C4.84214 2.25762 5.8576 2.13302 7.01168 2.29967C7.14095 2.31836 7.22973 2.43673 7.21259 2.566C7.20792 2.59715 7.19858 2.62518 7.18456 2.6501C6.71576 3.46777 6.51174 4.2901 6.58961 5.11556C6.66904 5.94724 7.03504 6.79138 7.70475 7.6511C7.76705 7.73053 7.77016 7.83644 7.72188 7.91743C7.65803 8.02489 7.62843 8.13236 7.63155 8.24294C7.63622 8.35507 7.6736 8.475 7.7468 8.60427L8.16576 9.08396C8.20781 9.12446 8.2483 9.14626 8.2888 9.14626C8.34642 9.14626 8.41962 9.11044 8.51151 9.03724L15.2008 2.27631C15.2444 2.22336 15.2631 2.18442 15.26 2.15794C15.2553 2.12679 15.2242 2.08786 15.1665 2.04113C15.1541 2.03023 15.1416 2.01933 15.1323 2.00687L15.0996 1.96638C15.0996 1.96638 15.0933 1.95703 15.0902 1.95392C14.7273 1.51004 14.6588 1.43528 13.9735 1.54898C13.9081 1.55988 13.8458 1.54275 13.796 1.50848C12.8911 0.919763 12.0111 0.574007 11.1592 0.493019C10.3151 0.412031 9.4896 0.592696 8.68751 1.05215C8.61742 1.09264 8.53488 1.09264 8.46635 1.05993C7.76082 0.771804 7.07554 0.595811 6.41985 0.524168C5.17855 0.388669 4.04939 0.625403 3.11648 1.17986C2.18356 1.73431 1.44065 2.60805 0.973412 3.74499C0.727333 4.34461 0.55757 5.01899 0.476582 5.75879C0.475025 5.76658 0.475025 5.77436 0.47191 5.78371ZM12.5998 7.53118L12.6232 7.49536C12.7462 7.31936 12.9939 7.27731 13.1699 7.40191L15.5076 9.03412C15.6836 9.15716 15.7257 9.4048 15.6011 9.58079L15.5777 9.61661C15.4547 9.79261 15.207 9.83466 15.031 9.71006L12.6933 8.07629C12.5173 7.95325 12.4768 7.70717 12.5998 7.53118ZM10.5269 9.09954L10.5502 9.06372C10.6733 8.88772 10.9209 8.84567 11.0969 8.97027L13.4346 10.6025C13.6106 10.7255 13.6527 10.9732 13.5281 11.1492L13.5047 11.185C13.3817 11.361 13.1341 11.403 12.9581 11.2784L10.6203 9.64465C10.4443 9.52161 10.4038 9.27553 10.5269 9.09954ZM14.3271 5.83978L14.3504 5.80395C14.4735 5.62796 14.7211 5.58591 14.8971 5.71051L17.2348 7.34272C17.4108 7.46576 17.4529 7.7134 17.3283 7.88939L17.3049 7.92521C17.1819 8.10121 16.9343 8.14326 16.7583 8.01866L14.4205 6.38489C14.2445 6.26185 14.204 6.01577 14.3271 5.83978ZM16.0652 4.09386L16.0886 4.05804C16.2116 3.88205 16.4592 3.84 16.6352 3.9646L18.973 5.59681C19.149 5.71985 19.191 5.96749 19.0664 6.14348L19.0431 6.1793C18.92 6.35529 18.6724 6.39735 18.4964 6.27275L16.1586 4.64053C15.9826 4.51749 15.9422 4.27141 16.0652 4.09386ZM0 13.7626V5.73854C0 5.71206 0.00467238 5.68559 0.0124597 5.66067C0.101235 4.8944 0.280343 4.19198 0.537323 3.56277C1.0435 2.32771 1.85338 1.37766 2.87507 0.770246C3.89521 0.164395 5.12404 -0.0957008 6.46969 0.0507004C7.13939 0.123901 7.83713 0.298336 8.55357 0.583351C9.41173 0.116114 10.2948 -0.066109 11.2028 0.0211087C12.1124 0.108326 13.039 0.463427 13.9844 1.06772C14.855 0.930665 14.9578 1.04903 15.4531 1.65333C15.4562 1.658 15.4609 1.66111 15.464 1.66579L15.4843 1.68915C15.6244 1.80907 15.7085 1.94301 15.7272 2.09409C15.749 2.25762 15.6945 2.4196 15.559 2.58157C15.559 2.58157 15.5497 2.59092 15.545 2.59715L8.83702 9.37677C8.83702 9.37677 8.82456 9.38767 8.81833 9.3939C8.63455 9.54341 8.46168 9.6135 8.29659 9.61661C8.11592 9.61973 7.96017 9.54653 7.82623 9.41259C7.82623 9.41259 7.82 9.4048 7.81533 9.40168L7.37457 8.89707C7.36522 8.88617 7.35588 8.87371 7.34809 8.86125C7.22817 8.65722 7.16431 8.45631 7.15652 8.26007C7.15029 8.10899 7.17833 7.96259 7.23751 7.82242C6.56781 6.93 6.20024 6.0438 6.11614 5.16072C6.03827 4.33994 6.20492 3.52851 6.60363 2.72642C5.70342 2.64387 4.91846 2.77314 4.29236 3.19521C3.5915 3.66868 3.07287 4.51749 2.79408 5.86002V13.7626C2.79408 13.8934 2.68817 13.9993 2.55735 13.9993H0.236734C0.105907 13.9993 0 13.8934 0 13.7626Z" fill="#0E3860"/>
</g>
<defs>
<clipPath id="clip0_1339_5354">
<rect width="19.1381" height="14" fill="white"/>
</clipPath>
</defs>
</svg>
