<svg width="18" height="14" viewBox="0 0 18 14" fill="none" xmlns="http://www.w3.org/2000/svg">
<path d="M0.977016 9.43606H17.1784V8.78187C17.1784 8.62357 17.1472 8.47649 17.092 8.34481C17.0324 8.20472 16.9446 8.08005 16.8354 7.97218C16.7688 7.90634 16.6937 7.84611 16.6129 7.79288C16.5307 7.73824 16.4428 7.69061 16.3507 7.64999C16.1027 7.59676 15.8561 7.54633 15.6109 7.4987C15.3643 7.45107 15.1162 7.40624 14.8668 7.36422C14.8554 7.36422 14.8469 7.36142 14.8356 7.35861C14.7094 7.3376 14.589 7.31799 14.4742 7.29978C14.3594 7.28157 14.2375 7.26336 14.1099 7.24375H14.1071C13.2397 7.13448 12.3751 7.05043 11.512 6.9944C10.6474 6.93836 9.78709 6.91035 8.93244 6.90895C8.42504 6.90895 7.91906 6.91735 7.41307 6.93696C6.90993 6.95657 6.40394 6.98459 5.89796 7.02381H5.89512C5.42174 7.06724 4.94977 7.12187 4.47638 7.18491C4.00442 7.24795 3.53103 7.32219 3.05481 7.40484L3.00237 7.41745C2.99245 7.42025 2.98253 7.42165 2.97402 7.42165C2.96552 7.42165 2.95701 7.42165 2.94851 7.42165C2.72599 7.46088 2.4978 7.5043 2.26253 7.55053C2.03434 7.59536 1.80615 7.64299 1.57938 7.69201C1.52269 7.72283 1.46883 7.75785 1.4178 7.79428C1.36678 7.8321 1.31717 7.87272 1.27324 7.91615C1.17828 8.01 1.10316 8.11787 1.05213 8.23834C1.00395 8.35181 0.977016 8.47789 0.977016 8.61517V9.43466V9.43606ZM2.3915 0H15.5712C15.7427 0 15.9071 0.0336202 16.0573 0.0952571C16.2132 0.159696 16.3535 0.253552 16.4712 0.368421C16.5888 0.484691 16.6838 0.623374 16.7476 0.777466C16.8099 0.925956 16.8439 1.08845 16.8439 1.25795V7.23814C16.9162 7.28017 16.9871 7.3264 17.0523 7.37683C17.126 7.43286 17.1954 7.49169 17.2592 7.55473C17.4236 7.71723 17.5568 7.90634 17.6461 8.11927C17.7312 8.31959 17.778 8.54233 17.778 8.78327V9.63638C17.7822 9.65039 17.7865 9.6644 17.7893 9.67841V9.68121C17.7921 9.69942 17.7935 9.71623 17.7935 9.73304C17.7935 9.75125 17.7921 9.76946 17.7879 9.78767C17.785 9.80168 17.7808 9.81569 17.7765 9.8297V13.7044C17.7765 13.7857 17.7425 13.8599 17.6887 13.9131C17.6348 13.9664 17.5597 14 17.4775 14H16.8609C16.7915 14 16.7277 13.9762 16.6767 13.937C16.6257 13.8977 16.5874 13.8417 16.5718 13.7773C16.4584 13.4551 16.3436 13.2001 16.2203 13.0012C16.0984 12.8051 15.968 12.665 15.8178 12.5655C15.6661 12.4661 15.4847 12.403 15.265 12.3652C15.0411 12.326 14.7803 12.3134 14.4699 12.3148L3.16536 12.3288H3.15969C2.93717 12.3246 2.75434 12.3526 2.60127 12.4114C2.44961 12.4703 2.32631 12.5585 2.22426 12.672C2.10946 12.7981 2.01308 12.9592 1.9252 13.1469C1.83591 13.3388 1.75513 13.5573 1.67434 13.7969C1.6545 13.8585 1.61481 13.9075 1.5652 13.9426C1.51843 13.9762 1.46174 13.9958 1.40363 13.9986C1.39938 14 1.39513 14 1.39087 14H0.677961C0.595756 14 0.520638 13.9664 0.46678 13.9131C0.412922 13.8599 0.378906 13.7857 0.378906 13.7044V8.61797C0.378906 8.39804 0.421426 8.19632 0.497961 8.01421C0.580166 7.82089 0.700638 7.64859 0.850874 7.5001C0.893394 7.45807 0.940166 7.41605 0.989772 7.37683C1.03229 7.34321 1.07481 7.31099 1.12017 7.28157V1.24535C1.12017 1.07585 1.15418 0.914749 1.21654 0.769061C1.28174 0.61637 1.3767 0.479087 1.49434 0.364219C1.61198 0.24935 1.75229 0.158295 1.90678 0.0952571C2.05702 0.0336202 2.22001 0 2.3915 0ZM15.5712 0.591155H2.3915C2.29938 0.591155 2.2115 0.609366 2.13072 0.641585C2.04709 0.675205 1.97339 0.724234 1.91103 0.784471C1.85009 0.843306 1.80048 0.91615 1.76646 0.994597C1.73528 1.07164 1.71828 1.15569 1.71828 1.24535V6.9972C1.76079 6.98319 1.80331 6.97198 1.84725 6.96078C1.9167 6.94256 1.98615 6.92716 2.0556 6.91595C2.15198 6.89914 2.25686 6.88093 2.37024 6.86132C2.45528 6.84731 2.54599 6.8319 2.63953 6.81789V5.34981C2.63953 5.12848 2.68489 4.91695 2.76568 4.72363C2.85072 4.52191 2.97402 4.3412 3.12709 4.18991C3.28016 4.03862 3.463 3.91675 3.66709 3.8327C3.86268 3.75285 4.0767 3.70802 4.30064 3.70802H7.10977C7.3337 3.70802 7.54772 3.75285 7.74331 3.8327C7.9474 3.91675 8.13024 4.03862 8.28331 4.18991C8.43638 4.3412 8.55969 4.52191 8.64473 4.72363C8.72551 4.91695 8.77087 5.12848 8.77087 5.34981V6.28697C8.87008 6.28697 8.96929 6.28697 9.06992 6.28697V5.35121C9.06992 5.12988 9.11528 4.91835 9.19606 4.72503C9.28111 4.52331 9.40441 4.34261 9.55748 4.19131C9.71055 4.04002 9.89339 3.91815 10.0975 3.8341C10.2931 3.75425 10.5071 3.70943 10.731 3.70943H13.5402C13.7641 3.70943 13.9781 3.75425 14.1737 3.8341C14.3778 3.91815 14.5606 4.04002 14.7137 4.19131C14.8668 4.34261 14.9901 4.52331 15.0751 4.72503C15.1559 4.91835 15.2013 5.12988 15.2013 5.35121V6.79968C15.3076 6.81509 15.4209 6.8333 15.5428 6.85291C15.6775 6.87392 15.8065 6.89494 15.9312 6.91595C15.995 6.92716 16.0602 6.93976 16.1254 6.95517C16.1665 6.96498 16.2061 6.97478 16.2444 6.98599V1.25795C16.2444 1.1683 16.226 1.08285 16.1934 1.0044C16.1594 0.923154 16.1083 0.85031 16.046 0.787272C15.9836 0.725635 15.9085 0.675205 15.8277 0.641585C15.7483 0.609366 15.6619 0.591155 15.5712 0.591155ZM6.50315 6.38223C6.78804 6.36122 7.07433 6.34301 7.36489 6.329C7.63276 6.31499 7.90347 6.30518 8.17418 6.29818V5.34981C8.17418 5.20832 8.14583 5.07244 8.09339 4.94917C8.03953 4.82029 7.96016 4.70542 7.86095 4.60736C7.76315 4.51071 7.64552 4.43226 7.51512 4.37763C7.3904 4.3258 7.25292 4.29778 7.10977 4.29778H4.30064C4.15749 4.29778 4.02001 4.3258 3.89528 4.37763C3.76489 4.43086 3.64867 4.50931 3.54946 4.60736C3.45166 4.70402 3.37229 4.82029 3.31701 4.94917C3.26457 5.07244 3.23623 5.20832 3.23623 5.34981V6.72403C3.46583 6.69041 3.69827 6.6596 3.93638 6.62878C4.19292 6.59656 4.44804 6.56714 4.70032 6.53912C4.79812 6.52792 4.903 6.51531 5.01213 6.5041C5.11418 6.4929 5.22048 6.48309 5.33386 6.47188C5.52662 6.45367 5.71796 6.43686 5.90646 6.42145C6.10063 6.40884 6.29906 6.39484 6.50315 6.38223ZM9.66803 6.28977C9.83953 6.29258 10.011 6.29678 10.1825 6.30238C10.3724 6.30798 10.5624 6.31639 10.7509 6.32479H10.7523C11.0627 6.336 11.366 6.35001 11.6608 6.36682C11.9556 6.38363 12.2433 6.40464 12.5183 6.42846C12.918 6.46348 13.3049 6.5055 13.672 6.55453C14.0008 6.59936 14.3126 6.64979 14.6046 6.70582V5.34981C14.6046 5.20832 14.5762 5.07244 14.5238 4.94917C14.4699 4.82029 14.3906 4.70542 14.2913 4.60736C14.1935 4.51071 14.0759 4.43226 13.9455 4.37763C13.8208 4.3258 13.6833 4.29778 13.5402 4.29778H10.7324C10.5893 4.29778 10.4518 4.3258 10.3271 4.37763C10.1967 4.43086 10.0805 4.50931 9.98126 4.60736C9.88347 4.70402 9.8041 4.82029 9.74882 4.94917C9.69638 5.07244 9.66803 5.20832 9.66803 5.34981V6.28977ZM17.1798 10.0286H0.977016V13.4088H1.17969C1.25906 13.1875 1.34127 12.9816 1.43339 12.7981C1.53261 12.602 1.64457 12.4283 1.78064 12.2784C1.94221 12.0991 2.13213 11.9604 2.36032 11.8679C2.58851 11.7769 2.85497 11.7306 3.17528 11.7376L14.4699 11.7236C14.8342 11.7236 15.146 11.7404 15.4181 11.7923C15.6945 11.8441 15.9326 11.9324 16.1466 12.0724C16.345 12.2027 16.5151 12.375 16.6682 12.6006C16.8142 12.8163 16.9446 13.081 17.0693 13.4074H17.177V10.0286H17.1798Z" fill="#0E3860"/>
</svg>
