<svg width="21" height="23" viewBox="0 0 21 23" fill="none" xmlns="http://www.w3.org/2000/svg">
<path d="M1 5.10547H3.0529H19.4761" stroke="#E72A1A" stroke-width="1.5" stroke-linecap="round" stroke-linejoin="round"/>
<path d="M17.425 5.1058V19.4761C17.425 20.0206 17.2087 20.5427 16.8237 20.9277C16.4387 21.3127 15.9165 21.529 15.3721 21.529H5.10759C4.56312 21.529 4.04096 21.3127 3.65597 20.9277C3.27097 20.5427 3.05469 20.0206 3.05469 19.4761V5.1058M6.13404 5.1058V3.0529C6.13404 2.50844 6.35032 1.98627 6.73532 1.60128C7.12031 1.21629 7.64247 1 8.18694 1H12.2927C12.8372 1 13.3594 1.21629 13.7444 1.60128C14.1293 1.98627 14.3456 2.50844 14.3456 3.0529V5.1058" stroke="#E72A1A" stroke-width="1.5" stroke-linecap="round" stroke-linejoin="round"/>
<path d="M8.18359 10.2383V16.397" stroke="#E72A1A" stroke-width="1.5" stroke-linecap="round" stroke-linejoin="round"/>
<path d="M12.293 10.2383V16.397" stroke="#E72A1A" stroke-width="1.5" stroke-linecap="round" stroke-linejoin="round"/>
</svg>
