<svg width="44" height="44" viewBox="0 0 44 44" fill="none" xmlns="http://www.w3.org/2000/svg">
<rect width="44" height="44" rx="4" fill="#EA4335"/>
<path d="M11 14.6895H13.3444H32.0996" stroke="white" stroke-width="2.3444" stroke-linecap="round" stroke-linejoin="round"/>
<path d="M29.7546 14.6888V31.0996C29.7546 31.7214 29.5076 32.3177 29.0679 32.7574C28.6283 33.197 28.032 33.444 27.4102 33.444H15.6882C15.0664 33.444 14.4701 33.197 14.0304 32.7574C13.5907 32.3177 13.3438 31.7214 13.3438 31.0996V14.6888M16.8604 14.6888V12.3444C16.8604 11.7226 17.1074 11.1263 17.547 10.6867C17.9867 10.247 18.583 10 19.2048 10H23.8936C24.5153 10 25.1117 10.247 25.5513 10.6867C25.991 11.1263 26.238 11.7226 26.238 12.3444V14.6888" stroke="white" stroke-width="2.3444" stroke-linecap="round" stroke-linejoin="round"/>
<path d="M19.2031 20.5488V27.582" stroke="white" stroke-width="2.3444" stroke-linecap="round" stroke-linejoin="round"/>
<path d="M23.8945 20.5488V27.582" stroke="white" stroke-width="2.3444" stroke-linecap="round" stroke-linejoin="round"/>
</svg>
