<svg width="44" height="44" viewBox="0 0 44 44" fill="none" xmlns="http://www.w3.org/2000/svg">
<rect width="44" height="44" rx="4" fill="#F8B234"/>
<path d="M27.583 10.9711C27.8909 10.6632 28.2564 10.419 28.6587 10.2524C29.0609 10.0858 29.492 10 29.9274 10C30.3628 10 30.794 10.0858 31.1962 10.2524C31.5985 10.419 31.964 10.6632 32.2718 10.9711C32.5797 11.279 32.8239 11.6445 32.9906 12.0467C33.1572 12.449 33.2429 12.8801 33.2429 13.3155C33.2429 13.7509 33.1572 14.182 32.9906 14.5843C32.8239 14.9865 32.5797 15.352 32.2718 15.6599L16.4471 31.4846L10 33.2429L11.7583 26.7958L27.583 10.9711Z" stroke="white" stroke-width="2.3444" stroke-linecap="round" stroke-linejoin="round"/>
</svg>
