<svg width="110" height="44" viewBox="0 0 110 44" fill="none" xmlns="http://www.w3.org/2000/svg">
<rect width="110" height="44" rx="4.88889" fill="#34D8B3"/>
<path d="M45.9138 24.9445C45.9138 26.4307 44.8578 27.3107 43.0978 27.3107H39.9494V22.5H43.0392C44.7796 22.5 45.9138 23.4387 45.9138 24.9445ZM45.5618 18.8236C45.5618 20.212 44.6036 21.0333 42.9414 21.0333H39.9494V16.6138H42.9023C44.6427 16.6138 45.5618 17.4742 45.5618 18.8236ZM47.6934 25.1205C47.6934 23.4387 46.481 22.0111 44.9947 21.7569C46.305 21.3267 47.3805 20.3293 47.3805 18.6085C47.3805 16.7116 45.9334 15.1471 43.0587 15.1471H38.1698V28.7773H43.2543C46.0703 28.7773 47.6934 27.1738 47.6934 25.1205ZM59.4836 18.0609H57.704V23.9471C57.704 26.2547 56.472 27.3889 54.6338 27.3889C52.8347 27.3889 51.6418 26.2742 51.6418 24.1036V18.0609H49.8818V24.3382C49.8818 27.4085 51.8178 28.9338 54.2818 28.9338C55.7093 28.9338 57.0196 28.308 57.704 27.1933V28.7773H59.4836V18.0609ZM77.7734 28.7773H79.5334V22.4609C79.5334 19.3907 77.6365 17.8653 75.192 17.8653C73.5494 17.8653 72.024 18.7062 71.3982 20.2511C70.6942 18.6476 69.2276 17.8653 67.4676 17.8653C66.0596 17.8653 64.7885 18.4716 64.0845 19.6058V18.0609H62.3049V28.7773H64.0845V22.8716C64.0845 20.564 65.3165 19.4102 67.1156 19.4102C68.8756 19.4102 70.0489 20.5249 70.0489 22.7151V28.7773H71.8089V22.8716C71.8089 20.564 73.0409 19.4102 74.84 19.4102C76.6 19.4102 77.7734 20.5249 77.7734 22.7151V28.7773ZM84.0487 20.036V18.0609H82.2691V33.8618H84.0487V26.8022C84.7136 27.8973 86.102 28.9533 88.0576 28.9533C90.9323 28.9533 93.142 26.7045 93.142 23.38C93.142 20.036 90.9323 17.8849 88.0576 17.8849C86.102 17.8849 84.694 18.9018 84.0487 20.036ZM91.3234 23.38C91.3234 25.9027 89.6611 27.3889 87.686 27.3889C85.75 27.3889 84.0487 25.9222 84.0487 23.3996C84.0487 20.916 85.75 19.4298 87.686 19.4298C89.6611 19.4298 91.3234 20.8573 91.3234 23.38Z" fill="white"/>
<path d="M22.0016 11.8145C16.3997 11.8145 11.8164 16.3978 11.8164 21.9996C11.8164 27.6015 16.3997 32.1848 22.0016 32.1848C27.6034 32.1848 32.1868 27.6015 32.1868 21.9996C32.1868 16.3978 27.6034 11.8145 22.0016 11.8145ZM25.7701 22.7126C25.3627 23.12 24.7516 23.12 24.3442 22.7126L23.0201 21.3885V25.0552C23.0201 25.6663 22.6127 26.0737 22.0016 26.0737C21.3905 26.0737 20.9831 25.6663 20.9831 25.0552V21.3885L19.659 22.7126C19.2516 23.12 18.6405 23.12 18.2331 22.7126C17.8257 22.3052 17.8257 21.6941 18.2331 21.2867L21.2886 18.2311C21.696 17.8237 22.3071 17.8237 22.7146 18.2311L25.7701 21.2867C26.1775 21.6941 26.1775 22.3052 25.7701 22.7126Z" fill="white"/>
</svg>
