<svg width="110" height="44" viewBox="0 0 110 44" fill="none" xmlns="http://www.w3.org/2000/svg">
<rect width="110" height="44" rx="4.88889" fill="#2695FF"/>
<rect width="60" height="24" transform="translate(25 9.77734)" fill="#2695FF"/>
<path d="M35.6578 28.7773H37.5351L32.6267 15.2253H30.5733L25.6453 28.7773H27.5227L28.6178 25.7462H34.5627L35.6578 28.7773ZM34.0542 24.2991H29.1262L31.5902 17.4156L34.0542 24.2991ZM38.8346 23.3996C38.8346 26.8022 41.0053 28.9533 44.056 28.9533C46.7155 28.9533 48.456 27.4671 49.0035 25.3356H47.0871C46.696 26.6849 45.64 27.4476 44.056 27.4476C42.1004 27.4476 40.6533 26.0591 40.6533 23.3996C40.6533 20.7791 42.1004 19.3907 44.056 19.3907C45.64 19.3907 46.7155 20.212 47.0871 21.5027H49.0035C48.456 19.2538 46.7155 17.8849 44.056 17.8849C41.0053 17.8849 38.8346 20.036 38.8346 23.3996ZM51.5858 25.844C51.5858 27.9951 52.6613 28.7773 54.5582 28.7773H56.1618V27.2716H54.8516C53.7564 27.2716 53.3653 26.9 53.3653 25.844V19.5276H56.1618V18.0609H53.3653V15.3622H51.5858V18.0609H50.1973V19.5276H51.5858V25.844ZM58.1346 28.7773H59.9142V18.0609H58.1346V28.7773ZM59.0537 16.3205C59.699 16.3205 60.227 15.7925 60.227 15.108C60.227 14.4236 59.699 13.8956 59.0537 13.8956C58.3693 13.8956 57.8413 14.4236 57.8413 15.108C57.8413 15.7925 58.3693 16.3205 59.0537 16.3205ZM61.4927 18.0609L65.6971 28.7773H67.77L71.9744 18.0609H70.0775L66.7531 27.1347L63.4091 18.0609H61.4927ZM78.0987 19.3907C79.9369 19.3907 81.5013 20.5445 81.4818 22.6369H74.7156C74.9111 20.5445 76.3582 19.3907 78.0987 19.3907ZM83.1049 25.4725H81.1885C80.7973 26.6262 79.7805 27.4476 78.1769 27.4476C76.3582 27.4476 74.8329 26.2547 74.696 24.084H83.2613C83.3005 23.7125 83.32 23.3996 83.32 23.0085C83.32 20.0751 81.2862 17.8849 78.1769 17.8849C75.048 17.8849 72.8773 20.0165 72.8773 23.3996C72.8773 26.8022 75.1262 28.9533 78.1769 28.9533C80.8365 28.9533 82.5573 27.428 83.1049 25.4725Z" fill="white"/>
</svg>
