<svg width="44" height="44" viewBox="0 0 44 44" fill="none" xmlns="http://www.w3.org/2000/svg">
<rect width="44" height="44" rx="4" fill="#2695FF"/>
<path d="M32.6133 12.8894C32.0146 12.2904 31.3037 11.8152 30.5213 11.491C29.7389 11.1669 28.9003 11 28.0534 11C27.2065 11 26.3679 11.1669 25.5855 11.491C24.8031 11.8152 24.0923 12.2904 23.4936 12.8894L22.251 14.1319L21.0085 12.8894C19.7991 11.68 18.1589 11.0006 16.4486 11.0006C14.7383 11.0006 13.0981 11.68 11.8888 12.8894C10.6794 14.0987 10 15.739 10 17.4493C10 19.1595 10.6794 20.7998 11.8888 22.0091L13.1313 23.2517L22.251 32.3714L31.3708 23.2517L32.6133 22.0091C33.2123 21.4104 33.6874 20.6996 34.0116 19.9172C34.3358 19.1348 34.5027 18.2962 34.5027 17.4493C34.5027 16.6024 34.3358 15.7637 34.0116 14.9814C33.6874 14.199 33.2123 13.4881 32.6133 12.8894Z" stroke="white" stroke-width="2.3444" stroke-linecap="round" stroke-linejoin="round"/>
</svg>
