<svg width="36" height="36" viewBox="0 0 36 36" fill="none" xmlns="http://www.w3.org/2000/svg">
<circle cx="18" cy="18" r="18" fill="#FFFDFD"/>
<path d="M16.9355 10.8711H10.7634C10.2957 10.8711 9.84721 11.0569 9.5165 11.3876C9.18579 11.7183 9 12.1668 9 12.6345V24.9786C9 25.4463 9.18579 25.8949 9.5165 26.2256C9.84721 26.5563 10.2957 26.7421 10.7634 26.7421H23.1075C23.5752 26.7421 24.0238 26.5563 24.3545 26.2256C24.6852 25.8949 24.871 25.4463 24.871 24.9786V18.8066" stroke="#0E3860" stroke-width="2" stroke-linecap="round" stroke-linejoin="round"/>
<path d="M23.5471 9.54783C23.8979 9.19706 24.3736 9 24.8697 9C25.3658 9 25.8415 9.19706 26.1923 9.54783C26.5431 9.8986 26.7401 10.3743 26.7401 10.8704C26.7401 11.3665 26.5431 11.8422 26.1923 12.193L17.8159 20.5693L14.2891 21.4511L15.1708 17.9242L23.5471 9.54783Z" stroke="#0E3860" stroke-width="2" stroke-linecap="round" stroke-linejoin="round"/>
</svg>
