<svg width="36" height="36" viewBox="0 0 36 36" fill="none" xmlns="http://www.w3.org/2000/svg">
<circle cx="18" cy="18" r="18" fill="#FFFDFD"/>
<path d="M25.1075 25.8704V24.107C25.1075 23.1716 24.7359 22.2745 24.0745 21.6131C23.4131 20.9517 22.516 20.5801 21.5806 20.5801H14.5269C13.5915 20.5801 12.6944 20.9517 12.033 21.6131C11.3716 22.2745 11 23.1716 11 24.107V25.8704" stroke="#0E3860" stroke-width="2" stroke-linecap="round" stroke-linejoin="round"/>
<path d="M18.0542 17.0538C20.0021 17.0538 21.5811 15.4747 21.5811 13.5269C21.5811 11.579 20.0021 10 18.0542 10C16.1064 10 14.5273 11.579 14.5273 13.5269C14.5273 15.4747 16.1064 17.0538 18.0542 17.0538Z" stroke="#0E3860" stroke-width="2" stroke-linecap="round" stroke-linejoin="round"/>
</svg>
