<svg width="36" height="36" viewBox="0 0 36 36" fill="none" xmlns="http://www.w3.org/2000/svg">
<circle cx="18" cy="18" r="18" fill="#FFFDFD"/>
<path d="M25.612 11.4145C25.1722 10.9661 24.65 10.6103 24.0752 10.3676C23.5005 10.1249 22.8844 10 22.2623 10C21.6401 10 21.0241 10.1249 20.4493 10.3676C19.8746 10.6103 19.3524 10.9661 18.9126 11.4145L17.9998 12.3448L17.087 11.4145C16.1986 10.5091 14.9936 10.0005 13.7372 10.0005C12.4809 10.0005 11.2759 10.5091 10.3875 11.4145C9.4991 12.3199 9 13.5479 9 14.8283C9 16.1088 9.4991 17.3367 10.3875 18.2421L11.3003 19.1724L17.9998 26L24.6992 19.1724L25.612 18.2421C26.0521 17.7939 26.4011 17.2617 26.6393 16.676C26.8774 16.0902 27 15.4624 27 14.8283C27 14.1943 26.8774 13.5664 26.6393 12.9807C26.4011 12.3949 26.0521 11.8627 25.612 11.4145Z" stroke="#0E3860" stroke-width="2" stroke-linecap="round" stroke-linejoin="round"/>
</svg>
