<svg width="104" height="85" viewBox="0 0 104 85" fill="none" xmlns="http://www.w3.org/2000/svg">
<path d="M52 43L52 83" stroke="#B7C3CF" stroke-width="4" stroke-linecap="round" stroke-linejoin="round"/>
<path d="M89.5352 70.9067C93.8947 68.53 97.3385 64.7693 99.3233 60.218C101.308 55.6666 101.721 50.584 100.496 45.7722C99.2711 40.9603 96.4788 36.6934 92.5597 33.6448C88.6406 30.5961 83.8178 28.9394 78.8526 28.9362H73.2208C71.8678 23.7032 69.3462 18.8451 65.8455 14.7269C62.3448 10.6088 57.956 7.33787 53.0092 5.16004C48.0624 2.9822 42.6862 1.95415 37.2848 2.15315C31.8835 2.35216 26.5975 3.77306 21.8244 6.30901C17.0512 8.84497 12.9151 12.43 9.72689 16.7946C6.53869 21.1591 4.38142 26.1897 3.41726 31.508C2.4531 36.8263 2.70714 42.294 4.16028 47.5C5.61342 52.706 8.22784 57.5149 11.807 61.565" stroke="#B7C3CF" stroke-width="4" stroke-linecap="round" stroke-linejoin="round"/>
<path d="M69.9295 60.2284L52.0507 42.3496L34.1719 60.2284" stroke="#B7C3CF" stroke-width="4" stroke-linecap="round" stroke-linejoin="round"/>
</svg>
