<svg width="27" height="27" viewBox="0 0 27 27" fill="none" xmlns="http://www.w3.org/2000/svg">
<circle cx="13.4136" cy="13.7261" r="12.1372" stroke="#0E3860" stroke-width="1.42791"/>
<path d="M19.1273 16.5666V18.3016C19.128 18.4627 19.095 18.6221 19.0305 18.7697C18.9659 18.9173 18.8713 19.0498 18.7526 19.1587C18.6339 19.2675 18.4938 19.3505 18.3412 19.4021C18.1886 19.4537 18.0269 19.4728 17.8665 19.4583C16.0868 19.2649 14.3773 18.6568 12.8753 17.6828C11.4779 16.7948 10.2932 15.6101 9.40523 14.2127C8.42781 12.7039 7.81953 10.986 7.62969 9.19836C7.61524 9.03843 7.63425 8.87724 7.68551 8.72505C7.73676 8.57287 7.81915 8.43302 7.92741 8.31442C8.03567 8.19582 8.16745 8.10106 8.31434 8.03618C8.46124 7.97129 8.62003 7.93771 8.78061 7.93756H10.5157C10.7963 7.93479 11.0685 8.03419 11.2813 8.21721C11.4941 8.40023 11.6331 8.65439 11.6724 8.93232C11.7456 9.48758 11.8814 10.0328 12.0772 10.5575C12.155 10.7645 12.1719 10.9895 12.1257 11.2058C12.0796 11.422 11.9725 11.6206 11.817 11.7778L11.0825 12.5123C11.9058 13.9602 13.1046 15.1591 14.5526 15.9824L15.2871 15.2479C15.4443 15.0924 15.6428 14.9853 15.8591 14.9391C16.0754 14.893 16.3004 14.9099 16.5074 14.9877C17.0321 15.1835 17.5773 15.3193 18.1326 15.3925C18.4135 15.4321 18.6701 15.5737 18.8535 15.7901C19.0369 16.0066 19.1344 16.2829 19.1273 16.5666Z" stroke="#0E3860" stroke-width="1.1567" stroke-linecap="round" stroke-linejoin="round"/>
</svg>
