<svg width="27" height="27" viewBox="0 0 27 27" fill="none" xmlns="http://www.w3.org/2000/svg">
<circle cx="13.0935" cy="13.4138" r="12.2333" stroke="#0E3860" stroke-width="1.43921"/>
<path d="M18.137 12.295C18.137 16.2129 13.0997 19.5711 13.0997 19.5711C13.0997 19.5711 8.0625 16.2129 8.0625 12.295C8.0625 10.9591 8.59321 9.67785 9.53787 8.73318C10.4825 7.78852 11.7638 7.25781 13.0997 7.25781C14.4357 7.25781 15.7169 7.78852 16.6616 8.73318C17.6063 9.67785 18.137 10.9591 18.137 12.295Z" stroke="#0E3860" stroke-width="1.43921" stroke-linecap="round" stroke-linejoin="round"/>
<path d="M13.0931 13.9714C14.0205 13.9714 14.7722 13.2197 14.7722 12.2924C14.7722 11.365 14.0205 10.6133 13.0931 10.6133C12.1658 10.6133 11.4141 11.365 11.4141 12.2924C11.4141 13.2197 12.1658 13.9714 13.0931 13.9714Z" stroke="#0E3860" stroke-width="1.43921" stroke-linecap="round" stroke-linejoin="round"/>
</svg>
