<svg width="27" height="27" viewBox="0 0 27 27" fill="none" xmlns="http://www.w3.org/2000/svg">
<circle cx="13.8433" cy="13.8492" r="12.1372" stroke="#0E3860" stroke-width="1.42791"/>
<path d="M18.9237 19.4665V18.2075C18.9237 17.5397 18.6584 16.8992 18.1862 16.427C17.7139 15.9547 17.0735 15.6895 16.4056 15.6895H11.3696C10.7018 15.6895 10.0613 15.9547 9.58908 16.427C9.11685 16.8992 8.85156 17.5397 8.85156 18.2075V19.4665" stroke="#0E3860" stroke-width="1.42791" stroke-linecap="round" stroke-linejoin="round"/>
<path d="M13.8852 13.1728C15.2759 13.1728 16.4032 12.0454 16.4032 10.6547C16.4032 9.26408 15.2759 8.13672 13.8852 8.13672C12.4945 8.13672 11.3672 9.26408 11.3672 10.6547C11.3672 12.0454 12.4945 13.1728 13.8852 13.1728Z" stroke="#0E3860" stroke-width="1.42791" stroke-linecap="round" stroke-linejoin="round"/>
</svg>
