<svg width="30" height="30" viewBox="0 0 30 30" fill="none" xmlns="http://www.w3.org/2000/svg">
<circle cx="15.3728" cy="15.07" r="14.6228" fill="#2695FF"/>
<path d="M18.6888 8.97446C18.8634 8.79989 19.0706 8.66141 19.2987 8.56693C19.5268 8.47245 19.7713 8.42383 20.0182 8.42383C20.265 8.42383 20.5095 8.47245 20.7376 8.56693C20.9657 8.66141 21.1729 8.79989 21.3475 8.97446C21.5221 9.14903 21.6605 9.35628 21.755 9.58437C21.8495 9.81246 21.8981 10.0569 21.8981 10.3038C21.8981 10.5507 21.8495 10.7951 21.755 11.0232C21.6605 11.2513 21.5221 11.4586 21.3475 11.6331L12.3744 20.6062L8.71875 21.6032L9.71576 17.9475L18.6888 8.97446Z" stroke="white" stroke-width="1.32934" stroke-linecap="round" stroke-linejoin="round"/>
</svg>
