<svg width="297" height="80" viewBox="0 0 297 80" fill="none" xmlns="http://www.w3.org/2000/svg">
<rect width="296.774" height="66" rx="4" fill="#0E3860"/>
<path d="M296.999 18.7872V76.9711C294.877 76.3637 292.487 76.7759 290.756 78.186H290.707C288.268 80.1819 284.562 80.1819 282.123 78.2077H282.074C279.635 76.2118 275.928 76.2118 273.49 78.186H273.465C271.002 80.1819 267.295 80.1819 264.856 78.2077H264.832C262.393 76.2118 258.662 76.2118 256.223 78.186H256.199C253.76 80.1819 250.029 80.1819 247.59 78.2077H247.566C245.127 76.2118 241.42 76.2118 238.957 78.186C236.494 80.1819 232.787 80.1819 230.348 78.2077C227.91 76.2118 224.178 76.2118 221.739 78.186H221.715C219.276 80.1819 215.545 80.1819 213.106 78.2077C210.668 76.2118 206.936 76.2118 204.498 78.186H204.473C202.034 80.1819 198.303 80.1819 195.864 78.2077C193.426 76.2118 189.694 76.2118 187.256 78.186H187.231C184.793 80.1819 181.061 80.1819 178.623 78.2077C176.184 76.2118 172.452 76.2118 170.014 78.186H169.989C167.551 80.1819 163.819 80.1819 161.381 78.2077C158.917 76.2118 155.211 76.2118 152.772 78.186H152.747C150.309 80.1819 146.577 80.1819 144.139 78.2077H144.114C141.676 76.2118 137.969 76.2118 135.506 78.186C133.067 80.1819 129.336 80.1819 126.897 78.2077C124.458 76.2118 120.751 76.2118 118.288 78.186C115.849 80.1819 112.118 80.1819 109.679 78.2077H109.655C107.216 76.2118 103.485 76.2118 101.046 78.186C98.6074 80.1819 94.8761 80.1819 92.4373 78.2077H92.4129C89.9742 76.2118 86.2429 76.2118 83.8042 78.186C81.3654 80.1819 77.6342 80.1819 75.1954 78.2077H75.171C72.7323 76.2118 69.001 76.2118 66.5623 78.186C64.1235 80.1819 60.3922 80.1819 57.9535 78.2077H57.9291C55.4904 76.2118 51.7591 76.2118 49.3204 78.186C46.8816 80.1819 43.1503 80.1819 40.7116 78.2077C38.2485 76.2118 34.5416 76.2118 32.1028 78.186H32.0784C29.6397 80.1819 25.9084 80.1819 23.4697 78.2077C21.0309 76.2118 17.2996 76.2118 14.8609 78.186H14.8365C12.3978 80.1819 8.69088 80.1819 6.22775 78.2077C5.03277 77.2098 3.47197 76.7108 1.93557 76.7108C1.30149 76.7108 0.643032 76.7976 0.00895838 76.9711V18.7872C-0.332466 8.41736 9.12986 0 20.7871 0H275.855C287.537 0 296.975 8.41736 296.975 18.7872H296.999Z" fill="#0E3860"/>
<path d="M81.5581 47.154C80.4287 47.154 79.4167 46.9707 78.5221 46.604C77.6274 46.2373 76.9087 45.6947 76.3661 44.976C75.8381 44.2573 75.5594 43.392 75.5301 42.38H79.5341C79.5927 42.952 79.7907 43.392 80.1281 43.7C80.4654 43.9933 80.9054 44.14 81.4481 44.14C82.0054 44.14 82.4454 44.0153 82.7681 43.766C83.0907 43.502 83.2521 43.1427 83.2521 42.688C83.2521 42.3067 83.1201 41.9913 82.8561 41.742C82.6067 41.4927 82.2914 41.2873 81.9101 41.126C81.5434 40.9647 81.0154 40.7813 80.3261 40.576C79.3287 40.268 78.5147 39.96 77.8841 39.652C77.2534 39.344 76.7107 38.8893 76.2561 38.288C75.8014 37.6867 75.5741 36.902 75.5741 35.934C75.5741 34.4967 76.0947 33.3747 77.1361 32.568C78.1774 31.7467 79.5341 31.336 81.2061 31.336C82.9074 31.336 84.2787 31.7467 85.3201 32.568C86.3614 33.3747 86.9187 34.504 86.9921 35.956H82.9221C82.8927 35.4573 82.7094 35.0687 82.3721 34.79C82.0347 34.4967 81.6021 34.35 81.0741 34.35C80.6194 34.35 80.2527 34.4747 79.9741 34.724C79.6954 34.9587 79.5561 35.3033 79.5561 35.758C79.5561 36.2567 79.7907 36.6453 80.2601 36.924C80.7294 37.2027 81.4627 37.5033 82.4601 37.826C83.4574 38.1633 84.2641 38.486 84.8801 38.794C85.5107 39.102 86.0534 39.5493 86.5081 40.136C86.9627 40.7227 87.1901 41.478 87.1901 42.402C87.1901 43.282 86.9627 44.0813 86.5081 44.8C86.0681 45.5187 85.4227 46.0907 84.5721 46.516C83.7214 46.9413 82.7167 47.154 81.5581 47.154ZM104.465 31.556V34.57H100.373V47H96.6112V34.57H92.5192V31.556H104.465ZM119.817 44.272H114.053L113.129 47H109.191L114.779 31.556H119.135L124.723 47H120.741L119.817 44.272ZM118.849 41.368L116.935 35.714L115.043 41.368H118.849ZM144.09 47H140.328L134.036 37.474V47H130.274V31.556H134.036L140.328 41.126V31.556H144.09V47ZM156.453 31.556C158.081 31.556 159.504 31.8787 160.721 32.524C161.938 33.1693 162.877 34.0787 163.537 35.252C164.212 36.4107 164.549 37.7527 164.549 39.278C164.549 40.7887 164.212 42.1307 163.537 43.304C162.877 44.4773 161.931 45.3867 160.699 46.032C159.482 46.6773 158.066 47 156.453 47H150.667V31.556H156.453ZM156.211 43.744C157.634 43.744 158.741 43.3553 159.533 42.578C160.325 41.8007 160.721 40.7007 160.721 39.278C160.721 37.8553 160.325 36.748 159.533 35.956C158.741 35.164 157.634 34.768 156.211 34.768H154.429V43.744H156.211ZM180.115 44.272H174.351L173.427 47H169.489L175.077 31.556H179.433L185.021 47H181.039L180.115 44.272ZM179.147 41.368L177.233 35.714L175.341 41.368H179.147ZM198.448 47L195.236 41.17H194.334V47H190.572V31.556H196.886C198.103 31.556 199.137 31.7687 199.988 32.194C200.853 32.6193 201.499 33.206 201.924 33.954C202.349 34.6873 202.562 35.5087 202.562 36.418C202.562 37.4447 202.269 38.3613 201.682 39.168C201.11 39.9747 200.259 40.5467 199.13 40.884L202.694 47H198.448ZM194.334 38.508H196.666C197.355 38.508 197.869 38.3393 198.206 38.002C198.558 37.6647 198.734 37.188 198.734 36.572C198.734 35.9853 198.558 35.5233 198.206 35.186C197.869 34.8487 197.355 34.68 196.666 34.68H194.334V38.508ZM214.56 31.556C216.188 31.556 217.61 31.8787 218.828 32.524C220.045 33.1693 220.984 34.0787 221.644 35.252C222.318 36.4107 222.656 37.7527 222.656 39.278C222.656 40.7887 222.318 42.1307 221.644 43.304C220.984 44.4773 220.038 45.3867 218.806 46.032C217.588 46.6773 216.173 47 214.56 47H208.774V31.556H214.56ZM214.318 43.744C215.74 43.744 216.848 43.3553 217.64 42.578C218.432 41.8007 218.828 40.7007 218.828 39.278C218.828 37.8553 218.432 36.748 217.64 35.956C216.848 35.164 215.74 34.768 214.318 34.768H212.536V43.744H214.318Z" fill="white"/>
</svg>
