<svg width="297" height="80" viewBox="0 0 297 80" fill="none" xmlns="http://www.w3.org/2000/svg">
<rect width="296.774" height="66" rx="4" fill="#9B51E0"/>
<path d="M296.999 18.7872V76.9711C294.877 76.3637 292.487 76.7759 290.756 78.186H290.707C288.268 80.1819 284.562 80.1819 282.123 78.2077H282.074C279.635 76.2118 275.928 76.2118 273.49 78.186H273.465C271.002 80.1819 267.295 80.1819 264.856 78.2077H264.832C262.393 76.2118 258.662 76.2118 256.223 78.186H256.199C253.76 80.1819 250.029 80.1819 247.59 78.2077H247.566C245.127 76.2118 241.42 76.2118 238.957 78.186C236.494 80.1819 232.787 80.1819 230.348 78.2077C227.91 76.2118 224.178 76.2118 221.739 78.186H221.715C219.276 80.1819 215.545 80.1819 213.106 78.2077C210.668 76.2118 206.936 76.2118 204.498 78.186H204.473C202.034 80.1819 198.303 80.1819 195.864 78.2077C193.426 76.2118 189.694 76.2118 187.256 78.186H187.231C184.793 80.1819 181.061 80.1819 178.623 78.2077C176.184 76.2118 172.452 76.2118 170.014 78.186H169.989C167.551 80.1819 163.819 80.1819 161.381 78.2077C158.917 76.2118 155.211 76.2118 152.772 78.186H152.747C150.309 80.1819 146.577 80.1819 144.139 78.2077H144.114C141.676 76.2118 137.969 76.2118 135.506 78.186C133.067 80.1819 129.336 80.1819 126.897 78.2077C124.458 76.2118 120.751 76.2118 118.288 78.186C115.849 80.1819 112.118 80.1819 109.679 78.2077H109.655C107.216 76.2118 103.485 76.2118 101.046 78.186C98.6074 80.1819 94.8761 80.1819 92.4373 78.2077H92.4129C89.9742 76.2118 86.2429 76.2118 83.8042 78.186C81.3654 80.1819 77.6342 80.1819 75.1954 78.2077H75.171C72.7323 76.2118 69.001 76.2118 66.5623 78.186C64.1235 80.1819 60.3922 80.1819 57.9535 78.2077H57.9291C55.4904 76.2118 51.7591 76.2118 49.3204 78.186C46.8816 80.1819 43.1503 80.1819 40.7116 78.2077C38.2485 76.2118 34.5416 76.2118 32.1028 78.186H32.0784C29.6397 80.1819 25.9084 80.1819 23.4697 78.2077C21.0309 76.2118 17.2996 76.2118 14.8609 78.186H14.8365C12.3978 80.1819 8.69088 80.1819 6.22775 78.2077C5.03277 77.2098 3.47197 76.7108 1.93557 76.7108C1.30149 76.7108 0.643032 76.7976 0.00895838 76.9711V18.7872C-0.332466 8.41736 9.12986 0 20.7871 0H275.855C287.537 0 296.975 8.41736 296.975 18.7872H296.999Z" fill="#9B51E0"/>
<path d="M118.262 39.08C119.157 39.2707 119.875 39.718 120.418 40.422C120.961 41.1113 121.232 41.9033 121.232 42.798C121.232 44.0887 120.777 45.1153 119.868 45.878C118.973 46.626 117.719 47 116.106 47H108.912V31.556H115.864C117.433 31.556 118.658 31.9153 119.538 32.634C120.433 33.3527 120.88 34.328 120.88 35.56C120.88 36.4693 120.638 37.2247 120.154 37.826C119.685 38.4273 119.054 38.8453 118.262 39.08ZM112.674 37.804H115.138C115.754 37.804 116.223 37.672 116.546 37.408C116.883 37.1293 117.052 36.726 117.052 36.198C117.052 35.67 116.883 35.2667 116.546 34.988C116.223 34.7093 115.754 34.57 115.138 34.57H112.674V37.804ZM115.446 43.964C116.077 43.964 116.561 43.8247 116.898 43.546C117.25 43.2527 117.426 42.8347 117.426 42.292C117.426 41.7493 117.243 41.324 116.876 41.016C116.524 40.708 116.033 40.554 115.402 40.554H112.674V43.964H115.446ZM136.878 44.272H131.114L130.19 47H126.252L131.84 31.556H136.196L141.784 47H137.802L136.878 44.272ZM135.91 41.368L133.996 35.714L132.104 41.368H135.91ZM152.923 47.154C151.793 47.154 150.781 46.9707 149.887 46.604C148.992 46.2373 148.273 45.6947 147.731 44.976C147.203 44.2573 146.924 43.392 146.895 42.38H150.899C150.957 42.952 151.155 43.392 151.493 43.7C151.83 43.9933 152.27 44.14 152.813 44.14C153.37 44.14 153.81 44.0153 154.133 43.766C154.455 43.502 154.617 43.1427 154.617 42.688C154.617 42.3067 154.485 41.9913 154.221 41.742C153.971 41.4927 153.656 41.2873 153.275 41.126C152.908 40.9647 152.38 40.7813 151.691 40.576C150.693 40.268 149.879 39.96 149.249 39.652C148.618 39.344 148.075 38.8893 147.621 38.288C147.166 37.6867 146.939 36.902 146.939 35.934C146.939 34.4967 147.459 33.3747 148.501 32.568C149.542 31.7467 150.899 31.336 152.571 31.336C154.272 31.336 155.643 31.7467 156.685 32.568C157.726 33.3747 158.283 34.504 158.357 35.956H154.287C154.257 35.4573 154.074 35.0687 153.737 34.79C153.399 34.4967 152.967 34.35 152.439 34.35C151.984 34.35 151.617 34.4747 151.339 34.724C151.06 34.9587 150.921 35.3033 150.921 35.758C150.921 36.2567 151.155 36.6453 151.625 36.924C152.094 37.2027 152.827 37.5033 153.825 37.826C154.822 38.1633 155.629 38.486 156.245 38.794C156.875 39.102 157.418 39.5493 157.873 40.136C158.327 40.7227 158.555 41.478 158.555 42.402C158.555 43.282 158.327 44.0813 157.873 44.8C157.433 45.5187 156.787 46.0907 155.937 46.516C155.086 46.9413 154.081 47.154 152.923 47.154ZM168.482 31.556V47H164.72V31.556H168.482ZM174.42 39.256C174.42 37.7307 174.75 36.374 175.41 35.186C176.07 33.9833 176.987 33.052 178.16 32.392C179.348 31.7173 180.69 31.38 182.186 31.38C184.019 31.38 185.589 31.864 186.894 32.832C188.199 33.8 189.072 35.12 189.512 36.792H185.376C185.068 36.1467 184.628 35.6553 184.056 35.318C183.499 34.9807 182.861 34.812 182.142 34.812C180.983 34.812 180.045 35.2153 179.326 36.022C178.607 36.8287 178.248 37.9067 178.248 39.256C178.248 40.6053 178.607 41.6833 179.326 42.49C180.045 43.2967 180.983 43.7 182.142 43.7C182.861 43.7 183.499 43.5313 184.056 43.194C184.628 42.8567 185.068 42.3653 185.376 41.72H189.512C189.072 43.392 188.199 44.712 186.894 45.68C185.589 46.6333 184.019 47.11 182.186 47.11C180.69 47.11 179.348 46.78 178.16 46.12C176.987 45.4453 176.07 44.514 175.41 43.326C174.75 42.138 174.42 40.7813 174.42 39.256Z" fill="white"/>
</svg>
