<svg width="297" height="80" viewBox="0 0 297 80" fill="none" xmlns="http://www.w3.org/2000/svg">
<rect width="296.774" height="66" rx="4" fill="#34D8B3"/>
<path d="M296.999 18.7872V76.9711C294.877 76.3637 292.487 76.7759 290.756 78.186H290.707C288.268 80.1819 284.562 80.1819 282.123 78.2077H282.074C279.635 76.2118 275.928 76.2118 273.49 78.186H273.465C271.002 80.1819 267.295 80.1819 264.856 78.2077H264.832C262.393 76.2118 258.662 76.2118 256.223 78.186H256.199C253.76 80.1819 250.029 80.1819 247.59 78.2077H247.566C245.127 76.2118 241.42 76.2118 238.957 78.186C236.494 80.1819 232.787 80.1819 230.348 78.2077C227.91 76.2118 224.178 76.2118 221.739 78.186H221.715C219.276 80.1819 215.545 80.1819 213.106 78.2077C210.668 76.2118 206.936 76.2118 204.498 78.186H204.473C202.034 80.1819 198.303 80.1819 195.864 78.2077C193.426 76.2118 189.694 76.2118 187.256 78.186H187.231C184.793 80.1819 181.061 80.1819 178.623 78.2077C176.184 76.2118 172.452 76.2118 170.014 78.186H169.989C167.551 80.1819 163.819 80.1819 161.381 78.2077C158.917 76.2118 155.211 76.2118 152.772 78.186H152.747C150.309 80.1819 146.577 80.1819 144.139 78.2077H144.114C141.676 76.2118 137.969 76.2118 135.506 78.186C133.067 80.1819 129.336 80.1819 126.897 78.2077C124.458 76.2118 120.751 76.2118 118.288 78.186C115.849 80.1819 112.118 80.1819 109.679 78.2077H109.655C107.216 76.2118 103.485 76.2118 101.046 78.186C98.6074 80.1819 94.8761 80.1819 92.4373 78.2077H92.4129C89.9742 76.2118 86.2429 76.2118 83.8042 78.186C81.3654 80.1819 77.6342 80.1819 75.1954 78.2077H75.171C72.7323 76.2118 69.001 76.2118 66.5623 78.186C64.1235 80.1819 60.3922 80.1819 57.9535 78.2077H57.9291C55.4904 76.2118 51.7591 76.2118 49.3204 78.186C46.8816 80.1819 43.1503 80.1819 40.7116 78.2077C38.2485 76.2118 34.5416 76.2118 32.1028 78.186H32.0784C29.6397 80.1819 25.9084 80.1819 23.4697 78.2077C21.0309 76.2118 17.2996 76.2118 14.8609 78.186H14.8365C12.3978 80.1819 8.69088 80.1819 6.22775 78.2077C5.03277 77.2098 3.47197 76.7108 1.93557 76.7108C1.30149 76.7108 0.643032 76.7976 0.00895838 76.9711V18.7872C-0.332466 8.41736 9.12986 0 20.7871 0H275.855C287.537 0 296.975 8.41736 296.975 18.7872H296.999Z" fill="#34D8B3"/>
<path d="M98.8975 36.528C98.8975 37.4227 98.6921 38.244 98.2815 38.992C97.8708 39.7253 97.2401 40.3193 96.3895 40.774C95.5388 41.2287 94.4828 41.456 93.2215 41.456H90.8895V47H87.1275V31.556H93.2215C94.4535 31.556 95.4948 31.7687 96.3455 32.194C97.1961 32.6193 97.8341 33.206 98.2595 33.954C98.6848 34.702 98.8975 35.56 98.8975 36.528ZM92.9355 38.464C93.6541 38.464 94.1895 38.2953 94.5415 37.958C94.8935 37.6207 95.0695 37.144 95.0695 36.528C95.0695 35.912 94.8935 35.4353 94.5415 35.098C94.1895 34.7607 93.6541 34.592 92.9355 34.592H90.8895V38.464H92.9355ZM112.582 47L109.37 41.17H108.468V47H104.706V31.556H111.02C112.237 31.556 113.271 31.7687 114.122 32.194C114.987 32.6193 115.633 33.206 116.058 33.954C116.483 34.6873 116.696 35.5087 116.696 36.418C116.696 37.4447 116.403 38.3613 115.816 39.168C115.244 39.9747 114.393 40.5467 113.264 40.884L116.828 47H112.582ZM108.468 38.508H110.8C111.489 38.508 112.003 38.3393 112.34 38.002C112.692 37.6647 112.868 37.188 112.868 36.572C112.868 35.9853 112.692 35.5233 112.34 35.186C112.003 34.8487 111.489 34.68 110.8 34.68H108.468V38.508ZM126.67 34.57V37.694H131.708V40.598H126.67V43.986H132.368V47H122.908V31.556H132.368V34.57H126.67ZM156.15 31.556V47H152.388V37.738L148.934 47H145.898L142.422 37.716V47H138.66V31.556H143.104L147.438 42.248L151.728 31.556H156.15ZM166.467 31.556V47H162.705V31.556H166.467ZM176.739 31.556V40.796C176.739 41.72 176.967 42.4313 177.421 42.93C177.876 43.4287 178.543 43.678 179.423 43.678C180.303 43.678 180.978 43.4287 181.447 42.93C181.917 42.4313 182.151 41.72 182.151 40.796V31.556H185.913V40.774C185.913 42.1527 185.62 43.3187 185.033 44.272C184.447 45.2253 183.655 45.944 182.657 46.428C181.675 46.912 180.575 47.154 179.357 47.154C178.14 47.154 177.047 46.9193 176.079 46.45C175.126 45.966 174.371 45.2473 173.813 44.294C173.256 43.326 172.977 42.1527 172.977 40.774V31.556H176.739ZM209.895 31.556V47H206.133V37.738L202.679 47H199.643L196.167 37.716V47H192.405V31.556H196.849L201.183 42.248L205.473 31.556H209.895Z" fill="white"/>
</svg>
