<svg width="100" height="90" viewBox="0 0 100 90" fill="none" xmlns="http://www.w3.org/2000/svg">
<path d="M77.4883 3.49219L91.3626 4.05783V22.7966L77.4883 13.6414V3.49219Z" fill="#0E3860" fill-opacity="0.7"/>
<path d="M58.4964 55.0788C59.6035 55.0788 60.5085 54.1738 60.5085 53.0667C60.5085 51.9597 59.6035 51.0547 58.4964 51.0547C57.3894 51.0547 56.4844 51.9597 56.4844 53.0667C56.4844 54.1738 57.3894 55.0788 58.4964 55.0788Z" fill="#0E3860" fill-opacity="0.7"/>
<path d="M39.7269 64.4688C38.6199 64.4688 37.7148 65.3738 37.7148 66.4808C37.7148 67.5878 38.6199 68.4929 39.7269 68.4929C40.8339 68.4929 41.739 67.5878 41.739 66.4808C41.739 65.3738 40.8339 64.4688 39.7269 64.4688Z" fill="#0E3860" fill-opacity="0.7"/>
<path d="M49.6473 39.2812C35.8134 39.2812 24.5977 50.497 24.5977 64.3309C24.5977 78.1648 35.8134 89.3806 49.6473 89.3806C63.4812 89.3806 74.697 78.1648 74.697 64.3309C74.697 50.497 63.4812 39.2812 49.6473 39.2812ZM59.5702 80.8233C56.6855 80.8233 54.3421 78.48 54.3421 75.5952C54.3421 75.5386 54.3421 75.4902 54.3502 75.4336L44.0071 69.4702C43.0617 70.8196 41.4941 71.7085 39.7244 71.7085C36.8397 71.7085 34.4963 69.3651 34.4963 66.4804C34.4963 63.5956 36.8397 61.2522 39.7244 61.2522C41.2678 61.2522 42.6577 61.931 43.6193 63.0057L53.5502 54.7636C53.3644 54.2303 53.2674 53.6646 53.2674 53.0747C53.2674 50.19 55.6108 47.8466 58.4955 47.8466C61.3803 47.8466 63.7236 50.19 63.7236 53.0747C63.7236 55.9595 61.3803 58.3028 58.4955 58.3028C57.3723 58.3028 56.338 57.9473 55.4815 57.3413L45.3727 65.7289C45.2596 65.8178 45.203 66.0117 45.2192 66.2056C45.2354 66.3753 45.3 66.5208 45.3889 66.5692L55.4572 72.3711C56.4188 71.159 57.8976 70.3752 59.5622 70.3752C62.4469 70.3752 64.7903 72.7185 64.7903 75.6033C64.7903 78.488 62.4469 80.8314 59.5622 80.8314L59.5702 80.8233Z" fill="#0E3860" fill-opacity="0.7"/>
<path d="M59.5706 77.6081C60.6819 77.6081 61.5827 76.7073 61.5827 75.596C61.5827 74.4848 60.6819 73.584 59.5706 73.584C58.4594 73.584 57.5586 74.4848 57.5586 75.596C57.5586 76.7073 58.4594 77.6081 59.5706 77.6081Z" fill="#0E3860" fill-opacity="0.7"/>
<path d="M96.9524 37.0824C96.8878 37.0096 96.8231 36.9531 96.7504 36.8965L50.5378 0.978494C49.8752 0.461339 48.9621 0.517903 48.356 1.06738L2.25653 37.05C2.15149 37.1308 2.0626 37.2278 1.98179 37.3248C0.389928 39.3045 -0.16763 41.4135 0.0424645 43.2801C0.179834 44.4841 0.632344 45.575 1.34343 46.472C2.05452 47.3689 3.02418 48.0638 4.17162 48.4517C5.64228 48.9527 7.41192 48.9365 9.30277 48.2093V83.7636H9.32701V85.8646H32.2757C30.7324 84.6202 29.3344 83.2142 28.09 81.6708H13.8279V46.4639C13.8279 45.4134 46.1096 20.5576 49.8186 17.7375C53.3094 20.4607 85.0094 45.5184 85.0094 46.3346V81.6708H71.2078C69.9634 83.2142 68.5655 84.6202 67.0221 85.8646H89.5345V48.3224C91.4819 49.2436 93.4051 49.2597 95.0212 48.6779C96.0393 48.3143 96.9363 47.7002 97.6393 46.9083C98.3423 46.1164 98.8513 45.1629 99.1099 44.0963C99.6271 41.9388 99.0938 39.3853 96.9524 37.0824Z" fill="#0E3860" fill-opacity="0.7"/>
</svg>
