<svg width="99" height="89" viewBox="0 0 99 89" fill="none" xmlns="http://www.w3.org/2000/svg">
<path d="M44.1343 38.5157L44.0698 40.8874H45.4556L47.8242 40.8229L48.0498 41.1052L47.8081 44.0901L45.1736 44.0256H43.9893V44.2918L44.1504 48.5835H40.0415L40.2429 44.7032L40.0415 35.3614H48.8635L49.0891 35.6438L48.8232 38.6286L45.5522 38.5076H44.1262L44.1343 38.5157ZM93.9485 9.03019L97.864 9.05439C98.4924 9.05439 99 9.57069 99 10.1999C99 10.3774 98.9597 10.5468 98.8872 10.692L94.867 19.0254C94.6736 19.4368 94.2627 19.6708 93.8357 19.6708H75.7002V22.3975H70.1572V19.6708H37.3103V22.3975H31.7673V19.6708H19.1667V85.6602C19.1667 86.5799 18.7881 87.4108 18.1838 88.0158C17.5715 88.6208 16.7336 89 15.8232 89H11.8755C10.957 89 10.1191 88.6208 9.51489 88.0158L9.44238 87.9351C8.87842 87.3382 8.53198 86.5314 8.53198 85.6521V19.6708H3.34351C2.42505 19.6708 1.58716 19.2916 0.98291 18.6866C0.378662 18.0816 0 17.2426 0 16.3229V12.37C0 11.4503 0.378662 10.6114 0.98291 10.0063C1.58716 9.40128 2.42505 9.02212 3.34351 9.02212H8.53198V5.17409C8.53198 4.81913 8.69312 4.50451 8.94287 4.29476L13.0598 0.317652C13.5029 -0.109908 14.2039 -0.101841 14.6389 0.317652L18.8123 4.34317C19.0459 4.56905 19.1587 4.86753 19.1587 5.16602V9.01406H93.9485V9.03019ZM30.5427 25.0193H84.2C85.8919 25.0193 87.4387 25.7212 88.5586 26.8344C89.6865 27.9638 90.3794 29.5047 90.3794 31.2068V72.067C90.3794 73.7611 89.6785 75.302 88.5586 76.4233H88.5505C87.4307 77.5527 85.8838 78.2465 84.2 78.2465H30.5427C28.8508 78.2465 27.304 77.5527 26.1841 76.4314C25.0642 75.31 24.3633 73.7611 24.3633 72.067V31.1988C24.3633 29.4966 25.0562 27.9477 26.176 26.8264C27.2959 25.705 28.8428 25.0112 30.5427 25.0112V25.0193ZM84.2 28.0768H30.5427C29.6887 28.0768 28.8992 28.4317 28.3352 28.9964C27.7712 29.5611 27.4167 30.3436 27.4167 31.2068V72.067C27.4167 72.9221 27.7712 73.7127 28.3352 74.2774C28.8992 74.8421 29.6887 75.1971 30.5427 75.1971H84.2C85.054 75.1971 85.8355 74.8421 86.3994 74.2774C86.9714 73.7047 87.3179 72.9221 87.3179 72.067V31.1988C87.3179 30.3436 86.9634 29.5531 86.3994 28.9884C85.8355 28.4237 85.0459 28.0687 84.1919 28.0687L84.2 28.0768ZM56.1226 35.1275C58.04 35.1275 59.5225 35.7002 60.5779 36.8377C61.6333 37.9752 62.1489 39.5805 62.1489 41.6538C62.1489 43.9449 61.5769 45.7116 60.4248 46.9701C59.2727 48.2205 57.6453 48.8497 55.5344 48.8497C53.6169 48.8497 52.1345 48.2769 51.0791 47.1233C50.0317 45.9697 49.5081 44.3402 49.5081 42.2266C49.5081 39.9597 50.0801 38.2172 51.2322 36.9829C52.3843 35.7486 54.0117 35.1355 56.1226 35.1355V35.1275ZM55.752 38.4027C55.2202 38.4027 54.8174 38.4915 54.5435 38.677C54.2695 38.8626 54.0762 39.1853 53.9634 39.6451C53.8506 40.113 53.7942 40.7826 53.7942 41.6699C53.7942 42.7993 53.8586 43.6625 53.9795 44.2434C54.1003 44.8323 54.3098 45.2356 54.5999 45.4696C54.8899 45.7035 55.325 45.8165 55.897 45.8165C56.4287 45.8165 56.8315 45.7277 57.1055 45.5422C57.3794 45.3566 57.5728 45.0339 57.6855 44.558C57.7983 44.0901 57.8628 43.4124 57.8628 42.5251C57.8628 41.4118 57.7983 40.5567 57.6775 39.9678C57.5566 39.3789 57.3472 38.9755 57.0571 38.7416C56.7671 38.5076 56.332 38.3947 55.76 38.3947L55.752 38.4027ZM72.7031 43.3882C73.686 44.9129 74.6609 46.3328 75.6438 47.6396L75.5793 48.0914C74.1936 48.5109 72.824 48.761 71.4785 48.8497L71.0918 48.527L70.842 48.0188C70.7292 47.801 70.5117 47.3412 70.1895 46.6393C69.8591 45.9375 69.5771 45.276 69.3274 44.6629H67.9578L68.1028 48.6077H64.002L64.2034 44.7274L64.002 35.3856L70.27 35.3614C71.7524 35.3614 72.8965 35.7083 73.7021 36.4182C74.5078 37.1201 74.9106 38.1285 74.9106 39.4515C74.9106 40.2259 74.7173 40.96 74.3306 41.6377C73.9438 42.3234 73.4041 42.9042 72.7031 43.3963V43.3882ZM70.6003 39.8548C70.6003 39.3143 70.4634 38.9029 70.1814 38.6367C69.8994 38.3705 69.4482 38.2253 68.8198 38.2011L68.0867 38.2656L68.0061 41.678L69.4966 41.7587C69.8752 41.5812 70.1572 41.3392 70.3345 41.0407C70.5117 40.7422 70.6003 40.3469 70.6003 39.8548ZM41.1855 54.4322C42.4746 54.4322 43.7556 54.6742 45.0205 55.1502L44.3679 58.4819L43.7959 58.732C43.2239 58.377 42.6599 58.0947 42.104 57.893C41.5481 57.6913 41.0969 57.5865 40.7585 57.5865C40.4443 57.5865 40.1946 57.6429 40.0173 57.772C39.832 57.893 39.7434 58.0544 39.7434 58.2641C39.7434 58.5223 39.8804 58.7481 40.1624 58.9256C40.4443 59.1112 40.9036 59.3532 41.5642 59.6517C42.3215 59.9905 42.95 60.3132 43.4414 60.6036C43.9329 60.894 44.3599 61.2974 44.7305 61.8056C45.1011 62.3138 45.2864 62.9511 45.2864 63.7014C45.2864 64.5323 45.0608 65.2825 44.6016 65.9602C44.1423 66.6378 43.4978 67.1702 42.6519 67.5655C41.8059 67.9608 40.8311 68.1625 39.7112 68.1625C38.3254 68.1625 36.8672 67.9044 35.3445 67.3881L35.9407 63.8305L36.3516 63.5804C36.98 64.0563 37.6487 64.4355 38.3657 64.7178C39.0828 65.0002 39.679 65.1373 40.1543 65.1373C40.533 65.1373 40.8069 65.0728 40.9841 64.9437C41.1533 64.8146 41.2419 64.6533 41.2419 64.4597C41.2419 64.1773 41.0969 63.9353 40.8069 63.7336C40.5168 63.532 40.0415 63.298 39.3889 63.0076C38.6396 62.6768 38.0273 62.3703 37.5439 62.0799C37.0606 61.7894 36.6416 61.3861 36.2871 60.8698C35.9326 60.3535 35.7554 59.7243 35.7554 58.9821C35.7554 58.1189 35.989 57.3525 36.4482 56.6587C36.9075 55.973 37.5601 55.4325 38.3899 55.0372C39.2197 54.6419 40.1624 54.4403 41.2258 54.4403L41.1855 54.4322ZM58.5718 67.9044H54.4307L54.0601 65.7182L54.0359 65.6536L52.0378 65.6133L50.3621 65.694L50.0156 67.9044H46.0115L50.0156 54.6742H54.9543L58.5637 67.9044H58.5718ZM53.4236 62.6688L52.5293 58.3367H52.2795L51.1355 62.6688L52.2795 62.693L53.4236 62.6688ZM68.2397 64.8388L67.998 67.9044H60.1348L60.3362 64.0241L60.1348 54.6823H64.3L64.0745 63.6126L64.1148 64.5565H68.0142L68.2397 64.8469V64.8388ZM79.0356 64.6372L79.2612 64.9195L79.0115 67.9044H69.698L69.8994 64.0241L69.698 54.6823H79.1726L79.3982 54.9646L79.1323 57.9495L75.8855 57.8285H73.7827L73.7424 59.692H75.7647L77.8916 59.6275L78.1172 59.9098L77.8674 62.8947L75.4988 62.8382H73.6619L73.6458 63.6126L73.686 64.7582H75.6438L79.0356 64.6372Z" fill="#0E3860" fill-opacity="0.7"/>
</svg>
