<svg width="95" height="87" viewBox="0 0 95 87" fill="none" xmlns="http://www.w3.org/2000/svg">
<path d="M8.58224 4.19825L12.5332 0.310514C12.9584 -0.107438 13.6311 -0.0995522 14.0486 0.310514L18.0536 4.24557C18.2779 4.46637 18.3861 4.75815 18.3861 5.04993V8.81149H90.1522L93.9098 8.83515C94.5129 8.83515 95 9.33985 95 9.95495C95 10.1284 94.9613 10.294 94.8918 10.436L91.0336 18.5821C90.848 18.9843 90.4537 19.213 90.0439 19.213H72.6398V21.8784H67.3203V19.213H35.8057V21.8784H30.4863V19.213H18.3938V83.7352C18.3938 84.6342 18.0304 85.4465 17.4506 86.0379C16.8629 86.6294 16.0588 87 15.1852 87H11.3966C10.5152 87 9.71108 86.6294 9.1312 86.0379L9.06161 85.9591C8.52039 85.3755 8.18792 84.5869 8.18792 83.7274V19.2287H3.20868C2.32726 19.2287 1.52315 18.8581 0.943273 18.2667C0.363392 17.6752 0 16.8551 0 15.9561V12.092C0 11.193 0.363392 10.3729 0.943273 9.78146C1.52315 9.19001 2.32726 8.81938 3.20868 8.81938H8.18792V5.05781C8.18792 4.71083 8.34256 4.40329 8.58224 4.19825ZM42.4628 37.6502L42.4009 39.9686H43.7308L46.0039 39.9055L46.2204 40.1815L45.9807 43.0993L43.4524 43.0362H42.3159V43.2964L42.4705 47.4917H38.535L38.7283 43.6986L38.535 34.5668H47.0013L47.2178 34.8428L46.9626 37.7606L43.8236 37.6423H42.455L42.4628 37.6502ZM53.9676 34.3302C55.8078 34.3302 57.2304 34.8901 58.2433 36.002C59.2484 37.1139 59.751 38.6832 59.751 40.7099C59.751 42.9495 59.202 44.6765 58.0964 45.9067C56.9907 47.129 55.4289 47.7441 53.4032 47.7441C51.563 47.7441 50.1404 47.1842 49.1353 46.0565C48.1301 44.9288 47.6276 43.3359 47.6276 41.2698C47.6276 39.0538 48.1765 37.3505 49.2822 36.144C50.3878 34.9374 51.9496 34.3381 53.9753 34.3381L53.9676 34.3302ZM53.6119 37.5319C53.1016 37.5319 52.7151 37.6186 52.4522 37.8C52.1893 37.9814 52.0037 38.2968 51.8955 38.7463C51.7873 39.2037 51.7331 39.8582 51.7331 40.7257C51.7331 41.8297 51.7873 42.6735 51.911 43.2412C52.0269 43.8169 52.228 44.2112 52.5063 44.4399C52.7847 44.6686 53.2022 44.779 53.7511 44.779C54.2614 44.779 54.648 44.6922 54.9109 44.5109C55.1738 44.3295 55.3593 44.0141 55.4676 43.5488C55.5758 43.0914 55.6377 42.429 55.6377 41.5616C55.6377 40.4733 55.5758 39.6374 55.4598 39.0617C55.3439 38.4861 55.1428 38.0918 54.8645 37.8631C54.5861 37.6344 54.1686 37.524 53.6197 37.524L53.6119 37.5319ZM69.8795 42.4053C70.8228 43.8958 71.7584 45.2837 72.7016 46.5612L72.6398 47.0028C71.3099 47.4129 69.9955 47.6573 68.6966 47.7441L68.3255 47.4286L68.0858 46.9318C67.9775 46.7189 67.7688 46.2694 67.4595 45.5834C67.1425 44.8973 66.8719 44.2506 66.6322 43.6513H65.3178L65.457 47.5075H61.5138L61.7071 43.7144L61.5138 34.5825L67.5291 34.5589C68.9517 34.5589 70.0496 34.898 70.8228 35.5919C71.596 36.278 71.9826 37.2637 71.9826 38.557C71.9826 39.3141 71.797 40.0317 71.4259 40.6941C71.0548 41.3644 70.5367 41.9322 69.8718 42.4132L69.8795 42.4053ZM67.8616 38.9513C67.8616 38.423 67.7301 38.0208 67.4595 37.7606C67.1889 37.5003 66.7559 37.3584 66.1606 37.3347L65.457 37.3899L65.3797 40.7257L66.81 40.8045C67.1734 40.631 67.444 40.3944 67.6141 40.1027C67.7842 39.8109 67.8693 39.4245 67.8693 38.9434L67.8616 38.9513ZM40.6999 61.2763C41.6432 62.7667 42.5787 64.1546 43.522 65.4321L43.4602 65.8737C42.1303 66.2838 40.8159 66.5283 39.517 66.615L39.1458 66.2917L38.9062 65.7949C38.8056 65.5819 38.5892 65.1325 38.2799 64.4464C37.9629 63.7603 37.6923 63.1137 37.4603 62.5222H36.1459L36.2851 66.3784H32.3496L32.5429 62.5853L32.3496 53.4535L38.3649 53.4377C39.7876 53.4377 40.8855 53.7768 41.6587 54.4707C42.4318 55.1568 42.8184 56.1426 42.8184 57.4358C42.8184 58.1929 42.6329 58.9105 42.2617 59.5729C41.8906 60.2353 41.3726 60.811 40.7077 61.292L40.6999 61.2763ZM38.6819 57.8222C38.6819 57.286 38.5505 56.8917 38.2799 56.6315C38.0093 56.3712 37.5763 56.2293 36.9732 56.2056L36.2696 56.2608L36.1923 59.5966L37.6227 59.6754C37.9861 59.5019 38.2567 59.2654 38.4268 58.9736C38.5969 58.6818 38.6819 58.2954 38.6819 57.8144V57.8222ZM53.898 63.1768L54.1145 63.4528L53.8748 66.3705H44.9369L45.1302 62.5774L44.9369 53.4456H54.0295L54.246 53.7216L53.9908 56.6394L50.8749 56.5211H48.8569L48.8183 58.3427H50.7589L52.8001 58.2796L53.0166 58.5556L52.7769 61.4734L50.5038 61.4182H48.7409L48.7255 62.1752L48.7641 63.295H50.643L53.898 63.1768ZM67.1193 62.1595L67.2739 66.3784H63.006L59.4417 59.4625H59.202L59.1788 61.7021L59.3334 66.3784H55.7691L55.9624 62.5853L55.7691 53.4535H60.037L63.6014 60.3694H63.8333L63.7173 53.5954L67.3203 53.3746L67.1039 62.1674L67.1193 62.1595ZM78.7865 53.7216L78.57 56.6394L75.9799 56.5211H75.7479L75.6474 62.1752L75.8021 66.3705H71.8821L72.0754 62.5774L71.9748 56.5211H71.7197L69.1141 56.6394L68.8821 56.3634L69.0986 53.4456H78.5623L78.7788 53.7216H78.7865ZM29.3111 24.4571H80.7968C82.4204 24.4571 83.9049 25.1431 84.9797 26.2314C86.0621 27.3354 86.727 28.8416 86.727 30.5055V70.4475C86.727 72.1036 86.0621 73.6098 84.9874 74.7059H84.9797C83.9049 75.8099 82.4204 76.4881 80.8045 76.4881H29.3111C27.6874 76.4881 26.2029 75.8099 25.1282 74.7138C24.0535 73.6177 23.3808 72.1036 23.3808 70.4475V30.4977C23.3808 28.8337 24.0457 27.3197 25.1205 26.2235C26.1952 25.1274 27.6797 24.4492 29.3111 24.4492V24.4571ZM80.8045 27.4458H29.3111C28.4915 27.4458 27.7338 27.7928 27.1926 28.3448C26.6513 28.8968 26.3111 29.6618 26.3111 30.5055V70.4475C26.3111 71.2834 26.6513 72.0563 27.1926 72.6083C27.7338 73.1603 28.4915 73.5073 29.3111 73.5073H80.8045C81.6318 73.5073 82.3741 73.1603 82.9153 72.6083C83.4642 72.0484 83.7967 71.2834 83.7967 70.4475V30.4977C83.7967 29.6618 83.4565 28.8889 82.9153 28.3369C82.3741 27.7849 81.6241 27.4379 80.7968 27.4379L80.8045 27.4458Z" fill="#0E3860" fill-opacity="0.7"/>
</svg>
