<svg width="113" height="81" viewBox="0 0 113 81" fill="none" xmlns="http://www.w3.org/2000/svg">
<path d="M59.737 37.535H53.4469C53.3458 37.535 53.263 37.6192 53.263 37.7221V44.1291C53.263 44.232 53.3458 44.3162 53.4469 44.3162H59.737C59.8381 44.3162 59.9209 44.232 59.9209 44.1291V37.7221C59.9209 37.6192 59.8381 37.535 59.737 37.535ZM59.737 49.9469H53.4469C53.3458 49.9469 53.263 50.0311 53.263 50.1339V56.541C53.263 56.6439 53.3458 56.7281 53.4469 56.7281H59.737C59.8381 56.7281 59.9209 56.6439 59.9209 56.541V50.1433C59.9209 50.0311 59.8381 49.9469 59.737 49.9469ZM70.5422 37.535H64.2522C64.151 37.535 64.0683 37.6192 64.0683 37.7221V44.1291C64.0683 44.232 64.151 44.3162 64.2522 44.3162H70.5422C70.6434 44.3162 70.7262 44.232 70.7262 44.1291V37.7221C70.7262 37.6192 70.6434 37.535 70.5422 37.535ZM70.5422 49.9469H64.2522C64.151 49.9469 64.0683 50.0311 64.0683 50.1339V56.541C64.0683 56.6439 64.151 56.7281 64.2522 56.7281H70.5422C70.6434 56.7281 70.7262 56.6439 70.7262 56.541V50.1433C70.7262 50.0311 70.6434 49.9469 70.5422 49.9469ZM81.3475 37.535H75.0575C74.9655 37.535 74.8827 37.6192 74.8735 37.7221V44.1291C74.8735 44.232 74.9563 44.3162 75.0575 44.3162H81.3475C81.4487 44.3162 81.5314 44.232 81.5314 44.1291V37.7221C81.5314 37.6192 81.4487 37.535 81.3475 37.535ZM81.3475 49.9469H75.0575C74.9655 49.9469 74.8827 50.0311 74.8735 50.1339V56.541C74.8735 56.6439 74.9563 56.7281 75.0575 56.7281H81.3475C81.4487 56.7281 81.5314 56.6439 81.5314 56.541V50.1433C81.5314 50.0311 81.4487 49.9469 81.3475 49.9469ZM53.2354 6.25739V29.0609H81.7245V6.25739H53.2354ZM105.717 43.914H93.9368C93.8448 43.914 93.762 43.9794 93.7528 44.0449V47.5805C93.7528 47.6553 93.8448 47.7114 93.9368 47.7114H105.717C105.818 47.7114 105.901 47.646 105.901 47.5805V44.0449C105.901 43.9794 105.818 43.914 105.717 43.914ZM105.717 51.6585H93.9368C93.8448 51.6585 93.762 51.724 93.7528 51.7895V55.3251C93.7528 55.3999 93.8448 55.456 93.9368 55.456H105.717C105.818 55.456 105.901 55.3905 105.901 55.3251V51.7895C105.901 51.724 105.818 51.6585 105.717 51.6585ZM105.717 59.4031H93.9368C93.8448 59.4031 93.762 59.4686 93.7528 59.5341V63.0696C93.7528 63.1538 93.8448 63.2006 93.9368 63.2006H105.717C105.818 63.2006 105.901 63.1351 105.901 63.0696V59.5341C105.901 59.4686 105.818 59.4031 105.717 59.4031ZM8.61662 51.9859V59.1973H14.7503V51.9859H8.61662ZM8.61662 65.0058V72.2078H14.7503V65.0058H8.61662ZM20.0932 51.9859V59.1973H30.7421V51.9859H20.0932ZM36.885 51.9859V59.1973H43.0187V51.9859H36.885ZM36.885 65.0058V72.2078H43.0187V65.0058H36.885ZM59.737 37.535H53.4469C53.3458 37.535 53.263 37.6192 53.263 37.7221V44.1291C53.263 44.232 53.3458 44.3162 53.4469 44.3162H59.737C59.8381 44.3162 59.9209 44.232 59.9209 44.1291V37.7221C59.9209 37.6192 59.8381 37.535 59.737 37.535ZM59.737 49.9469H53.4469C53.3458 49.9469 53.263 50.0311 53.263 50.1339V56.541C53.263 56.6439 53.3458 56.7281 53.4469 56.7281H59.737C59.8381 56.7281 59.9209 56.6439 59.9209 56.541V50.1433C59.9209 50.0311 59.8381 49.9469 59.737 49.9469ZM70.5422 37.535H64.2522C64.151 37.535 64.0683 37.6192 64.0683 37.7221V44.1291C64.0683 44.232 64.151 44.3162 64.2522 44.3162H70.5422C70.6434 44.3162 70.7262 44.232 70.7262 44.1291V37.7221C70.7262 37.6192 70.6434 37.535 70.5422 37.535ZM70.5422 49.9469H64.2522C64.151 49.9469 64.0683 50.0311 64.0683 50.1339V56.541C64.0683 56.6439 64.151 56.7281 64.2522 56.7281H70.5422C70.6434 56.7281 70.7262 56.6439 70.7262 56.541V50.1433C70.7262 50.0311 70.6434 49.9469 70.5422 49.9469ZM81.3475 37.535H75.0575C74.9655 37.535 74.8827 37.6192 74.8735 37.7221V44.1291C74.8735 44.232 74.9563 44.3162 75.0575 44.3162H81.3475C81.4487 44.3162 81.5314 44.232 81.5314 44.1291V37.7221C81.5314 37.6192 81.4487 37.535 81.3475 37.535ZM81.3475 49.9469H75.0575C74.9655 49.9469 74.8827 50.0311 74.8735 50.1339V56.541C74.8735 56.6439 74.9563 56.7281 75.0575 56.7281H81.3475C81.4487 56.7281 81.5314 56.6439 81.5314 56.541V50.1433C81.5314 50.0311 81.4487 49.9469 81.3475 49.9469ZM53.2354 6.25739V29.0609H81.7245V6.25739H53.2354ZM105.717 43.914H93.9368C93.8448 43.914 93.762 43.9794 93.7528 44.0449V47.5805C93.7528 47.6553 93.8448 47.7114 93.9368 47.7114H105.717C105.818 47.7114 105.901 47.646 105.901 47.5805V44.0449C105.901 43.9794 105.818 43.914 105.717 43.914ZM105.717 51.6585H93.9368C93.8448 51.6585 93.762 51.724 93.7528 51.7895V55.3251C93.7528 55.3999 93.8448 55.456 93.9368 55.456H105.717C105.818 55.456 105.901 55.3905 105.901 55.3251V51.7895C105.901 51.724 105.818 51.6585 105.717 51.6585ZM105.717 59.4031H93.9368C93.8448 59.4031 93.762 59.4686 93.7528 59.5341V63.0696C93.7528 63.1538 93.8448 63.2006 93.9368 63.2006H105.717C105.818 63.2006 105.901 63.1351 105.901 63.0696V59.5341C105.901 59.4686 105.818 59.4031 105.717 59.4031ZM105.717 59.4031H93.9368C93.8448 59.4031 93.762 59.4686 93.7528 59.5341V63.0696C93.7528 63.1538 93.8448 63.2006 93.9368 63.2006H105.717C105.818 63.2006 105.901 63.1351 105.901 63.0696V59.5341C105.901 59.4686 105.818 59.4031 105.717 59.4031ZM105.717 51.6585H93.9368C93.8448 51.6585 93.762 51.724 93.7528 51.7895V55.3251C93.7528 55.3999 93.8448 55.456 93.9368 55.456H105.717C105.818 55.456 105.901 55.3905 105.901 55.3251V51.7895C105.901 51.724 105.818 51.6585 105.717 51.6585ZM105.717 43.914H93.9368C93.8448 43.914 93.762 43.9794 93.7528 44.0449V47.5805C93.7528 47.6553 93.8448 47.7114 93.9368 47.7114H105.717C105.818 47.7114 105.901 47.646 105.901 47.5805V44.0449C105.901 43.9794 105.818 43.914 105.717 43.914ZM53.2354 6.25739V29.0609H81.7245V6.25739H53.2354ZM81.3475 49.9469H75.0575C74.9655 49.9469 74.8827 50.0311 74.8735 50.1339V56.541C74.8735 56.6439 74.9563 56.7281 75.0575 56.7281H81.3475C81.4487 56.7281 81.5314 56.6439 81.5314 56.541V50.1433C81.5314 50.0311 81.4487 49.9469 81.3475 49.9469ZM81.3475 37.535H75.0575C74.9655 37.535 74.8827 37.6192 74.8735 37.7221V44.1291C74.8735 44.232 74.9563 44.3162 75.0575 44.3162H81.3475C81.4487 44.3162 81.5314 44.232 81.5314 44.1291V37.7221C81.5314 37.6192 81.4487 37.535 81.3475 37.535ZM70.5422 49.9469H64.2522C64.151 49.9469 64.0683 50.0311 64.0683 50.1339V56.541C64.0683 56.6439 64.151 56.7281 64.2522 56.7281H70.5422C70.6434 56.7281 70.7262 56.6439 70.7262 56.541V50.1433C70.7262 50.0311 70.6434 49.9469 70.5422 49.9469ZM70.5422 37.535H64.2522C64.151 37.535 64.0683 37.6192 64.0683 37.7221V44.1291C64.0683 44.232 64.151 44.3162 64.2522 44.3162H70.5422C70.6434 44.3162 70.7262 44.232 70.7262 44.1291V37.7221C70.7262 37.6192 70.6434 37.535 70.5422 37.535ZM59.737 49.9469H53.4469C53.3458 49.9469 53.263 50.0311 53.263 50.1339V56.541C53.263 56.6439 53.3458 56.7281 53.4469 56.7281H59.737C59.8381 56.7281 59.9209 56.6439 59.9209 56.541V50.1433C59.9209 50.0311 59.8381 49.9469 59.737 49.9469ZM59.737 37.535H53.4469C53.3458 37.535 53.263 37.6192 53.263 37.7221V44.1291C53.263 44.232 53.3458 44.3162 53.4469 44.3162H59.737C59.8381 44.3162 59.9209 44.232 59.9209 44.1291V37.7221C59.9209 37.6192 59.8381 37.535 59.737 37.535ZM36.885 72.2078H43.0187V65.0058H36.885V72.2078ZM36.885 51.9859V59.1973H43.0187V51.9859H36.885ZM20.0932 59.1973H30.7421V51.9859H20.0932V59.1973ZM8.61662 72.2078H14.7503V65.0058H8.61662V72.2078ZM8.61662 59.1973H14.7503V51.9859H8.61662V59.1973ZM99.6751 12.5896L88.2904 28.1442V1.91744C88.2904 1.43106 88.1157 0.991455 87.8215 0.654734L87.7387 0.561201C87.3984 0.215127 86.9294 0 86.4145 0H48.3708C47.8558 0 47.3868 0.215127 47.0466 0.561201C46.7063 0.907275 46.4948 1.3843 46.4948 1.90808V36.0291L43.8831 31.8014L43.7544 31.5863C43.359 30.8567 43.0003 30.202 41.8416 30.202H9.77531C8.61662 30.202 8.25798 30.8567 7.87175 31.5676C5.4624 35.7111 2.77718 39.8359 0.257487 43.9233C0.0827637 44.2039 0 44.5126 0 44.8119C0 45.2047 0.137939 45.5695 0.358643 45.8875C0.52417 46.1027 0.744873 46.2991 0.983968 46.4581C1.3702 46.7013 1.85758 46.8603 2.28979 46.8603H2.94271V79.7373C2.94271 80.4294 3.49447 81 4.18416 81H111.933C112.522 81 113 80.5136 113 79.915V29.7343C113 29.7343 103.832 17.1447 100.585 12.5896C100.365 12.2716 99.9049 12.2809 99.6751 12.5896ZM30.4754 78.4652H21.1507V66.044C21.1507 65.595 21.3346 65.1928 21.6289 64.8935C21.9232 64.5942 22.3186 64.4072 22.76 64.4072H28.8753C29.3167 64.4072 29.7122 64.5942 30.0064 64.8935C30.2915 65.1928 30.4754 65.595 30.4754 66.044V78.4652ZM46.2005 78.4652H32.9583V66.044C32.9583 64.9029 32.4985 63.8647 31.7537 63.107C31.018 62.3588 29.988 61.8911 28.8661 61.8911H22.7508C21.6289 61.8911 20.6082 62.3588 19.8725 63.107C19.1368 63.8553 18.6678 64.9029 18.6678 66.044V78.4652H5.42562V46.8603H46.2005V78.4652ZM71.8573 78.8207H63.1119V63.6589H71.8573V78.8207ZM86.1662 78.8207H73.6689V62.7329C73.6689 62.2185 73.2642 61.8069 72.7585 61.8069H62.1923C61.6865 61.8069 61.2819 62.2185 61.2819 62.7329V78.8207H48.6834V46.8603H49.3363C49.7778 46.8603 50.2559 46.7013 50.6422 46.4581L50.7617 46.3739C50.9548 46.2336 51.1296 46.0652 51.2675 45.8782C51.4974 45.5695 51.6353 45.2047 51.6353 44.8119C51.6353 44.5032 51.5526 44.2039 51.3778 43.9233L48.6375 39.4805V2.16998H86.1662V78.8207ZM110.857 78.8207H88.2996V30.3049H110.857V78.8207ZM93.9368 63.2006H105.717C105.818 63.2006 105.901 63.1351 105.901 63.0696V59.5341C105.901 59.4686 105.818 59.4031 105.717 59.4031H93.9368C93.8448 59.4031 93.762 59.4686 93.7528 59.5341V63.0696C93.7528 63.1538 93.8448 63.2006 93.9368 63.2006ZM93.9368 55.456H105.717C105.818 55.456 105.901 55.3905 105.901 55.3251V51.7895C105.901 51.724 105.818 51.6585 105.717 51.6585H93.9368C93.8448 51.6585 93.762 51.724 93.7528 51.7895V55.3251C93.7528 55.3999 93.8448 55.456 93.9368 55.456ZM93.9368 47.7114H105.717C105.818 47.7114 105.901 47.646 105.901 47.5805V44.0449C105.901 43.9794 105.818 43.914 105.717 43.914H93.9368C93.8448 43.914 93.762 43.9794 93.7528 44.0449V47.5805C93.7528 47.6553 93.8448 47.7114 93.9368 47.7114ZM81.7245 6.25739H53.2354V29.0609H81.7245V6.25739ZM81.3475 49.9469H75.0575C74.9655 49.9469 74.8827 50.0311 74.8735 50.1339V56.541C74.8735 56.6439 74.9563 56.7281 75.0575 56.7281H81.3475C81.4487 56.7281 81.5314 56.6439 81.5314 56.541V50.1433C81.5314 50.0311 81.4487 49.9469 81.3475 49.9469ZM81.3475 37.535H75.0575C74.9655 37.535 74.8827 37.6192 74.8735 37.7221V44.1291C74.8735 44.232 74.9563 44.3162 75.0575 44.3162H81.3475C81.4487 44.3162 81.5314 44.232 81.5314 44.1291V37.7221C81.5314 37.6192 81.4487 37.535 81.3475 37.535ZM70.5422 49.9469H64.2522C64.151 49.9469 64.0683 50.0311 64.0683 50.1339V56.541C64.0683 56.6439 64.151 56.7281 64.2522 56.7281H70.5422C70.6434 56.7281 70.7262 56.6439 70.7262 56.541V50.1433C70.7262 50.0311 70.6434 49.9469 70.5422 49.9469ZM70.5422 37.535H64.2522C64.151 37.535 64.0683 37.6192 64.0683 37.7221V44.1291C64.0683 44.232 64.151 44.3162 64.2522 44.3162H70.5422C70.6434 44.3162 70.7262 44.232 70.7262 44.1291V37.7221C70.7262 37.6192 70.6434 37.535 70.5422 37.535ZM59.737 49.9469H53.4469C53.3458 49.9469 53.263 50.0311 53.263 50.1339V56.541C53.263 56.6439 53.3458 56.7281 53.4469 56.7281H59.737C59.8381 56.7281 59.9209 56.6439 59.9209 56.541V50.1433C59.9209 50.0311 59.8381 49.9469 59.737 49.9469ZM59.737 37.535H53.4469C53.3458 37.535 53.263 37.6192 53.263 37.7221V44.1291C53.263 44.232 53.3458 44.3162 53.4469 44.3162H59.737C59.8381 44.3162 59.9209 44.232 59.9209 44.1291V37.7221C59.9209 37.6192 59.8381 37.535 59.737 37.535ZM43.0187 65.0058H36.885V72.2078H43.0187V65.0058ZM43.0187 51.9859H36.885V59.1973H43.0187V51.9859ZM30.7421 51.9859H20.0932V59.1973H30.7421V51.9859ZM14.7503 65.0058H8.61662V72.2078H14.7503V65.0058ZM14.7503 51.9859H8.61662V59.1973H14.7503V51.9859ZM20.0932 51.9859V59.1973H30.7421V51.9859H20.0932ZM8.61662 51.9859V59.1973H14.7503V51.9859H8.61662ZM8.61662 65.0058V72.2078H14.7503V65.0058H8.61662ZM20.0932 51.9859V59.1973H30.7421V51.9859H20.0932ZM36.885 51.9859V59.1973H43.0187V51.9859H36.885ZM36.885 65.0058V72.2078H43.0187V65.0058H36.885ZM36.885 65.0058V72.2078H43.0187V65.0058H36.885ZM36.885 51.9859V59.1973H43.0187V51.9859H36.885ZM8.61662 65.0058V72.2078H14.7503V65.0058H8.61662ZM8.61662 51.9859V59.1973H14.7503V51.9859H8.61662ZM53.2354 6.25739V29.0609H81.7245V6.25739H53.2354ZM105.717 59.4031H93.9368C93.8448 59.4031 93.762 59.4686 93.7528 59.5341V63.0696C93.7528 63.1538 93.8448 63.2006 93.9368 63.2006H105.717C105.818 63.2006 105.901 63.1351 105.901 63.0696V59.5341C105.901 59.4686 105.818 59.4031 105.717 59.4031ZM105.717 51.6585H93.9368C93.8448 51.6585 93.762 51.724 93.7528 51.7895V55.3251C93.7528 55.3999 93.8448 55.456 93.9368 55.456H105.717C105.818 55.456 105.901 55.3905 105.901 55.3251V51.7895C105.901 51.724 105.818 51.6585 105.717 51.6585ZM105.717 43.914H93.9368C93.8448 43.914 93.762 43.9794 93.7528 44.0449V47.5805C93.7528 47.6553 93.8448 47.7114 93.9368 47.7114H105.717C105.818 47.7114 105.901 47.646 105.901 47.5805V44.0449C105.901 43.9794 105.818 43.914 105.717 43.914ZM81.3475 49.9469H75.0575C74.9655 49.9469 74.8827 50.0311 74.8735 50.1339V56.541C74.8735 56.6439 74.9563 56.7281 75.0575 56.7281H81.3475C81.4487 56.7281 81.5314 56.6439 81.5314 56.541V50.1433C81.5314 50.0311 81.4487 49.9469 81.3475 49.9469ZM70.5422 49.9469H64.2522C64.151 49.9469 64.0683 50.0311 64.0683 50.1339V56.541C64.0683 56.6439 64.151 56.7281 64.2522 56.7281H70.5422C70.6434 56.7281 70.7262 56.6439 70.7262 56.541V50.1433C70.7262 50.0311 70.6434 49.9469 70.5422 49.9469ZM59.737 49.9469H53.4469C53.3458 49.9469 53.263 50.0311 53.263 50.1339V56.541C53.263 56.6439 53.3458 56.7281 53.4469 56.7281H59.737C59.8381 56.7281 59.9209 56.6439 59.9209 56.541V50.1433C59.9209 50.0311 59.8381 49.9469 59.737 49.9469ZM81.3475 37.535H75.0575C74.9655 37.535 74.8827 37.6192 74.8735 37.7221V44.1291C74.8735 44.232 74.9563 44.3162 75.0575 44.3162H81.3475C81.4487 44.3162 81.5314 44.232 81.5314 44.1291V37.7221C81.5314 37.6192 81.4487 37.535 81.3475 37.535ZM70.5422 37.535H64.2522C64.151 37.535 64.0683 37.6192 64.0683 37.7221V44.1291C64.0683 44.232 64.151 44.3162 64.2522 44.3162H70.5422C70.6434 44.3162 70.7262 44.232 70.7262 44.1291V37.7221C70.7262 37.6192 70.6434 37.535 70.5422 37.535ZM59.737 37.535H53.4469C53.3458 37.535 53.263 37.6192 53.263 37.7221V44.1291C53.263 44.232 53.3458 44.3162 53.4469 44.3162H59.737C59.8381 44.3162 59.9209 44.232 59.9209 44.1291V37.7221C59.9209 37.6192 59.8381 37.535 59.737 37.535Z" fill="#0E3860" fill-opacity="0.7"/>
</svg>
