<svg width="105" height="95" viewBox="0 0 105 95" fill="none" xmlns="http://www.w3.org/2000/svg">
<path d="M14.6214 85.913H23.1828C23.3366 86.9921 23.6869 88.037 24.2081 88.9877L24.8489 90.3666H9.86226V88.1312H9.83663V50.4472C7.83727 51.218 5.96608 51.2351 4.41102 50.7041C3.19773 50.293 2.17242 49.5565 1.42053 48.6058C0.668633 47.6551 0.190154 46.4989 0.0449015 45.2228C-0.177249 43.2444 0.412305 41.009 2.09552 38.9107C2.18097 38.808 2.27495 38.7052 2.38603 38.6195L51.1396 0.473018C51.7719 -0.109372 52.7459 -0.169324 53.4466 0.378808L102.311 38.4568C102.388 38.5168 102.456 38.5767 102.525 38.6538C104.789 41.0947 105.353 43.8011 104.806 46.0878C104.533 47.2184 103.994 48.229 103.251 49.0683C102.508 49.9076 101.559 50.5585 100.483 50.9439C98.7739 51.5606 96.7403 51.5435 94.6812 50.5671V85.913V90.358H66.1348L66.4253 89.2532H66.4167C66.5876 88.6108 66.6816 87.9599 66.7072 87.3005C66.9465 86.8637 67.143 86.3926 67.3053 85.9044H89.8878V48.4602C89.8878 47.5952 56.3687 21.0365 52.669 18.1503C48.7472 21.1393 14.6129 47.4839 14.6129 48.5972V85.913H14.6214ZM80.1046 3.04238L94.7751 3.6419V23.5031L80.1046 13.7995V3.04238ZM60.7433 56.6479C59.9915 57.059 59.0516 56.7764 58.6415 56.0313C58.2313 55.2776 58.5133 54.3355 59.2652 53.9244C62.8281 51.9888 64.4857 49.4794 64.819 47.0299C64.9984 45.7196 64.7933 44.4092 64.3063 43.193C63.8022 41.9597 63.0076 40.8378 62.0079 39.9385C60.0513 38.1827 57.3 37.2578 54.4291 37.9772C53.2671 38.2684 52.2589 38.8508 51.3788 39.673C50.439 40.5466 49.6358 41.6856 48.9266 43.0388C48.5251 43.8011 47.5937 44.0923 46.8333 43.6898C46.0729 43.2872 45.7823 42.3537 46.1839 41.5914C47.0554 39.9385 48.0722 38.5168 49.2769 37.3948C50.533 36.2215 52.0026 35.3821 53.7029 34.9625C57.6503 33.9861 61.4098 35.228 64.0842 37.6261C65.4427 38.8422 66.5193 40.3581 67.1943 42.0368C67.8778 43.724 68.1512 45.5825 67.8949 47.4667C67.4335 50.824 65.2889 54.1899 60.7519 56.6651L60.7433 56.6479ZM48.8754 68.9124C43.0055 61.0073 42.8602 53.5219 49.9861 46.5589L44.851 43.7155C40.7412 42.1139 33.2052 53.9244 36.1188 57.0847L40.1175 63.0285L39.2887 64.75C39.058 65.2639 39.2887 65.6236 39.8441 65.872L40.3824 66.0175L31.9492 84.6712L34.0511 89.1675L38.2634 87.9257L39.3485 85.8188L38.3147 83.8746L40.6045 83.3865L41.1343 82.3502L39.9381 80.5259L40.7241 79.0014L43.0055 78.7102L43.7488 77.2628L42.4757 75.5927L43.2874 74.0083L45.6115 73.6314L46.8077 69.5461L47.3459 69.8373C48.2773 70.4026 48.7557 70.0429 48.8668 68.9038L48.8754 68.9124ZM59.9231 73.8712L60.3418 77.691L58.1886 78.5475L57.7358 80.2347L59.3079 81.5708L58.8978 83.1038L56.7703 83.8575L56.3345 85.4848L57.8554 86.9836L57.5649 88.0884L55.4715 89.0391L56.8728 90.692L56.2662 92.9359L52.4981 95L49.5504 91.1288L53.1988 72.0898L51.8402 71.7215C51.5583 71.6445 51.3874 71.3533 51.4643 71.0706L52.0367 68.9381C47.9184 65.812 45.8763 60.3906 47.2947 55.0806C49.1146 48.2547 55.9842 44.1351 62.8025 45.6682C62.8367 46.0364 62.8281 46.4047 62.7769 46.773C62.6487 47.698 62.2557 48.6486 61.5123 49.565C61.4098 49.6849 61.3073 49.8134 61.1962 49.9333C59.0174 49.7877 56.9839 51.2009 56.3943 53.3934C56.138 54.3355 56.1978 55.2947 56.4969 56.1512C56.5652 56.4595 56.6848 56.7507 56.8386 57.0419C57.1975 57.7014 57.7272 58.2067 58.3424 58.5236C58.744 58.7891 59.2054 58.9946 59.6924 59.1316C62.1361 59.7826 64.6395 58.378 65.3658 55.9628C66.1006 55.3119 66.75 54.6181 67.2968 53.9073C68.3734 52.5198 69.0996 51.0553 69.5354 49.5565C72.4917 52.7511 73.7904 57.3502 72.5857 61.8809C71.1673 67.1909 66.6902 70.8651 61.5721 71.5074L60.9997 73.64C60.9228 73.9226 60.6323 74.0939 60.3503 74.0168L59.9231 73.8884V73.8712Z" fill="#0E3860" fill-opacity="0.7"/>
</svg>
