<svg width="73" height="79" viewBox="0 0 73 79" fill="none" xmlns="http://www.w3.org/2000/svg">
<path fill-rule="evenodd" clip-rule="evenodd" d="M16.2968 28.7612C13.7544 29.7319 12.267 32.5154 11.3136 35.5304L8.26274 45.0446L6.79449 42.261C0.266831 41.8689 -0.483182 45.6424 6.04448 48.9596C-1.22048 53.7167 -0.222584 62.0416 0.495649 71.2794C0.489293 71.3951 0.489293 71.5108 0.495649 71.6265V76.7693C0.495649 77.9971 1.48719 78.9936 2.7012 79H12.0764C13.2904 79 14.2756 77.9971 14.2819 76.7693V74.9822H58.7297V76.7693C58.7297 77.9971 59.7213 78.9936 60.9353 79H70.3359C71.5499 79 72.5351 77.9971 72.5414 76.7693V72.8158C73.2724 60.7752 73.73 55.9281 69.0202 51.036L67.8634 49.2424C75.0012 45.8224 74.3656 41.8625 67.6536 42.261L66.3824 44.7489L64.1133 35.524C63.1726 31.7247 60.9353 28.3947 57.0581 28.3947H57.0136C56.5877 29.6804 56.0983 30.9083 55.5453 32.1426C58.4056 32.2326 60.1408 34.714 60.7573 37.5747L63.0328 47.1403H11.4408L14.2819 37.5747C14.5743 36.5975 14.9874 35.6525 15.5023 34.7718C15.7438 34.2575 16.0934 33.8011 16.5256 33.4283C16.926 33.0297 17.3964 32.7083 17.9112 32.4897C17.6887 32.0461 17.4726 31.609 17.2756 31.159C16.9133 30.3747 16.5828 29.5776 16.2841 28.7805L16.2968 28.7612ZM44.4922 38.5132C42.471 40.7825 40.1383 42.7496 37.5641 44.3567C37.2336 44.601 36.7887 44.6203 36.4454 44.3953C32.7653 42.036 29.4983 39.0789 26.7715 35.6397C23.4473 31.5383 21.2036 26.6526 20.2693 21.4327C19.4939 16.592 20.2185 11.9313 22.602 8.14493C23.5744 6.60851 24.7885 5.23924 26.2058 4.10782C29.3012 1.49784 33.1975 0.0449996 37.2272 0C41.1235 0.0642851 44.8481 1.60713 47.6702 4.31996C48.7571 5.32924 49.6978 6.48637 50.4605 7.75922C53.0029 12.0277 53.575 17.4727 52.45 22.9819C51.1978 28.774 48.452 34.129 44.4922 38.5004V38.5132ZM43.1129 15.4284C43.1129 16.2963 42.8968 17.1513 42.4773 17.9034C42.0578 18.662 41.4349 19.2791 40.6786 19.6905C39.7633 20.1405 38.7463 20.3655 37.7294 20.3334H35.5937V24.2998H31.4496V10.5042H37.6976C39.1595 10.4013 40.6023 10.8835 41.7146 11.8478C42.6616 12.7863 43.1701 14.0913 43.1129 15.4284ZM37.5005 17.087C38.2887 17.0741 38.9179 16.4184 38.9052 15.6149C38.9052 15.5506 38.9052 15.4863 38.8925 15.4284C38.9815 14.6313 38.4158 13.9113 37.6213 13.8213C37.5832 13.8213 37.5387 13.8149 37.5005 13.8149H35.5937V17.087H37.5005ZM36.4963 4.42282C43.0367 4.42282 48.344 10.2085 48.344 17.402C48.344 24.5955 43.0367 30.3812 36.4963 30.3812C29.9559 30.3812 24.6486 24.5955 24.6486 17.402C24.6486 10.2085 29.9559 4.42282 36.4963 4.42282ZM18.0638 59.9137L9.69285 58.8466C7.72247 58.628 7.19492 59.4895 7.8623 61.1866L8.77122 63.4044C9.02546 63.9251 9.41318 64.3751 9.89624 64.6901C10.4683 65.0244 11.1102 65.198 11.7649 65.2108L19.2206 65.2687C21.0193 65.2687 21.7948 64.5359 21.2291 62.8709C20.8223 61.3473 19.5828 60.203 18.051 59.9266L18.0638 59.9137ZM54.9669 59.9137L63.3188 58.8466C65.2955 58.628 65.8231 59.4895 65.1493 61.1866L64.2468 63.4044C63.9925 63.9251 63.6048 64.3687 63.1218 64.6901C62.5434 65.0244 61.8823 65.2044 61.2149 65.2108L53.7657 65.2687C51.9669 65.2687 51.2232 64.5359 51.7508 62.8709C52.1576 61.3537 53.397 60.203 54.9288 59.9266L54.9669 59.9137Z" fill="#0E3860" fill-opacity="0.7"/>
</svg>
